%FSLAX45Y45*%
G04 Gerber Fmt 4.5, Leading zero omitted, Abs format (unit mm)*
G04 Created by KiCad (PCBNEW (6.0.5)) date 2022-09-17 13:25:24*
%MOMM*%
%LPD*%
G01*
G04 APERTURE LIST*
%TA.AperFunction,Profile*%
%ADD10C,0.150000*%
%TD*%
%ADD11C,0.200000*%
%ADD12C,0.040000*%
%ADD13C,0.080000*%
%ADD14C,0.109220*%
%ADD15C,0.127000*%
%ADD16C,0.090000*%
%ADD17C,0.170180*%
%ADD18C,0.300000*%
%ADD19C,0.342900*%
G04 APERTURE END LIST*
D10*
X5990000Y4040000D02*
X7399986Y4040000D01*
X5790000Y4240000D02*
X5790000Y9160000D01*
X5990000Y9360000D02*
X7390000Y9360000D01*
X7790000Y10210000D02*
X9190000Y10210000D01*
X7590000Y9560000D02*
X7590000Y10010000D01*
X9590000Y10776667D02*
X11210000Y10776667D01*
X11410000Y10576667D02*
X11410000Y10410000D01*
X9390000Y10410000D02*
X9390000Y10576667D01*
X11610000Y10210000D02*
X13010000Y10210000D01*
X13210000Y10010000D02*
X13210000Y9926667D01*
X13210000Y9926667D02*
X14810000Y9926667D01*
X15847549Y422126D02*
G75*
G03*
X16130392Y422126I141421J141421D01*
G01*
X16130392Y422126D02*
X17191052Y1482786D01*
X17191052Y1482786D02*
G75*
G03*
X17191052Y1765629I-141421J141421D01*
G01*
X5790000Y4240000D02*
G75*
G03*
X5990000Y4040000I200000J0D01*
G01*
X5990000Y9360000D02*
G75*
G03*
X5790000Y9160000I0J-200000D01*
G01*
X7390000Y9360000D02*
G75*
G03*
X7590000Y9560000I0J200000D01*
G01*
X7790000Y10210000D02*
G75*
G03*
X7590000Y10010000I0J-200000D01*
G01*
X9190000Y10210000D02*
G75*
G03*
X9390000Y10410000I0J200000D01*
G01*
X9590000Y10776667D02*
G75*
G03*
X9390000Y10576667I0J-200000D01*
G01*
X11410000Y10576667D02*
G75*
G03*
X11210000Y10776667I-200000J0D01*
G01*
X11410000Y10410000D02*
G75*
G03*
X11610000Y10210000I200000J0D01*
G01*
X13210000Y10010000D02*
G75*
G03*
X13010000Y10210000I-200000J0D01*
G01*
X15009937Y9731667D02*
G75*
G03*
X14810000Y9926667I-199938J-5000D01*
G01*
X16960741Y2162661D02*
X17191052Y1765629D01*
X15847549Y422126D02*
X11295980Y2854046D01*
X11041554Y2961184D02*
X7852442Y3970134D01*
X16960741Y2162661D02*
G75*
G03*
X17000000Y2281667I-160741J119006D01*
G01*
X17000000Y2281667D02*
X17000000Y9531667D01*
X17000000Y9531667D02*
G75*
G03*
X16800000Y9731667I-200000J0D01*
G01*
X16800000Y9731667D02*
X15009937Y9731667D01*
X7852442Y3970134D02*
G75*
G03*
X7399986Y4040000I-452456J-1430134D01*
G01*
X11295980Y2854046D02*
G75*
G03*
X11041554Y2961184I-706881J-1322996D01*
G01*
D11*
D12*
X15896893Y4591130D02*
X15936893Y4551130D01*
X15936893Y4591130D02*
X15896893Y4551130D01*
X15958224Y9415809D02*
X15998224Y9375809D01*
X15998224Y9415809D02*
X15958224Y9375809D01*
X15975516Y9072138D02*
X16015516Y9032138D01*
X16015516Y9072138D02*
X15975516Y9032138D01*
D13*
X15940000Y5966667D02*
G75*
G03*
X15940000Y5966667I-40000J0D01*
G01*
X16140000Y5966667D02*
G75*
G03*
X16140000Y5966667I-40000J0D01*
G01*
D14*
X15238000Y9318277D02*
X15238000Y9209057D01*
X15183390Y9263667D02*
X15292610Y9263667D01*
X15238000Y9064277D02*
X15238000Y8955057D01*
X15183390Y9009667D02*
X15292610Y9009667D01*
X15238000Y8810277D02*
X15238000Y8701057D01*
X15183390Y8755667D02*
X15292610Y8755667D01*
X15238000Y8556277D02*
X15238000Y8447057D01*
X15183390Y8501667D02*
X15292610Y8501667D01*
X15238000Y8302277D02*
X15238000Y8193057D01*
X15183390Y8247667D02*
X15292610Y8247667D01*
X15238000Y8048277D02*
X15238000Y7939057D01*
X15183390Y7993667D02*
X15292610Y7993667D01*
X15238000Y7794277D02*
X15238000Y7685057D01*
X15183390Y7739667D02*
X15292610Y7739667D01*
X15238000Y7540277D02*
X15238000Y7431057D01*
X15183390Y7485667D02*
X15292610Y7485667D01*
X15238000Y7286277D02*
X15238000Y7177057D01*
X15183390Y7231667D02*
X15292610Y7231667D01*
X15238000Y7032277D02*
X15238000Y6923057D01*
X15183390Y6977667D02*
X15292610Y6977667D01*
X15238000Y6778277D02*
X15238000Y6669057D01*
X15183390Y6723667D02*
X15292610Y6723667D01*
X15238000Y6524277D02*
X15238000Y6415057D01*
X15183390Y6469667D02*
X15292610Y6469667D01*
X16762000Y9318277D02*
X16762000Y9209057D01*
X16707390Y9263667D02*
X16816610Y9263667D01*
X16762000Y9064277D02*
X16762000Y8955057D01*
X16707390Y9009667D02*
X16816610Y9009667D01*
X16762000Y8810277D02*
X16762000Y8701057D01*
X16707390Y8755667D02*
X16816610Y8755667D01*
X16762000Y8556277D02*
X16762000Y8447057D01*
X16707390Y8501667D02*
X16816610Y8501667D01*
X16762000Y8302277D02*
X16762000Y8193057D01*
X16707390Y8247667D02*
X16816610Y8247667D01*
X16762000Y8048277D02*
X16762000Y7939057D01*
X16707390Y7993667D02*
X16816610Y7993667D01*
X16762000Y7794277D02*
X16762000Y7685057D01*
X16707390Y7739667D02*
X16816610Y7739667D01*
X16762000Y7540277D02*
X16762000Y7431057D01*
X16707390Y7485667D02*
X16816610Y7485667D01*
X16762000Y7286277D02*
X16762000Y7177057D01*
X16707390Y7231667D02*
X16816610Y7231667D01*
X16762000Y7032277D02*
X16762000Y6923057D01*
X16707390Y6977667D02*
X16816610Y6977667D01*
X16762000Y6778277D02*
X16762000Y6669057D01*
X16707390Y6723667D02*
X16816610Y6723667D01*
X16762000Y6524277D02*
X16762000Y6415057D01*
X16707390Y6469667D02*
X16816610Y6469667D01*
D15*
X6344902Y7975098D02*
X6344902Y8064902D01*
X6255098Y8064902D01*
X6255098Y7975098D01*
X6344902Y7975098D01*
X6344902Y6275098D02*
X6344902Y6364902D01*
X6255098Y6364902D01*
X6255098Y6275098D01*
X6344902Y6275098D01*
X6344902Y4575098D02*
X6344902Y4664902D01*
X6255098Y4664902D01*
X6255098Y4575098D01*
X6344902Y4575098D01*
X6844902Y7765098D02*
X6844902Y7854902D01*
X6755098Y7854902D01*
X6755098Y7765098D01*
X6844902Y7765098D01*
X6844902Y7765098D02*
X6844902Y7854902D01*
X6755098Y7854902D01*
X6755098Y7765098D01*
X6844902Y7765098D01*
X6844902Y6065098D02*
X6844902Y6154902D01*
X6755098Y6154902D01*
X6755098Y6065098D01*
X6844902Y6065098D01*
X6844902Y6065098D02*
X6844902Y6154902D01*
X6755098Y6154902D01*
X6755098Y6065098D01*
X6844902Y6065098D01*
X6844902Y4365098D02*
X6844902Y4454902D01*
X6755098Y4454902D01*
X6755098Y4365098D01*
X6844902Y4365098D01*
X6844902Y4365098D02*
X6844902Y4454902D01*
X6755098Y4454902D01*
X6755098Y4365098D01*
X6844902Y4365098D01*
X7344902Y7975098D02*
X7344902Y8064902D01*
X7255098Y8064902D01*
X7255098Y7975098D01*
X7344902Y7975098D01*
X7344902Y6275098D02*
X7344902Y6364902D01*
X7255098Y6364902D01*
X7255098Y6275098D01*
X7344902Y6275098D01*
X7344902Y4575098D02*
X7344902Y4664902D01*
X7255098Y4664902D01*
X7255098Y4575098D01*
X7344902Y4575098D01*
X8144902Y8825098D02*
X8144902Y8914902D01*
X8055098Y8914902D01*
X8055098Y8825098D01*
X8144902Y8825098D01*
X8144902Y7125098D02*
X8144902Y7214902D01*
X8055098Y7214902D01*
X8055098Y7125098D01*
X8144902Y7125098D01*
X8144902Y5425098D02*
X8144902Y5514902D01*
X8055098Y5514902D01*
X8055098Y5425098D01*
X8144902Y5425098D01*
X8644902Y8615098D02*
X8644902Y8704902D01*
X8555098Y8704902D01*
X8555098Y8615098D01*
X8644902Y8615098D01*
X8644902Y8615098D02*
X8644902Y8704902D01*
X8555098Y8704902D01*
X8555098Y8615098D01*
X8644902Y8615098D01*
X8644902Y6915098D02*
X8644902Y7004902D01*
X8555098Y7004902D01*
X8555098Y6915098D01*
X8644902Y6915098D01*
X8644902Y6915098D02*
X8644902Y7004902D01*
X8555098Y7004902D01*
X8555098Y6915098D01*
X8644902Y6915098D01*
X8644902Y5215098D02*
X8644902Y5304902D01*
X8555098Y5304902D01*
X8555098Y5215098D01*
X8644902Y5215098D01*
X8644902Y5215098D02*
X8644902Y5304902D01*
X8555098Y5304902D01*
X8555098Y5215098D01*
X8644902Y5215098D01*
X9144902Y8825098D02*
X9144902Y8914902D01*
X9055098Y8914902D01*
X9055098Y8825098D01*
X9144902Y8825098D01*
X9144902Y7125098D02*
X9144902Y7214902D01*
X9055098Y7214902D01*
X9055098Y7125098D01*
X9144902Y7125098D01*
X9144902Y5425098D02*
X9144902Y5514902D01*
X9055098Y5514902D01*
X9055098Y5425098D01*
X9144902Y5425098D01*
X9944902Y9391765D02*
X9944902Y9481568D01*
X9855098Y9481568D01*
X9855098Y9391765D01*
X9944902Y9391765D01*
X9944902Y7691765D02*
X9944902Y7781568D01*
X9855098Y7781568D01*
X9855098Y7691765D01*
X9944902Y7691765D01*
X9944902Y5991765D02*
X9944902Y6081568D01*
X9855098Y6081568D01*
X9855098Y5991765D01*
X9944902Y5991765D01*
X10444902Y9181765D02*
X10444902Y9271568D01*
X10355098Y9271568D01*
X10355098Y9181765D01*
X10444902Y9181765D01*
X10444902Y9181765D02*
X10444902Y9271568D01*
X10355098Y9271568D01*
X10355098Y9181765D01*
X10444902Y9181765D01*
X10444902Y7481765D02*
X10444902Y7571568D01*
X10355098Y7571568D01*
X10355098Y7481765D01*
X10444902Y7481765D01*
X10444902Y7481765D02*
X10444902Y7571568D01*
X10355098Y7571568D01*
X10355098Y7481765D01*
X10444902Y7481765D01*
X10444902Y5781765D02*
X10444902Y5871568D01*
X10355098Y5871568D01*
X10355098Y5781765D01*
X10444902Y5781765D01*
X10444902Y5781765D02*
X10444902Y5871568D01*
X10355098Y5871568D01*
X10355098Y5781765D01*
X10444902Y5781765D01*
X10944902Y9391765D02*
X10944902Y9481568D01*
X10855098Y9481568D01*
X10855098Y9391765D01*
X10944902Y9391765D01*
X10944902Y7691765D02*
X10944902Y7781568D01*
X10855098Y7781568D01*
X10855098Y7691765D01*
X10944902Y7691765D01*
X10944902Y5991765D02*
X10944902Y6081568D01*
X10855098Y6081568D01*
X10855098Y5991765D01*
X10944902Y5991765D01*
X11744902Y8825098D02*
X11744902Y8914902D01*
X11655098Y8914902D01*
X11655098Y8825098D01*
X11744902Y8825098D01*
X11744902Y7125098D02*
X11744902Y7214902D01*
X11655098Y7214902D01*
X11655098Y7125098D01*
X11744902Y7125098D01*
X11744902Y5425098D02*
X11744902Y5514902D01*
X11655098Y5514902D01*
X11655098Y5425098D01*
X11744902Y5425098D01*
X11971583Y3366348D02*
X11971583Y3456152D01*
X11881780Y3456152D01*
X11881780Y3366348D01*
X11971583Y3366348D01*
X12244902Y8615098D02*
X12244902Y8704902D01*
X12155098Y8704902D01*
X12155098Y8615098D01*
X12244902Y8615098D01*
X12244902Y8615098D02*
X12244902Y8704902D01*
X12155098Y8704902D01*
X12155098Y8615098D01*
X12244902Y8615098D01*
X12244902Y6915098D02*
X12244902Y7004902D01*
X12155098Y7004902D01*
X12155098Y6915098D01*
X12244902Y6915098D01*
X12244902Y6915098D02*
X12244902Y7004902D01*
X12155098Y7004902D01*
X12155098Y6915098D01*
X12244902Y6915098D01*
X12244902Y5215098D02*
X12244902Y5304902D01*
X12155098Y5304902D01*
X12155098Y5215098D01*
X12244902Y5215098D01*
X12244902Y5215098D02*
X12244902Y5304902D01*
X12155098Y5304902D01*
X12155098Y5215098D01*
X12244902Y5215098D01*
X12400194Y3034094D02*
X12400194Y3123898D01*
X12310391Y3123898D01*
X12310391Y3034094D01*
X12400194Y3034094D01*
X12400194Y3034094D02*
X12400194Y3123898D01*
X12310391Y3123898D01*
X12310391Y3034094D01*
X12400194Y3034094D01*
X12744902Y8825098D02*
X12744902Y8914902D01*
X12655098Y8914902D01*
X12655098Y8825098D01*
X12744902Y8825098D01*
X12744902Y7125098D02*
X12744902Y7214902D01*
X12655098Y7214902D01*
X12655098Y7125098D01*
X12744902Y7125098D01*
X12744902Y5425098D02*
X12744902Y5514902D01*
X12655098Y5514902D01*
X12655098Y5425098D01*
X12744902Y5425098D01*
X12937509Y3107529D02*
X12937509Y3197333D01*
X12847706Y3197333D01*
X12847706Y3107529D01*
X12937509Y3107529D01*
X13544902Y8541765D02*
X13544902Y8631568D01*
X13455098Y8631568D01*
X13455098Y8541765D01*
X13544902Y8541765D01*
X13544902Y6841765D02*
X13544902Y6931568D01*
X13455098Y6931568D01*
X13455098Y6841765D01*
X13544902Y6841765D01*
X13544902Y5141765D02*
X13544902Y5231568D01*
X13455098Y5231568D01*
X13455098Y5141765D01*
X13544902Y5141765D01*
X13783645Y2757048D02*
X13783645Y2846852D01*
X13693841Y2846852D01*
X13693841Y2757048D01*
X13783645Y2757048D01*
X14044902Y8331765D02*
X14044902Y8421568D01*
X13955098Y8421568D01*
X13955098Y8331765D01*
X14044902Y8331765D01*
X14044902Y8331765D02*
X14044902Y8421568D01*
X13955098Y8421568D01*
X13955098Y8331765D01*
X14044902Y8331765D01*
X14044902Y6631765D02*
X14044902Y6721568D01*
X13955098Y6721568D01*
X13955098Y6631765D01*
X14044902Y6631765D01*
X14044902Y6631765D02*
X14044902Y6721568D01*
X13955098Y6721568D01*
X13955098Y6631765D01*
X14044902Y6631765D01*
X14044902Y4931765D02*
X14044902Y5021568D01*
X13955098Y5021568D01*
X13955098Y4931765D01*
X14044902Y4931765D01*
X14044902Y4931765D02*
X14044902Y5021568D01*
X13955098Y5021568D01*
X13955098Y4931765D01*
X14044902Y4931765D01*
X14111657Y2325183D02*
X14111657Y2414986D01*
X14021854Y2414986D01*
X14021854Y2325183D01*
X14111657Y2325183D01*
X14111657Y2325183D02*
X14111657Y2414986D01*
X14021854Y2414986D01*
X14021854Y2325183D01*
X14111657Y2325183D01*
X14544902Y8541765D02*
X14544902Y8631568D01*
X14455098Y8631568D01*
X14455098Y8541765D01*
X14544902Y8541765D01*
X14544902Y6841765D02*
X14544902Y6931568D01*
X14455098Y6931568D01*
X14455098Y6841765D01*
X14544902Y6841765D01*
X14544902Y5141765D02*
X14544902Y5231568D01*
X14455098Y5231568D01*
X14455098Y5141765D01*
X14544902Y5141765D01*
X14649670Y2257048D02*
X14649670Y2346852D01*
X14559867Y2346852D01*
X14559867Y2257048D01*
X14649670Y2257048D01*
X15376263Y1699514D02*
X15376263Y1789317D01*
X15286460Y1789317D01*
X15286460Y1699514D01*
X15376263Y1699514D01*
X15581324Y1197468D02*
X15581324Y1287272D01*
X15491521Y1287272D01*
X15491521Y1197468D01*
X15581324Y1197468D01*
X15581324Y1197468D02*
X15581324Y1287272D01*
X15491521Y1287272D01*
X15491521Y1197468D01*
X15581324Y1197468D01*
X16083370Y992407D02*
X16083370Y1082211D01*
X15993567Y1082211D01*
X15993567Y992407D01*
X16083370Y992407D01*
D16*
X15850000Y9421667D02*
X15895000Y9466667D01*
X15850000Y9511667D01*
X15805000Y9466667D01*
X15850000Y9421667D01*
X15850000Y9421667D02*
X15895000Y9466667D01*
X15850000Y9511667D01*
X15805000Y9466667D01*
X15850000Y9421667D01*
X16150000Y9421667D02*
X16195000Y9466667D01*
X16150000Y9511667D01*
X16105000Y9466667D01*
X16150000Y9421667D01*
X16150000Y9421667D02*
X16195000Y9466667D01*
X16150000Y9511667D01*
X16105000Y9466667D01*
X16150000Y9421667D01*
D17*
X6164910Y8485090D02*
X6335090Y8314910D01*
X6335090Y8485090D02*
X6164910Y8314910D01*
X6335090Y8400000D02*
G75*
G03*
X6335090Y8400000I-85090J0D01*
G01*
X6164910Y8485090D02*
X6335090Y8314910D01*
X6335090Y8485090D02*
X6164910Y8314910D01*
X6335090Y8400000D02*
G75*
G03*
X6335090Y8400000I-85090J0D01*
G01*
X6164910Y6785090D02*
X6335090Y6614910D01*
X6335090Y6785090D02*
X6164910Y6614910D01*
X6335090Y6700000D02*
G75*
G03*
X6335090Y6700000I-85090J0D01*
G01*
X6164910Y6785090D02*
X6335090Y6614910D01*
X6335090Y6785090D02*
X6164910Y6614910D01*
X6335090Y6700000D02*
G75*
G03*
X6335090Y6700000I-85090J0D01*
G01*
X6164910Y5085090D02*
X6335090Y4914910D01*
X6335090Y5085090D02*
X6164910Y4914910D01*
X6335090Y5000000D02*
G75*
G03*
X6335090Y5000000I-85090J0D01*
G01*
X6164910Y5085090D02*
X6335090Y4914910D01*
X6335090Y5085090D02*
X6164910Y4914910D01*
X6335090Y5000000D02*
G75*
G03*
X6335090Y5000000I-85090J0D01*
G01*
X7264910Y8485090D02*
X7435090Y8314910D01*
X7435090Y8485090D02*
X7264910Y8314910D01*
X7435090Y8400000D02*
G75*
G03*
X7435090Y8400000I-85090J0D01*
G01*
X7264910Y8485090D02*
X7435090Y8314910D01*
X7435090Y8485090D02*
X7264910Y8314910D01*
X7435090Y8400000D02*
G75*
G03*
X7435090Y8400000I-85090J0D01*
G01*
X7264910Y6785090D02*
X7435090Y6614910D01*
X7435090Y6785090D02*
X7264910Y6614910D01*
X7435090Y6700000D02*
G75*
G03*
X7435090Y6700000I-85090J0D01*
G01*
X7264910Y6785090D02*
X7435090Y6614910D01*
X7435090Y6785090D02*
X7264910Y6614910D01*
X7435090Y6700000D02*
G75*
G03*
X7435090Y6700000I-85090J0D01*
G01*
X7264910Y5085090D02*
X7435090Y4914910D01*
X7435090Y5085090D02*
X7264910Y4914910D01*
X7435090Y5000000D02*
G75*
G03*
X7435090Y5000000I-85090J0D01*
G01*
X7264910Y5085090D02*
X7435090Y4914910D01*
X7435090Y5085090D02*
X7264910Y4914910D01*
X7435090Y5000000D02*
G75*
G03*
X7435090Y5000000I-85090J0D01*
G01*
X7964910Y9335090D02*
X8135090Y9164910D01*
X8135090Y9335090D02*
X7964910Y9164910D01*
X8135090Y9250000D02*
G75*
G03*
X8135090Y9250000I-85090J0D01*
G01*
X7964910Y9335090D02*
X8135090Y9164910D01*
X8135090Y9335090D02*
X7964910Y9164910D01*
X8135090Y9250000D02*
G75*
G03*
X8135090Y9250000I-85090J0D01*
G01*
X7964910Y7635090D02*
X8135090Y7464910D01*
X8135090Y7635090D02*
X7964910Y7464910D01*
X8135090Y7550000D02*
G75*
G03*
X8135090Y7550000I-85090J0D01*
G01*
X7964910Y7635090D02*
X8135090Y7464910D01*
X8135090Y7635090D02*
X7964910Y7464910D01*
X8135090Y7550000D02*
G75*
G03*
X8135090Y7550000I-85090J0D01*
G01*
X7964910Y5935090D02*
X8135090Y5764910D01*
X8135090Y5935090D02*
X7964910Y5764910D01*
X8135090Y5850000D02*
G75*
G03*
X8135090Y5850000I-85090J0D01*
G01*
X7964910Y5935090D02*
X8135090Y5764910D01*
X8135090Y5935090D02*
X7964910Y5764910D01*
X8135090Y5850000D02*
G75*
G03*
X8135090Y5850000I-85090J0D01*
G01*
X9064910Y9335090D02*
X9235090Y9164910D01*
X9235090Y9335090D02*
X9064910Y9164910D01*
X9235090Y9250000D02*
G75*
G03*
X9235090Y9250000I-85090J0D01*
G01*
X9064910Y9335090D02*
X9235090Y9164910D01*
X9235090Y9335090D02*
X9064910Y9164910D01*
X9235090Y9250000D02*
G75*
G03*
X9235090Y9250000I-85090J0D01*
G01*
X9064910Y7635090D02*
X9235090Y7464910D01*
X9235090Y7635090D02*
X9064910Y7464910D01*
X9235090Y7550000D02*
G75*
G03*
X9235090Y7550000I-85090J0D01*
G01*
X9064910Y7635090D02*
X9235090Y7464910D01*
X9235090Y7635090D02*
X9064910Y7464910D01*
X9235090Y7550000D02*
G75*
G03*
X9235090Y7550000I-85090J0D01*
G01*
X9064910Y5935090D02*
X9235090Y5764910D01*
X9235090Y5935090D02*
X9064910Y5764910D01*
X9235090Y5850000D02*
G75*
G03*
X9235090Y5850000I-85090J0D01*
G01*
X9064910Y5935090D02*
X9235090Y5764910D01*
X9235090Y5935090D02*
X9064910Y5764910D01*
X9235090Y5850000D02*
G75*
G03*
X9235090Y5850000I-85090J0D01*
G01*
X9764910Y9901757D02*
X9935090Y9731577D01*
X9935090Y9901757D02*
X9764910Y9731577D01*
X9935090Y9816667D02*
G75*
G03*
X9935090Y9816667I-85090J0D01*
G01*
X9764910Y9901757D02*
X9935090Y9731577D01*
X9935090Y9901757D02*
X9764910Y9731577D01*
X9935090Y9816667D02*
G75*
G03*
X9935090Y9816667I-85090J0D01*
G01*
X9764910Y8201757D02*
X9935090Y8031577D01*
X9935090Y8201757D02*
X9764910Y8031577D01*
X9935090Y8116667D02*
G75*
G03*
X9935090Y8116667I-85090J0D01*
G01*
X9764910Y8201757D02*
X9935090Y8031577D01*
X9935090Y8201757D02*
X9764910Y8031577D01*
X9935090Y8116667D02*
G75*
G03*
X9935090Y8116667I-85090J0D01*
G01*
X9764910Y6501757D02*
X9935090Y6331577D01*
X9935090Y6501757D02*
X9764910Y6331577D01*
X9935090Y6416667D02*
G75*
G03*
X9935090Y6416667I-85090J0D01*
G01*
X9764910Y6501757D02*
X9935090Y6331577D01*
X9935090Y6501757D02*
X9764910Y6331577D01*
X9935090Y6416667D02*
G75*
G03*
X9935090Y6416667I-85090J0D01*
G01*
X10864910Y9901757D02*
X11035090Y9731577D01*
X11035090Y9901757D02*
X10864910Y9731577D01*
X11035090Y9816667D02*
G75*
G03*
X11035090Y9816667I-85090J0D01*
G01*
X10864910Y9901757D02*
X11035090Y9731577D01*
X11035090Y9901757D02*
X10864910Y9731577D01*
X11035090Y9816667D02*
G75*
G03*
X11035090Y9816667I-85090J0D01*
G01*
X10864910Y8201757D02*
X11035090Y8031577D01*
X11035090Y8201757D02*
X10864910Y8031577D01*
X11035090Y8116667D02*
G75*
G03*
X11035090Y8116667I-85090J0D01*
G01*
X10864910Y8201757D02*
X11035090Y8031577D01*
X11035090Y8201757D02*
X10864910Y8031577D01*
X11035090Y8116667D02*
G75*
G03*
X11035090Y8116667I-85090J0D01*
G01*
X10864910Y6501757D02*
X11035090Y6331577D01*
X11035090Y6501757D02*
X10864910Y6331577D01*
X11035090Y6416667D02*
G75*
G03*
X11035090Y6416667I-85090J0D01*
G01*
X10864910Y6501757D02*
X11035090Y6331577D01*
X11035090Y6501757D02*
X10864910Y6331577D01*
X11035090Y6416667D02*
G75*
G03*
X11035090Y6416667I-85090J0D01*
G01*
X11564910Y9335090D02*
X11735090Y9164910D01*
X11735090Y9335090D02*
X11564910Y9164910D01*
X11735090Y9250000D02*
G75*
G03*
X11735090Y9250000I-85090J0D01*
G01*
X11564910Y9335090D02*
X11735090Y9164910D01*
X11735090Y9335090D02*
X11564910Y9164910D01*
X11735090Y9250000D02*
G75*
G03*
X11735090Y9250000I-85090J0D01*
G01*
X11564910Y7635090D02*
X11735090Y7464910D01*
X11735090Y7635090D02*
X11564910Y7464910D01*
X11735090Y7550000D02*
G75*
G03*
X11735090Y7550000I-85090J0D01*
G01*
X11564910Y7635090D02*
X11735090Y7464910D01*
X11735090Y7635090D02*
X11564910Y7464910D01*
X11735090Y7550000D02*
G75*
G03*
X11735090Y7550000I-85090J0D01*
G01*
X11564910Y5935090D02*
X11735090Y5764910D01*
X11735090Y5935090D02*
X11564910Y5764910D01*
X11735090Y5850000D02*
G75*
G03*
X11735090Y5850000I-85090J0D01*
G01*
X11564910Y5935090D02*
X11735090Y5764910D01*
X11735090Y5935090D02*
X11564910Y5764910D01*
X11735090Y5850000D02*
G75*
G03*
X11735090Y5850000I-85090J0D01*
G01*
X11891647Y3876333D02*
X12061827Y3706153D01*
X12061827Y3876333D02*
X11891647Y3706153D01*
X12061827Y3791243D02*
G75*
G03*
X12061827Y3791243I-85090J0D01*
G01*
X11891647Y3876333D02*
X12061827Y3706153D01*
X12061827Y3876333D02*
X11891647Y3706153D01*
X12061827Y3791243D02*
G75*
G03*
X12061827Y3791243I-85090J0D01*
G01*
X12664910Y9335090D02*
X12835090Y9164910D01*
X12835090Y9335090D02*
X12664910Y9164910D01*
X12835090Y9250000D02*
G75*
G03*
X12835090Y9250000I-85090J0D01*
G01*
X12664910Y9335090D02*
X12835090Y9164910D01*
X12835090Y9335090D02*
X12664910Y9164910D01*
X12835090Y9250000D02*
G75*
G03*
X12835090Y9250000I-85090J0D01*
G01*
X12664910Y7635090D02*
X12835090Y7464910D01*
X12835090Y7635090D02*
X12664910Y7464910D01*
X12835090Y7550000D02*
G75*
G03*
X12835090Y7550000I-85090J0D01*
G01*
X12664910Y7635090D02*
X12835090Y7464910D01*
X12835090Y7635090D02*
X12664910Y7464910D01*
X12835090Y7550000D02*
G75*
G03*
X12835090Y7550000I-85090J0D01*
G01*
X12664910Y5935090D02*
X12835090Y5764910D01*
X12835090Y5935090D02*
X12664910Y5764910D01*
X12835090Y5850000D02*
G75*
G03*
X12835090Y5850000I-85090J0D01*
G01*
X12664910Y5935090D02*
X12835090Y5764910D01*
X12835090Y5935090D02*
X12664910Y5764910D01*
X12835090Y5850000D02*
G75*
G03*
X12835090Y5850000I-85090J0D01*
G01*
X12954165Y3591632D02*
X13124345Y3421452D01*
X13124345Y3591632D02*
X12954165Y3421452D01*
X13124345Y3506542D02*
G75*
G03*
X13124345Y3506542I-85090J0D01*
G01*
X12954165Y3591632D02*
X13124345Y3421452D01*
X13124345Y3591632D02*
X12954165Y3421452D01*
X13124345Y3506542D02*
G75*
G03*
X13124345Y3506542I-85090J0D01*
G01*
X13364910Y9051757D02*
X13535090Y8881577D01*
X13535090Y9051757D02*
X13364910Y8881577D01*
X13535090Y8966667D02*
G75*
G03*
X13535090Y8966667I-85090J0D01*
G01*
X13364910Y9051757D02*
X13535090Y8881577D01*
X13535090Y9051757D02*
X13364910Y8881577D01*
X13535090Y8966667D02*
G75*
G03*
X13535090Y8966667I-85090J0D01*
G01*
X13364910Y7351757D02*
X13535090Y7181577D01*
X13535090Y7351757D02*
X13364910Y7181577D01*
X13535090Y7266667D02*
G75*
G03*
X13535090Y7266667I-85090J0D01*
G01*
X13364910Y7351757D02*
X13535090Y7181577D01*
X13535090Y7351757D02*
X13364910Y7181577D01*
X13535090Y7266667D02*
G75*
G03*
X13535090Y7266667I-85090J0D01*
G01*
X13364910Y5651757D02*
X13535090Y5481577D01*
X13535090Y5651757D02*
X13364910Y5481577D01*
X13535090Y5566667D02*
G75*
G03*
X13535090Y5566667I-85090J0D01*
G01*
X13364910Y5651757D02*
X13535090Y5481577D01*
X13535090Y5651757D02*
X13364910Y5481577D01*
X13535090Y5566667D02*
G75*
G03*
X13535090Y5566667I-85090J0D01*
G01*
X13800352Y3241130D02*
X13970532Y3070950D01*
X13970532Y3241130D02*
X13800352Y3070950D01*
X13970532Y3156040D02*
G75*
G03*
X13970532Y3156040I-85090J0D01*
G01*
X13800352Y3241130D02*
X13970532Y3070950D01*
X13970532Y3241130D02*
X13800352Y3070950D01*
X13970532Y3156040D02*
G75*
G03*
X13970532Y3156040I-85090J0D01*
G01*
X14464910Y9051757D02*
X14635090Y8881577D01*
X14635090Y9051757D02*
X14464910Y8881577D01*
X14635090Y8966667D02*
G75*
G03*
X14635090Y8966667I-85090J0D01*
G01*
X14464910Y9051757D02*
X14635090Y8881577D01*
X14635090Y9051757D02*
X14464910Y8881577D01*
X14635090Y8966667D02*
G75*
G03*
X14635090Y8966667I-85090J0D01*
G01*
X14464910Y7351757D02*
X14635090Y7181577D01*
X14635090Y7351757D02*
X14464910Y7181577D01*
X14635090Y7266667D02*
G75*
G03*
X14635090Y7266667I-85090J0D01*
G01*
X14464910Y7351757D02*
X14635090Y7181577D01*
X14635090Y7351757D02*
X14464910Y7181577D01*
X14635090Y7266667D02*
G75*
G03*
X14635090Y7266667I-85090J0D01*
G01*
X14464910Y5651757D02*
X14635090Y5481577D01*
X14635090Y5651757D02*
X14464910Y5481577D01*
X14635090Y5566667D02*
G75*
G03*
X14635090Y5566667I-85090J0D01*
G01*
X14464910Y5651757D02*
X14635090Y5481577D01*
X14635090Y5651757D02*
X14464910Y5481577D01*
X14635090Y5566667D02*
G75*
G03*
X14635090Y5566667I-85090J0D01*
G01*
X14752980Y2691130D02*
X14923160Y2520950D01*
X14923160Y2691130D02*
X14752980Y2520950D01*
X14923160Y2606040D02*
G75*
G03*
X14923160Y2606040I-85090J0D01*
G01*
X14752980Y2691130D02*
X14923160Y2520950D01*
X14923160Y2691130D02*
X14752980Y2520950D01*
X14923160Y2606040D02*
G75*
G03*
X14923160Y2606040I-85090J0D01*
G01*
X15479617Y2133562D02*
X15649797Y1963381D01*
X15649797Y2133562D02*
X15479617Y1963381D01*
X15649797Y2048471D02*
G75*
G03*
X15649797Y2048471I-85090J0D01*
G01*
X15479617Y2133562D02*
X15649797Y1963381D01*
X15649797Y2133562D02*
X15479617Y1963381D01*
X15649797Y2048471D02*
G75*
G03*
X15649797Y2048471I-85090J0D01*
G01*
X16257434Y1355744D02*
X16427614Y1185564D01*
X16427614Y1355744D02*
X16257434Y1185564D01*
X16427614Y1270654D02*
G75*
G03*
X16427614Y1270654I-85090J0D01*
G01*
X16257434Y1355744D02*
X16427614Y1185564D01*
X16427614Y1355744D02*
X16257434Y1185564D01*
X16427614Y1270654D02*
G75*
G03*
X16427614Y1270654I-85090J0D01*
G01*
D18*
X6150000Y8925000D02*
X6450000Y8625000D01*
X6450000Y8925000D02*
X6150000Y8625000D01*
X6300000Y8925000D02*
X6300000Y8625000D01*
X6150000Y8775000D02*
X6450000Y8775000D01*
X6150000Y7225000D02*
X6450000Y6925000D01*
X6450000Y7225000D02*
X6150000Y6925000D01*
X6300000Y7225000D02*
X6300000Y6925000D01*
X6150000Y7075000D02*
X6450000Y7075000D01*
X6150000Y5525000D02*
X6450000Y5225000D01*
X6450000Y5525000D02*
X6150000Y5225000D01*
X6300000Y5525000D02*
X6300000Y5225000D01*
X6150000Y5375000D02*
X6450000Y5375000D01*
X6650000Y9145000D02*
X6950000Y8845000D01*
X6950000Y9145000D02*
X6650000Y8845000D01*
X6800000Y9145000D02*
X6800000Y8845000D01*
X6650000Y8995000D02*
X6950000Y8995000D01*
X6650000Y9145000D02*
X6950000Y8845000D01*
X6950000Y9145000D02*
X6650000Y8845000D01*
X6800000Y9145000D02*
X6800000Y8845000D01*
X6650000Y8995000D02*
X6950000Y8995000D01*
X6650000Y7445000D02*
X6950000Y7145000D01*
X6950000Y7445000D02*
X6650000Y7145000D01*
X6800000Y7445000D02*
X6800000Y7145000D01*
X6650000Y7295000D02*
X6950000Y7295000D01*
X6650000Y7445000D02*
X6950000Y7145000D01*
X6950000Y7445000D02*
X6650000Y7145000D01*
X6800000Y7445000D02*
X6800000Y7145000D01*
X6650000Y7295000D02*
X6950000Y7295000D01*
X6650000Y5745000D02*
X6950000Y5445000D01*
X6950000Y5745000D02*
X6650000Y5445000D01*
X6800000Y5745000D02*
X6800000Y5445000D01*
X6650000Y5595000D02*
X6950000Y5595000D01*
X6650000Y5745000D02*
X6950000Y5445000D01*
X6950000Y5745000D02*
X6650000Y5445000D01*
X6800000Y5745000D02*
X6800000Y5445000D01*
X6650000Y5595000D02*
X6950000Y5595000D01*
X7150000Y8925000D02*
X7450000Y8625000D01*
X7450000Y8925000D02*
X7150000Y8625000D01*
X7300000Y8925000D02*
X7300000Y8625000D01*
X7150000Y8775000D02*
X7450000Y8775000D01*
X7150000Y7225000D02*
X7450000Y6925000D01*
X7450000Y7225000D02*
X7150000Y6925000D01*
X7300000Y7225000D02*
X7300000Y6925000D01*
X7150000Y7075000D02*
X7450000Y7075000D01*
X7150000Y5525000D02*
X7450000Y5225000D01*
X7450000Y5525000D02*
X7150000Y5225000D01*
X7300000Y5525000D02*
X7300000Y5225000D01*
X7150000Y5375000D02*
X7450000Y5375000D01*
X7950000Y9775000D02*
X8250000Y9475000D01*
X8250000Y9775000D02*
X7950000Y9475000D01*
X8100000Y9775000D02*
X8100000Y9475000D01*
X7950000Y9625000D02*
X8250000Y9625000D01*
X7950000Y8075000D02*
X8250000Y7775000D01*
X8250000Y8075000D02*
X7950000Y7775000D01*
X8100000Y8075000D02*
X8100000Y7775000D01*
X7950000Y7925000D02*
X8250000Y7925000D01*
X7950000Y6375000D02*
X8250000Y6075000D01*
X8250000Y6375000D02*
X7950000Y6075000D01*
X8100000Y6375000D02*
X8100000Y6075000D01*
X7950000Y6225000D02*
X8250000Y6225000D01*
X8450000Y9995000D02*
X8750000Y9695000D01*
X8750000Y9995000D02*
X8450000Y9695000D01*
X8600000Y9995000D02*
X8600000Y9695000D01*
X8450000Y9845000D02*
X8750000Y9845000D01*
X8450000Y9995000D02*
X8750000Y9695000D01*
X8750000Y9995000D02*
X8450000Y9695000D01*
X8600000Y9995000D02*
X8600000Y9695000D01*
X8450000Y9845000D02*
X8750000Y9845000D01*
X8450000Y8295000D02*
X8750000Y7995000D01*
X8750000Y8295000D02*
X8450000Y7995000D01*
X8600000Y8295000D02*
X8600000Y7995000D01*
X8450000Y8145000D02*
X8750000Y8145000D01*
X8450000Y8295000D02*
X8750000Y7995000D01*
X8750000Y8295000D02*
X8450000Y7995000D01*
X8600000Y8295000D02*
X8600000Y7995000D01*
X8450000Y8145000D02*
X8750000Y8145000D01*
X8450000Y6595000D02*
X8750000Y6295000D01*
X8750000Y6595000D02*
X8450000Y6295000D01*
X8600000Y6595000D02*
X8600000Y6295000D01*
X8450000Y6445000D02*
X8750000Y6445000D01*
X8450000Y6595000D02*
X8750000Y6295000D01*
X8750000Y6595000D02*
X8450000Y6295000D01*
X8600000Y6595000D02*
X8600000Y6295000D01*
X8450000Y6445000D02*
X8750000Y6445000D01*
X8950000Y9775000D02*
X9250000Y9475000D01*
X9250000Y9775000D02*
X8950000Y9475000D01*
X9100000Y9775000D02*
X9100000Y9475000D01*
X8950000Y9625000D02*
X9250000Y9625000D01*
X8950000Y8075000D02*
X9250000Y7775000D01*
X9250000Y8075000D02*
X8950000Y7775000D01*
X9100000Y8075000D02*
X9100000Y7775000D01*
X8950000Y7925000D02*
X9250000Y7925000D01*
X8950000Y6375000D02*
X9250000Y6075000D01*
X9250000Y6375000D02*
X8950000Y6075000D01*
X9100000Y6375000D02*
X9100000Y6075000D01*
X8950000Y6225000D02*
X9250000Y6225000D01*
X9750000Y10341667D02*
X10050000Y10041667D01*
X10050000Y10341667D02*
X9750000Y10041667D01*
X9900000Y10341667D02*
X9900000Y10041667D01*
X9750000Y10191667D02*
X10050000Y10191667D01*
X9750000Y8641667D02*
X10050000Y8341667D01*
X10050000Y8641667D02*
X9750000Y8341667D01*
X9900000Y8641667D02*
X9900000Y8341667D01*
X9750000Y8491667D02*
X10050000Y8491667D01*
X9750000Y6941667D02*
X10050000Y6641667D01*
X10050000Y6941667D02*
X9750000Y6641667D01*
X9900000Y6941667D02*
X9900000Y6641667D01*
X9750000Y6791667D02*
X10050000Y6791667D01*
X10250000Y10561667D02*
X10550000Y10261667D01*
X10550000Y10561667D02*
X10250000Y10261667D01*
X10400000Y10561667D02*
X10400000Y10261667D01*
X10250000Y10411667D02*
X10550000Y10411667D01*
X10250000Y10561667D02*
X10550000Y10261667D01*
X10550000Y10561667D02*
X10250000Y10261667D01*
X10400000Y10561667D02*
X10400000Y10261667D01*
X10250000Y10411667D02*
X10550000Y10411667D01*
X10250000Y8861667D02*
X10550000Y8561667D01*
X10550000Y8861667D02*
X10250000Y8561667D01*
X10400000Y8861667D02*
X10400000Y8561667D01*
X10250000Y8711667D02*
X10550000Y8711667D01*
X10250000Y8861667D02*
X10550000Y8561667D01*
X10550000Y8861667D02*
X10250000Y8561667D01*
X10400000Y8861667D02*
X10400000Y8561667D01*
X10250000Y8711667D02*
X10550000Y8711667D01*
X10250000Y7161667D02*
X10550000Y6861667D01*
X10550000Y7161667D02*
X10250000Y6861667D01*
X10400000Y7161667D02*
X10400000Y6861667D01*
X10250000Y7011667D02*
X10550000Y7011667D01*
X10250000Y7161667D02*
X10550000Y6861667D01*
X10550000Y7161667D02*
X10250000Y6861667D01*
X10400000Y7161667D02*
X10400000Y6861667D01*
X10250000Y7011667D02*
X10550000Y7011667D01*
X10750000Y10341667D02*
X11050000Y10041667D01*
X11050000Y10341667D02*
X10750000Y10041667D01*
X10900000Y10341667D02*
X10900000Y10041667D01*
X10750000Y10191667D02*
X11050000Y10191667D01*
X10750000Y8641667D02*
X11050000Y8341667D01*
X11050000Y8641667D02*
X10750000Y8341667D01*
X10900000Y8641667D02*
X10900000Y8341667D01*
X10750000Y8491667D02*
X11050000Y8491667D01*
X10750000Y6941667D02*
X11050000Y6641667D01*
X11050000Y6941667D02*
X10750000Y6641667D01*
X10900000Y6941667D02*
X10900000Y6641667D01*
X10750000Y6791667D02*
X11050000Y6791667D01*
X11550000Y9775000D02*
X11850000Y9475000D01*
X11850000Y9775000D02*
X11550000Y9475000D01*
X11700000Y9775000D02*
X11700000Y9475000D01*
X11550000Y9625000D02*
X11850000Y9625000D01*
X11550000Y8075000D02*
X11850000Y7775000D01*
X11850000Y8075000D02*
X11550000Y7775000D01*
X11700000Y8075000D02*
X11700000Y7775000D01*
X11550000Y7925000D02*
X11850000Y7925000D01*
X11550000Y6375000D02*
X11850000Y6075000D01*
X11850000Y6375000D02*
X11550000Y6075000D01*
X11700000Y6375000D02*
X11700000Y6075000D01*
X11550000Y6225000D02*
X11850000Y6225000D01*
X11972090Y4290524D02*
X12272090Y3990524D01*
X12272090Y4290524D02*
X11972090Y3990524D01*
X12122090Y4290524D02*
X12122090Y3990524D01*
X11972090Y4140524D02*
X12272090Y4140524D01*
X12050000Y9995000D02*
X12350000Y9695000D01*
X12350000Y9995000D02*
X12050000Y9695000D01*
X12200000Y9995000D02*
X12200000Y9695000D01*
X12050000Y9845000D02*
X12350000Y9845000D01*
X12050000Y9995000D02*
X12350000Y9695000D01*
X12350000Y9995000D02*
X12050000Y9695000D01*
X12200000Y9995000D02*
X12200000Y9695000D01*
X12050000Y9845000D02*
X12350000Y9845000D01*
X12050000Y8295000D02*
X12350000Y7995000D01*
X12350000Y8295000D02*
X12050000Y7995000D01*
X12200000Y8295000D02*
X12200000Y7995000D01*
X12050000Y8145000D02*
X12350000Y8145000D01*
X12050000Y8295000D02*
X12350000Y7995000D01*
X12350000Y8295000D02*
X12050000Y7995000D01*
X12200000Y8295000D02*
X12200000Y7995000D01*
X12050000Y8145000D02*
X12350000Y8145000D01*
X12050000Y6595000D02*
X12350000Y6295000D01*
X12350000Y6595000D02*
X12050000Y6295000D01*
X12200000Y6595000D02*
X12200000Y6295000D01*
X12050000Y6445000D02*
X12350000Y6445000D01*
X12050000Y6595000D02*
X12350000Y6295000D01*
X12350000Y6595000D02*
X12050000Y6295000D01*
X12200000Y6595000D02*
X12200000Y6295000D01*
X12050000Y6445000D02*
X12350000Y6445000D01*
X12511993Y4373618D02*
X12811993Y4073618D01*
X12811993Y4373618D02*
X12511993Y4073618D01*
X12661993Y4373618D02*
X12661993Y4073618D01*
X12511993Y4223618D02*
X12811993Y4223618D01*
X12511993Y4373618D02*
X12811993Y4073618D01*
X12811993Y4373618D02*
X12511993Y4073618D01*
X12661993Y4373618D02*
X12661993Y4073618D01*
X12511993Y4223618D02*
X12811993Y4223618D01*
X12550000Y9775000D02*
X12850000Y9475000D01*
X12850000Y9775000D02*
X12550000Y9475000D01*
X12700000Y9775000D02*
X12700000Y9475000D01*
X12550000Y9625000D02*
X12850000Y9625000D01*
X12550000Y8075000D02*
X12850000Y7775000D01*
X12850000Y8075000D02*
X12550000Y7775000D01*
X12700000Y8075000D02*
X12700000Y7775000D01*
X12550000Y7925000D02*
X12850000Y7925000D01*
X12550000Y6375000D02*
X12850000Y6075000D01*
X12850000Y6375000D02*
X12550000Y6075000D01*
X12700000Y6375000D02*
X12700000Y6075000D01*
X12550000Y6225000D02*
X12850000Y6225000D01*
X12938016Y4031705D02*
X13238016Y3731705D01*
X13238016Y4031705D02*
X12938016Y3731705D01*
X13088016Y4031705D02*
X13088016Y3731705D01*
X12938016Y3881705D02*
X13238016Y3881705D01*
X13350000Y9491667D02*
X13650000Y9191667D01*
X13650000Y9491667D02*
X13350000Y9191667D01*
X13500000Y9491667D02*
X13500000Y9191667D01*
X13350000Y9341667D02*
X13650000Y9341667D01*
X13350000Y7791667D02*
X13650000Y7491667D01*
X13650000Y7791667D02*
X13350000Y7491667D01*
X13500000Y7791667D02*
X13500000Y7491667D01*
X13350000Y7641667D02*
X13650000Y7641667D01*
X13350000Y6091667D02*
X13650000Y5791667D01*
X13650000Y6091667D02*
X13350000Y5791667D01*
X13500000Y6091667D02*
X13500000Y5791667D01*
X13350000Y5941667D02*
X13650000Y5941667D01*
X13850000Y9711667D02*
X14150000Y9411667D01*
X14150000Y9711667D02*
X13850000Y9411667D01*
X14000000Y9711667D02*
X14000000Y9411667D01*
X13850000Y9561667D02*
X14150000Y9561667D01*
X13850000Y9711667D02*
X14150000Y9411667D01*
X14150000Y9711667D02*
X13850000Y9411667D01*
X14000000Y9711667D02*
X14000000Y9411667D01*
X13850000Y9561667D02*
X14150000Y9561667D01*
X13850000Y8011667D02*
X14150000Y7711667D01*
X14150000Y8011667D02*
X13850000Y7711667D01*
X14000000Y8011667D02*
X14000000Y7711667D01*
X13850000Y7861667D02*
X14150000Y7861667D01*
X13850000Y8011667D02*
X14150000Y7711667D01*
X14150000Y8011667D02*
X13850000Y7711667D01*
X14000000Y8011667D02*
X14000000Y7711667D01*
X13850000Y7861667D02*
X14150000Y7861667D01*
X13850000Y6311667D02*
X14150000Y6011667D01*
X14150000Y6311667D02*
X13850000Y6011667D01*
X14000000Y6311667D02*
X14000000Y6011667D01*
X13850000Y6161667D02*
X14150000Y6161667D01*
X13850000Y6311667D02*
X14150000Y6011667D01*
X14150000Y6311667D02*
X13850000Y6011667D01*
X14000000Y6311667D02*
X14000000Y6011667D01*
X13850000Y6161667D02*
X14150000Y6161667D01*
X13966243Y3605799D02*
X14266243Y3305799D01*
X14266243Y3605799D02*
X13966243Y3305799D01*
X14116243Y3605799D02*
X14116243Y3305799D01*
X13966243Y3455799D02*
X14266243Y3455799D01*
X14350000Y9491667D02*
X14650000Y9191667D01*
X14650000Y9491667D02*
X14350000Y9191667D01*
X14500000Y9491667D02*
X14500000Y9191667D01*
X14350000Y9341667D02*
X14650000Y9341667D01*
X14350000Y7791667D02*
X14650000Y7491667D01*
X14650000Y7791667D02*
X14350000Y7491667D01*
X14500000Y7791667D02*
X14500000Y7491667D01*
X14350000Y7641667D02*
X14650000Y7641667D01*
X14350000Y6091667D02*
X14650000Y5791667D01*
X14650000Y6091667D02*
X14350000Y5791667D01*
X14500000Y6091667D02*
X14500000Y5791667D01*
X14350000Y5941667D02*
X14650000Y5941667D01*
X14509256Y3546325D02*
X14809256Y3246325D01*
X14809256Y3546325D02*
X14509256Y3246325D01*
X14659256Y3546325D02*
X14659256Y3246325D01*
X14509256Y3396325D02*
X14809256Y3396325D01*
X14509256Y3546325D02*
X14809256Y3246325D01*
X14809256Y3546325D02*
X14509256Y3246325D01*
X14659256Y3546325D02*
X14659256Y3246325D01*
X14509256Y3396325D02*
X14809256Y3396325D01*
X14832268Y3105799D02*
X15132268Y2805799D01*
X15132268Y3105799D02*
X14832268Y2805799D01*
X14982268Y3105799D02*
X14982268Y2805799D01*
X14832268Y2955799D02*
X15132268Y2955799D01*
X15715227Y2428281D02*
X16015227Y2128281D01*
X16015227Y2428281D02*
X15715227Y2128281D01*
X15865227Y2428281D02*
X15865227Y2128281D01*
X15715227Y2278281D02*
X16015227Y2278281D01*
X16224344Y2230291D02*
X16524344Y1930291D01*
X16524344Y2230291D02*
X16224344Y1930291D01*
X16374344Y2230291D02*
X16374344Y1930291D01*
X16224344Y2080291D02*
X16524344Y2080291D01*
X16224344Y2230291D02*
X16524344Y1930291D01*
X16524344Y2230291D02*
X16224344Y1930291D01*
X16374344Y2230291D02*
X16374344Y1930291D01*
X16224344Y2080291D02*
X16524344Y2080291D01*
X16422334Y1721174D02*
X16722334Y1421174D01*
X16722334Y1721174D02*
X16422334Y1421174D01*
X16572334Y1721174D02*
X16572334Y1421174D01*
X16422334Y1571174D02*
X16722334Y1571174D01*
D19*
X6628550Y8571450D02*
X6971450Y8228550D01*
X6971450Y8571450D02*
X6628550Y8228550D01*
X6921235Y8278765D02*
X6921235Y8521235D01*
X6678765Y8521235D01*
X6678765Y8278765D01*
X6921235Y8278765D01*
X6628550Y8571450D02*
X6971450Y8228550D01*
X6971450Y8571450D02*
X6628550Y8228550D01*
X6921235Y8278765D02*
X6921235Y8521235D01*
X6678765Y8521235D01*
X6678765Y8278765D01*
X6921235Y8278765D01*
X6628550Y6871450D02*
X6971450Y6528550D01*
X6971450Y6871450D02*
X6628550Y6528550D01*
X6921235Y6578765D02*
X6921235Y6821235D01*
X6678765Y6821235D01*
X6678765Y6578765D01*
X6921235Y6578765D01*
X6628550Y6871450D02*
X6971450Y6528550D01*
X6971450Y6871450D02*
X6628550Y6528550D01*
X6921235Y6578765D02*
X6921235Y6821235D01*
X6678765Y6821235D01*
X6678765Y6578765D01*
X6921235Y6578765D01*
X6628550Y5171450D02*
X6971450Y4828550D01*
X6971450Y5171450D02*
X6628550Y4828550D01*
X6921235Y4878765D02*
X6921235Y5121235D01*
X6678765Y5121235D01*
X6678765Y4878765D01*
X6921235Y4878765D01*
X6628550Y5171450D02*
X6971450Y4828550D01*
X6971450Y5171450D02*
X6628550Y4828550D01*
X6921235Y4878765D02*
X6921235Y5121235D01*
X6678765Y5121235D01*
X6678765Y4878765D01*
X6921235Y4878765D01*
X8428550Y9421450D02*
X8771450Y9078550D01*
X8771450Y9421450D02*
X8428550Y9078550D01*
X8721235Y9128765D02*
X8721235Y9371235D01*
X8478765Y9371235D01*
X8478765Y9128765D01*
X8721235Y9128765D01*
X8428550Y9421450D02*
X8771450Y9078550D01*
X8771450Y9421450D02*
X8428550Y9078550D01*
X8721235Y9128765D02*
X8721235Y9371235D01*
X8478765Y9371235D01*
X8478765Y9128765D01*
X8721235Y9128765D01*
X8428550Y7721450D02*
X8771450Y7378550D01*
X8771450Y7721450D02*
X8428550Y7378550D01*
X8721235Y7428765D02*
X8721235Y7671235D01*
X8478765Y7671235D01*
X8478765Y7428765D01*
X8721235Y7428765D01*
X8428550Y7721450D02*
X8771450Y7378550D01*
X8771450Y7721450D02*
X8428550Y7378550D01*
X8721235Y7428765D02*
X8721235Y7671235D01*
X8478765Y7671235D01*
X8478765Y7428765D01*
X8721235Y7428765D01*
X8428550Y6021450D02*
X8771450Y5678550D01*
X8771450Y6021450D02*
X8428550Y5678550D01*
X8721235Y5728765D02*
X8721235Y5971235D01*
X8478765Y5971235D01*
X8478765Y5728765D01*
X8721235Y5728765D01*
X8428550Y6021450D02*
X8771450Y5678550D01*
X8771450Y6021450D02*
X8428550Y5678550D01*
X8721235Y5728765D02*
X8721235Y5971235D01*
X8478765Y5971235D01*
X8478765Y5728765D01*
X8721235Y5728765D01*
X10228550Y9988117D02*
X10571450Y9645217D01*
X10571450Y9988117D02*
X10228550Y9645217D01*
X10521235Y9695432D02*
X10521235Y9937901D01*
X10278765Y9937901D01*
X10278765Y9695432D01*
X10521235Y9695432D01*
X10228550Y9988117D02*
X10571450Y9645217D01*
X10571450Y9988117D02*
X10228550Y9645217D01*
X10521235Y9695432D02*
X10521235Y9937901D01*
X10278765Y9937901D01*
X10278765Y9695432D01*
X10521235Y9695432D01*
X10228550Y8288117D02*
X10571450Y7945217D01*
X10571450Y8288117D02*
X10228550Y7945217D01*
X10521235Y7995432D02*
X10521235Y8237901D01*
X10278765Y8237901D01*
X10278765Y7995432D01*
X10521235Y7995432D01*
X10228550Y8288117D02*
X10571450Y7945217D01*
X10571450Y8288117D02*
X10228550Y7945217D01*
X10521235Y7995432D02*
X10521235Y8237901D01*
X10278765Y8237901D01*
X10278765Y7995432D01*
X10521235Y7995432D01*
X10228550Y6588117D02*
X10571450Y6245217D01*
X10571450Y6588117D02*
X10228550Y6245217D01*
X10521235Y6295432D02*
X10521235Y6537901D01*
X10278765Y6537901D01*
X10278765Y6295432D01*
X10521235Y6295432D01*
X10228550Y6588117D02*
X10571450Y6245217D01*
X10571450Y6588117D02*
X10228550Y6245217D01*
X10521235Y6295432D02*
X10521235Y6537901D01*
X10278765Y6537901D01*
X10278765Y6295432D01*
X10521235Y6295432D01*
X12028550Y9421450D02*
X12371450Y9078550D01*
X12371450Y9421450D02*
X12028550Y9078550D01*
X12321235Y9128765D02*
X12321235Y9371235D01*
X12078765Y9371235D01*
X12078765Y9128765D01*
X12321235Y9128765D01*
X12028550Y9421450D02*
X12371450Y9078550D01*
X12371450Y9421450D02*
X12028550Y9078550D01*
X12321235Y9128765D02*
X12321235Y9371235D01*
X12078765Y9371235D01*
X12078765Y9128765D01*
X12321235Y9128765D01*
X12028550Y7721450D02*
X12371450Y7378550D01*
X12371450Y7721450D02*
X12028550Y7378550D01*
X12321235Y7428765D02*
X12321235Y7671235D01*
X12078765Y7671235D01*
X12078765Y7428765D01*
X12321235Y7428765D01*
X12028550Y7721450D02*
X12371450Y7378550D01*
X12371450Y7721450D02*
X12028550Y7378550D01*
X12321235Y7428765D02*
X12321235Y7671235D01*
X12078765Y7671235D01*
X12078765Y7428765D01*
X12321235Y7428765D01*
X12028550Y6021450D02*
X12371450Y5678550D01*
X12371450Y6021450D02*
X12028550Y5678550D01*
X12321235Y5728765D02*
X12321235Y5971235D01*
X12078765Y5971235D01*
X12078765Y5728765D01*
X12321235Y5728765D01*
X12028550Y6021450D02*
X12371450Y5678550D01*
X12371450Y6021450D02*
X12028550Y5678550D01*
X12321235Y5728765D02*
X12321235Y5971235D01*
X12078765Y5971235D01*
X12078765Y5728765D01*
X12321235Y5728765D01*
X12336546Y3820342D02*
X12679446Y3477442D01*
X12679446Y3820342D02*
X12336546Y3477442D01*
X12629230Y3527658D02*
X12629230Y3770127D01*
X12386761Y3770127D01*
X12386761Y3527658D01*
X12629230Y3527658D01*
X12336546Y3820342D02*
X12679446Y3477442D01*
X12679446Y3820342D02*
X12336546Y3477442D01*
X12629230Y3527658D02*
X12629230Y3770127D01*
X12386761Y3770127D01*
X12386761Y3527658D01*
X12629230Y3527658D01*
X13828550Y9138117D02*
X14171450Y8795217D01*
X14171450Y9138117D02*
X13828550Y8795217D01*
X14121235Y8845432D02*
X14121235Y9087901D01*
X13878765Y9087901D01*
X13878765Y8845432D01*
X14121235Y8845432D01*
X13828550Y9138117D02*
X14171450Y8795217D01*
X14171450Y9138117D02*
X13828550Y8795217D01*
X14121235Y8845432D02*
X14121235Y9087901D01*
X13878765Y9087901D01*
X13878765Y8845432D01*
X14121235Y8845432D01*
X13828550Y7438117D02*
X14171450Y7095217D01*
X14171450Y7438117D02*
X13828550Y7095217D01*
X14121235Y7145432D02*
X14121235Y7387901D01*
X13878765Y7387901D01*
X13878765Y7145432D01*
X14121235Y7145432D01*
X13828550Y7438117D02*
X14171450Y7095217D01*
X14171450Y7438117D02*
X13828550Y7095217D01*
X14121235Y7145432D02*
X14121235Y7387901D01*
X13878765Y7387901D01*
X13878765Y7145432D01*
X14121235Y7145432D01*
X13828550Y5738117D02*
X14171450Y5395217D01*
X14171450Y5738117D02*
X13828550Y5395217D01*
X14121235Y5445432D02*
X14121235Y5687901D01*
X13878765Y5687901D01*
X13878765Y5445432D01*
X14121235Y5445432D01*
X13828550Y5738117D02*
X14171450Y5395217D01*
X14171450Y5738117D02*
X13828550Y5395217D01*
X14121235Y5445432D02*
X14121235Y5687901D01*
X13878765Y5687901D01*
X13878765Y5445432D01*
X14121235Y5445432D01*
X14190306Y3052490D02*
X14533206Y2709590D01*
X14533206Y3052490D02*
X14190306Y2709590D01*
X14482990Y2759805D02*
X14482990Y3002274D01*
X14240521Y3002274D01*
X14240521Y2759805D01*
X14482990Y2759805D01*
X14190306Y3052490D02*
X14533206Y2709590D01*
X14533206Y3052490D02*
X14190306Y2709590D01*
X14482990Y2759805D02*
X14482990Y3002274D01*
X14240521Y3002274D01*
X14240521Y2759805D01*
X14482990Y2759805D01*
X15782166Y1831013D02*
X16125066Y1488113D01*
X16125066Y1831013D02*
X15782166Y1488113D01*
X16074850Y1538328D02*
X16074850Y1780797D01*
X15832381Y1780797D01*
X15832381Y1538328D01*
X16074850Y1538328D01*
X15782166Y1831013D02*
X16125066Y1488113D01*
X16125066Y1831013D02*
X15782166Y1488113D01*
X16074850Y1538328D02*
X16074850Y1780797D01*
X15832381Y1780797D01*
X15832381Y1538328D01*
X16074850Y1538328D01*
D11*
X6040119Y45571D02*
X6040119Y245571D01*
X6087738Y245571D01*
X6116309Y236047D01*
X6135357Y216999D01*
X6144881Y197952D01*
X6154405Y159857D01*
X6154405Y131285D01*
X6144881Y93190D01*
X6135357Y74142D01*
X6116309Y55095D01*
X6087738Y45571D01*
X6040119Y45571D01*
X6240119Y45571D02*
X6240119Y178904D01*
X6240119Y140809D02*
X6249643Y159857D01*
X6259167Y169381D01*
X6278214Y178904D01*
X6297262Y178904D01*
X6363928Y45571D02*
X6363928Y178904D01*
X6363928Y245571D02*
X6354405Y236047D01*
X6363928Y226523D01*
X6373452Y236047D01*
X6363928Y245571D01*
X6363928Y226523D01*
X6487738Y45571D02*
X6468690Y55095D01*
X6459167Y74142D01*
X6459167Y245571D01*
X6592500Y45571D02*
X6573452Y55095D01*
X6563928Y74142D01*
X6563928Y245571D01*
X6821071Y45571D02*
X6821071Y245571D01*
X6887738Y102714D01*
X6954405Y245571D01*
X6954405Y45571D01*
X7135357Y45571D02*
X7135357Y150333D01*
X7125833Y169381D01*
X7106786Y178904D01*
X7068690Y178904D01*
X7049643Y169381D01*
X7135357Y55095D02*
X7116309Y45571D01*
X7068690Y45571D01*
X7049643Y55095D01*
X7040119Y74142D01*
X7040119Y93190D01*
X7049643Y112238D01*
X7068690Y121761D01*
X7116309Y121761D01*
X7135357Y131285D01*
X7230595Y178904D02*
X7230595Y-21096D01*
X7230595Y169381D02*
X7249643Y178904D01*
X7287738Y178904D01*
X7306786Y169381D01*
X7316309Y159857D01*
X7325833Y140809D01*
X7325833Y83666D01*
X7316309Y64619D01*
X7306786Y55095D01*
X7287738Y45571D01*
X7249643Y45571D01*
X7230595Y55095D01*
X7411548Y64619D02*
X7421071Y55095D01*
X7411548Y45571D01*
X7402024Y55095D01*
X7411548Y64619D01*
X7411548Y45571D01*
X7411548Y169381D02*
X7421071Y159857D01*
X7411548Y150333D01*
X7402024Y159857D01*
X7411548Y169381D01*
X7411548Y150333D01*
D12*
X5742500Y-263953D02*
X5782500Y-303953D01*
X5782500Y-263953D02*
X5742500Y-303953D01*
D11*
X6078214Y-174429D02*
X6097262Y-174429D01*
X6116309Y-183953D01*
X6125833Y-193477D01*
X6135357Y-212524D01*
X6144881Y-250619D01*
X6144881Y-298239D01*
X6135357Y-336334D01*
X6125833Y-355381D01*
X6116309Y-364905D01*
X6097262Y-374429D01*
X6078214Y-374429D01*
X6059167Y-364905D01*
X6049643Y-355381D01*
X6040119Y-336334D01*
X6030595Y-298239D01*
X6030595Y-250619D01*
X6040119Y-212524D01*
X6049643Y-193477D01*
X6059167Y-183953D01*
X6078214Y-174429D01*
X6230595Y-355381D02*
X6240119Y-364905D01*
X6230595Y-374429D01*
X6221071Y-364905D01*
X6230595Y-355381D01*
X6230595Y-374429D01*
X6411548Y-241096D02*
X6411548Y-374429D01*
X6363928Y-164905D02*
X6316309Y-307762D01*
X6440119Y-307762D01*
X6554405Y-174429D02*
X6573452Y-174429D01*
X6592500Y-183953D01*
X6602024Y-193477D01*
X6611548Y-212524D01*
X6621071Y-250619D01*
X6621071Y-298239D01*
X6611548Y-336334D01*
X6602024Y-355381D01*
X6592500Y-364905D01*
X6573452Y-374429D01*
X6554405Y-374429D01*
X6535357Y-364905D01*
X6525833Y-355381D01*
X6516309Y-336334D01*
X6506786Y-298239D01*
X6506786Y-250619D01*
X6516309Y-212524D01*
X6525833Y-193477D01*
X6535357Y-183953D01*
X6554405Y-174429D01*
X6744881Y-174429D02*
X6763928Y-174429D01*
X6782976Y-183953D01*
X6792500Y-193477D01*
X6802024Y-212524D01*
X6811548Y-250619D01*
X6811548Y-298239D01*
X6802024Y-336334D01*
X6792500Y-355381D01*
X6782976Y-364905D01*
X6763928Y-374429D01*
X6744881Y-374429D01*
X6725833Y-364905D01*
X6716309Y-355381D01*
X6706786Y-336334D01*
X6697262Y-298239D01*
X6697262Y-250619D01*
X6706786Y-212524D01*
X6716309Y-193477D01*
X6725833Y-183953D01*
X6744881Y-174429D01*
X6897262Y-374429D02*
X6897262Y-241096D01*
X6897262Y-260143D02*
X6906786Y-250619D01*
X6925833Y-241096D01*
X6954405Y-241096D01*
X6973452Y-250619D01*
X6982976Y-269667D01*
X6982976Y-374429D01*
X6982976Y-269667D02*
X6992500Y-250619D01*
X7011548Y-241096D01*
X7040119Y-241096D01*
X7059167Y-250619D01*
X7068690Y-269667D01*
X7068690Y-374429D01*
X7163928Y-374429D02*
X7163928Y-241096D01*
X7163928Y-260143D02*
X7173452Y-250619D01*
X7192500Y-241096D01*
X7221071Y-241096D01*
X7240119Y-250619D01*
X7249643Y-269667D01*
X7249643Y-374429D01*
X7249643Y-269667D02*
X7259167Y-250619D01*
X7278214Y-241096D01*
X7306786Y-241096D01*
X7325833Y-250619D01*
X7335357Y-269667D01*
X7335357Y-374429D01*
X7725833Y-164905D02*
X7554405Y-422048D01*
X7982976Y-174429D02*
X8002024Y-174429D01*
X8021071Y-183953D01*
X8030595Y-193477D01*
X8040119Y-212524D01*
X8049643Y-250619D01*
X8049643Y-298239D01*
X8040119Y-336334D01*
X8030595Y-355381D01*
X8021071Y-364905D01*
X8002024Y-374429D01*
X7982976Y-374429D01*
X7963928Y-364905D01*
X7954405Y-355381D01*
X7944881Y-336334D01*
X7935357Y-298239D01*
X7935357Y-250619D01*
X7944881Y-212524D01*
X7954405Y-193477D01*
X7963928Y-183953D01*
X7982976Y-174429D01*
X8135357Y-355381D02*
X8144881Y-364905D01*
X8135357Y-374429D01*
X8125833Y-364905D01*
X8135357Y-355381D01*
X8135357Y-374429D01*
X8268690Y-174429D02*
X8287738Y-174429D01*
X8306786Y-183953D01*
X8316309Y-193477D01*
X8325833Y-212524D01*
X8335357Y-250619D01*
X8335357Y-298239D01*
X8325833Y-336334D01*
X8316309Y-355381D01*
X8306786Y-364905D01*
X8287738Y-374429D01*
X8268690Y-374429D01*
X8249643Y-364905D01*
X8240119Y-355381D01*
X8230595Y-336334D01*
X8221071Y-298239D01*
X8221071Y-250619D01*
X8230595Y-212524D01*
X8240119Y-193477D01*
X8249643Y-183953D01*
X8268690Y-174429D01*
X8525833Y-374429D02*
X8411548Y-374429D01*
X8468690Y-374429D02*
X8468690Y-174429D01*
X8449643Y-203000D01*
X8430595Y-222048D01*
X8411548Y-231572D01*
X8706786Y-174429D02*
X8611548Y-174429D01*
X8602024Y-269667D01*
X8611548Y-260143D01*
X8630595Y-250619D01*
X8678214Y-250619D01*
X8697262Y-260143D01*
X8706786Y-269667D01*
X8716310Y-288715D01*
X8716310Y-336334D01*
X8706786Y-355381D01*
X8697262Y-364905D01*
X8678214Y-374429D01*
X8630595Y-374429D01*
X8611548Y-364905D01*
X8602024Y-355381D01*
X8782976Y-174429D02*
X8916310Y-174429D01*
X8830595Y-374429D01*
X8982976Y-174429D02*
X8982976Y-212524D01*
X9059167Y-174429D02*
X9059167Y-212524D01*
X9354405Y-450619D02*
X9344881Y-441096D01*
X9325833Y-412524D01*
X9316310Y-393477D01*
X9306786Y-364905D01*
X9297262Y-317286D01*
X9297262Y-279191D01*
X9306786Y-231572D01*
X9316310Y-203000D01*
X9325833Y-183953D01*
X9344881Y-155381D01*
X9354405Y-145858D01*
X9411548Y-174429D02*
X9535357Y-174429D01*
X9468690Y-250619D01*
X9497262Y-250619D01*
X9516310Y-260143D01*
X9525833Y-269667D01*
X9535357Y-288715D01*
X9535357Y-336334D01*
X9525833Y-355381D01*
X9516310Y-364905D01*
X9497262Y-374429D01*
X9440119Y-374429D01*
X9421071Y-364905D01*
X9411548Y-355381D01*
X9773452Y-374429D02*
X9773452Y-174429D01*
X9859167Y-374429D02*
X9859167Y-269667D01*
X9849643Y-250619D01*
X9830595Y-241096D01*
X9802024Y-241096D01*
X9782976Y-250619D01*
X9773452Y-260143D01*
X9982976Y-374429D02*
X9963929Y-364905D01*
X9954405Y-355381D01*
X9944881Y-336334D01*
X9944881Y-279191D01*
X9954405Y-260143D01*
X9963929Y-250619D01*
X9982976Y-241096D01*
X10011548Y-241096D01*
X10030595Y-250619D01*
X10040119Y-260143D01*
X10049643Y-279191D01*
X10049643Y-336334D01*
X10040119Y-355381D01*
X10030595Y-364905D01*
X10011548Y-374429D01*
X9982976Y-374429D01*
X10163929Y-374429D02*
X10144881Y-364905D01*
X10135357Y-345858D01*
X10135357Y-174429D01*
X10316310Y-364905D02*
X10297262Y-374429D01*
X10259167Y-374429D01*
X10240119Y-364905D01*
X10230595Y-345858D01*
X10230595Y-269667D01*
X10240119Y-250619D01*
X10259167Y-241096D01*
X10297262Y-241096D01*
X10316310Y-250619D01*
X10325833Y-269667D01*
X10325833Y-288715D01*
X10230595Y-307762D01*
X10402024Y-364905D02*
X10421071Y-374429D01*
X10459167Y-374429D01*
X10478214Y-364905D01*
X10487738Y-345858D01*
X10487738Y-336334D01*
X10478214Y-317286D01*
X10459167Y-307762D01*
X10430595Y-307762D01*
X10411548Y-298239D01*
X10402024Y-279191D01*
X10402024Y-269667D01*
X10411548Y-250619D01*
X10430595Y-241096D01*
X10459167Y-241096D01*
X10478214Y-250619D01*
X10554405Y-450619D02*
X10563929Y-441096D01*
X10582976Y-412524D01*
X10592500Y-393477D01*
X10602024Y-364905D01*
X10611548Y-317286D01*
X10611548Y-279191D01*
X10602024Y-231572D01*
X10592500Y-203000D01*
X10582976Y-183953D01*
X10563929Y-155381D01*
X10554405Y-145858D01*
D13*
X5782500Y-547953D02*
G75*
G03*
X5782500Y-547953I-40000J0D01*
G01*
D11*
X6078214Y-438429D02*
X6097262Y-438429D01*
X6116309Y-447953D01*
X6125833Y-457477D01*
X6135357Y-476524D01*
X6144881Y-514619D01*
X6144881Y-562239D01*
X6135357Y-600334D01*
X6125833Y-619381D01*
X6116309Y-628905D01*
X6097262Y-638429D01*
X6078214Y-638429D01*
X6059167Y-628905D01*
X6049643Y-619381D01*
X6040119Y-600334D01*
X6030595Y-562239D01*
X6030595Y-514619D01*
X6040119Y-476524D01*
X6049643Y-457477D01*
X6059167Y-447953D01*
X6078214Y-438429D01*
X6230595Y-619381D02*
X6240119Y-628905D01*
X6230595Y-638429D01*
X6221071Y-628905D01*
X6230595Y-619381D01*
X6230595Y-638429D01*
X6354405Y-524143D02*
X6335357Y-514619D01*
X6325833Y-505096D01*
X6316309Y-486048D01*
X6316309Y-476524D01*
X6325833Y-457477D01*
X6335357Y-447953D01*
X6354405Y-438429D01*
X6392500Y-438429D01*
X6411548Y-447953D01*
X6421071Y-457477D01*
X6430595Y-476524D01*
X6430595Y-486048D01*
X6421071Y-505096D01*
X6411548Y-514619D01*
X6392500Y-524143D01*
X6354405Y-524143D01*
X6335357Y-533667D01*
X6325833Y-543191D01*
X6316309Y-562239D01*
X6316309Y-600334D01*
X6325833Y-619381D01*
X6335357Y-628905D01*
X6354405Y-638429D01*
X6392500Y-638429D01*
X6411548Y-628905D01*
X6421071Y-619381D01*
X6430595Y-600334D01*
X6430595Y-562239D01*
X6421071Y-543191D01*
X6411548Y-533667D01*
X6392500Y-524143D01*
X6554405Y-438429D02*
X6573452Y-438429D01*
X6592500Y-447953D01*
X6602024Y-457477D01*
X6611548Y-476524D01*
X6621071Y-514619D01*
X6621071Y-562239D01*
X6611548Y-600334D01*
X6602024Y-619381D01*
X6592500Y-628905D01*
X6573452Y-638429D01*
X6554405Y-638429D01*
X6535357Y-628905D01*
X6525833Y-619381D01*
X6516309Y-600334D01*
X6506786Y-562239D01*
X6506786Y-514619D01*
X6516309Y-476524D01*
X6525833Y-457477D01*
X6535357Y-447953D01*
X6554405Y-438429D01*
X6744881Y-438429D02*
X6763928Y-438429D01*
X6782976Y-447953D01*
X6792500Y-457477D01*
X6802024Y-476524D01*
X6811548Y-514619D01*
X6811548Y-562239D01*
X6802024Y-600334D01*
X6792500Y-619381D01*
X6782976Y-628905D01*
X6763928Y-638429D01*
X6744881Y-638429D01*
X6725833Y-628905D01*
X6716309Y-619381D01*
X6706786Y-600334D01*
X6697262Y-562239D01*
X6697262Y-514619D01*
X6706786Y-476524D01*
X6716309Y-457477D01*
X6725833Y-447953D01*
X6744881Y-438429D01*
X6897262Y-638429D02*
X6897262Y-505096D01*
X6897262Y-524143D02*
X6906786Y-514619D01*
X6925833Y-505096D01*
X6954405Y-505096D01*
X6973452Y-514619D01*
X6982976Y-533667D01*
X6982976Y-638429D01*
X6982976Y-533667D02*
X6992500Y-514619D01*
X7011548Y-505096D01*
X7040119Y-505096D01*
X7059167Y-514619D01*
X7068690Y-533667D01*
X7068690Y-638429D01*
X7163928Y-638429D02*
X7163928Y-505096D01*
X7163928Y-524143D02*
X7173452Y-514619D01*
X7192500Y-505096D01*
X7221071Y-505096D01*
X7240119Y-514619D01*
X7249643Y-533667D01*
X7249643Y-638429D01*
X7249643Y-533667D02*
X7259167Y-514619D01*
X7278214Y-505096D01*
X7306786Y-505096D01*
X7325833Y-514619D01*
X7335357Y-533667D01*
X7335357Y-638429D01*
X7725833Y-428905D02*
X7554405Y-686048D01*
X7982976Y-438429D02*
X8002024Y-438429D01*
X8021071Y-447953D01*
X8030595Y-457477D01*
X8040119Y-476524D01*
X8049643Y-514619D01*
X8049643Y-562239D01*
X8040119Y-600334D01*
X8030595Y-619381D01*
X8021071Y-628905D01*
X8002024Y-638429D01*
X7982976Y-638429D01*
X7963928Y-628905D01*
X7954405Y-619381D01*
X7944881Y-600334D01*
X7935357Y-562239D01*
X7935357Y-514619D01*
X7944881Y-476524D01*
X7954405Y-457477D01*
X7963928Y-447953D01*
X7982976Y-438429D01*
X8135357Y-619381D02*
X8144881Y-628905D01*
X8135357Y-638429D01*
X8125833Y-628905D01*
X8135357Y-619381D01*
X8135357Y-638429D01*
X8268690Y-438429D02*
X8287738Y-438429D01*
X8306786Y-447953D01*
X8316309Y-457477D01*
X8325833Y-476524D01*
X8335357Y-514619D01*
X8335357Y-562239D01*
X8325833Y-600334D01*
X8316309Y-619381D01*
X8306786Y-628905D01*
X8287738Y-638429D01*
X8268690Y-638429D01*
X8249643Y-628905D01*
X8240119Y-619381D01*
X8230595Y-600334D01*
X8221071Y-562239D01*
X8221071Y-514619D01*
X8230595Y-476524D01*
X8240119Y-457477D01*
X8249643Y-447953D01*
X8268690Y-438429D01*
X8402024Y-438429D02*
X8525833Y-438429D01*
X8459167Y-514619D01*
X8487738Y-514619D01*
X8506786Y-524143D01*
X8516310Y-533667D01*
X8525833Y-552715D01*
X8525833Y-600334D01*
X8516310Y-619381D01*
X8506786Y-628905D01*
X8487738Y-638429D01*
X8430595Y-638429D01*
X8411548Y-628905D01*
X8402024Y-619381D01*
X8716310Y-638429D02*
X8602024Y-638429D01*
X8659167Y-638429D02*
X8659167Y-438429D01*
X8640119Y-467000D01*
X8621071Y-486048D01*
X8602024Y-495572D01*
X8897262Y-438429D02*
X8802024Y-438429D01*
X8792500Y-533667D01*
X8802024Y-524143D01*
X8821071Y-514619D01*
X8868690Y-514619D01*
X8887738Y-524143D01*
X8897262Y-533667D01*
X8906786Y-552715D01*
X8906786Y-600334D01*
X8897262Y-619381D01*
X8887738Y-628905D01*
X8868690Y-638429D01*
X8821071Y-638429D01*
X8802024Y-628905D01*
X8792500Y-619381D01*
X8982976Y-438429D02*
X8982976Y-476524D01*
X9059167Y-438429D02*
X9059167Y-476524D01*
X9354405Y-714619D02*
X9344881Y-705096D01*
X9325833Y-676524D01*
X9316310Y-657477D01*
X9306786Y-628905D01*
X9297262Y-581286D01*
X9297262Y-543191D01*
X9306786Y-495572D01*
X9316310Y-467000D01*
X9325833Y-447953D01*
X9344881Y-419381D01*
X9354405Y-409857D01*
X9421071Y-457477D02*
X9430595Y-447953D01*
X9449643Y-438429D01*
X9497262Y-438429D01*
X9516310Y-447953D01*
X9525833Y-457477D01*
X9535357Y-476524D01*
X9535357Y-495572D01*
X9525833Y-524143D01*
X9411548Y-638429D01*
X9535357Y-638429D01*
X9773452Y-638429D02*
X9773452Y-438429D01*
X9859167Y-638429D02*
X9859167Y-533667D01*
X9849643Y-514619D01*
X9830595Y-505096D01*
X9802024Y-505096D01*
X9782976Y-514619D01*
X9773452Y-524143D01*
X9982976Y-638429D02*
X9963929Y-628905D01*
X9954405Y-619381D01*
X9944881Y-600334D01*
X9944881Y-543191D01*
X9954405Y-524143D01*
X9963929Y-514619D01*
X9982976Y-505096D01*
X10011548Y-505096D01*
X10030595Y-514619D01*
X10040119Y-524143D01*
X10049643Y-543191D01*
X10049643Y-600334D01*
X10040119Y-619381D01*
X10030595Y-628905D01*
X10011548Y-638429D01*
X9982976Y-638429D01*
X10163929Y-638429D02*
X10144881Y-628905D01*
X10135357Y-609858D01*
X10135357Y-438429D01*
X10316310Y-628905D02*
X10297262Y-638429D01*
X10259167Y-638429D01*
X10240119Y-628905D01*
X10230595Y-609858D01*
X10230595Y-533667D01*
X10240119Y-514619D01*
X10259167Y-505096D01*
X10297262Y-505096D01*
X10316310Y-514619D01*
X10325833Y-533667D01*
X10325833Y-552715D01*
X10230595Y-571762D01*
X10402024Y-628905D02*
X10421071Y-638429D01*
X10459167Y-638429D01*
X10478214Y-628905D01*
X10487738Y-609858D01*
X10487738Y-600334D01*
X10478214Y-581286D01*
X10459167Y-571762D01*
X10430595Y-571762D01*
X10411548Y-562239D01*
X10402024Y-543191D01*
X10402024Y-533667D01*
X10411548Y-514619D01*
X10430595Y-505096D01*
X10459167Y-505096D01*
X10478214Y-514619D01*
X10554405Y-714619D02*
X10563929Y-705096D01*
X10582976Y-676524D01*
X10592500Y-657477D01*
X10602024Y-628905D01*
X10611548Y-581286D01*
X10611548Y-543191D01*
X10602024Y-495572D01*
X10592500Y-467000D01*
X10582976Y-447953D01*
X10563929Y-419381D01*
X10554405Y-409857D01*
D14*
X5727890Y-757343D02*
X5727890Y-866563D01*
X5673280Y-811953D02*
X5782500Y-811953D01*
D11*
X6144881Y-902429D02*
X6030595Y-902429D01*
X6087738Y-902429D02*
X6087738Y-702429D01*
X6068690Y-731000D01*
X6049643Y-750048D01*
X6030595Y-759572D01*
X6230595Y-883381D02*
X6240119Y-892905D01*
X6230595Y-902429D01*
X6221071Y-892905D01*
X6230595Y-883381D01*
X6230595Y-902429D01*
X6363928Y-702429D02*
X6382976Y-702429D01*
X6402024Y-711953D01*
X6411548Y-721477D01*
X6421071Y-740524D01*
X6430595Y-778619D01*
X6430595Y-826238D01*
X6421071Y-864334D01*
X6411548Y-883381D01*
X6402024Y-892905D01*
X6382976Y-902429D01*
X6363928Y-902429D01*
X6344881Y-892905D01*
X6335357Y-883381D01*
X6325833Y-864334D01*
X6316309Y-826238D01*
X6316309Y-778619D01*
X6325833Y-740524D01*
X6335357Y-721477D01*
X6344881Y-711953D01*
X6363928Y-702429D01*
X6525833Y-902429D02*
X6563928Y-902429D01*
X6582976Y-892905D01*
X6592500Y-883381D01*
X6611548Y-854810D01*
X6621071Y-816715D01*
X6621071Y-740524D01*
X6611548Y-721477D01*
X6602024Y-711953D01*
X6582976Y-702429D01*
X6544881Y-702429D01*
X6525833Y-711953D01*
X6516309Y-721477D01*
X6506786Y-740524D01*
X6506786Y-788143D01*
X6516309Y-807191D01*
X6525833Y-816715D01*
X6544881Y-826238D01*
X6582976Y-826238D01*
X6602024Y-816715D01*
X6611548Y-807191D01*
X6621071Y-788143D01*
X6697262Y-721477D02*
X6706786Y-711953D01*
X6725833Y-702429D01*
X6773452Y-702429D01*
X6792500Y-711953D01*
X6802024Y-721477D01*
X6811548Y-740524D01*
X6811548Y-759572D01*
X6802024Y-788143D01*
X6687738Y-902429D01*
X6811548Y-902429D01*
X6897262Y-902429D02*
X6897262Y-769096D01*
X6897262Y-788143D02*
X6906786Y-778619D01*
X6925833Y-769096D01*
X6954405Y-769096D01*
X6973452Y-778619D01*
X6982976Y-797667D01*
X6982976Y-902429D01*
X6982976Y-797667D02*
X6992500Y-778619D01*
X7011548Y-769096D01*
X7040119Y-769096D01*
X7059167Y-778619D01*
X7068690Y-797667D01*
X7068690Y-902429D01*
X7163928Y-902429D02*
X7163928Y-769096D01*
X7163928Y-788143D02*
X7173452Y-778619D01*
X7192500Y-769096D01*
X7221071Y-769096D01*
X7240119Y-778619D01*
X7249643Y-797667D01*
X7249643Y-902429D01*
X7249643Y-797667D02*
X7259167Y-778619D01*
X7278214Y-769096D01*
X7306786Y-769096D01*
X7325833Y-778619D01*
X7335357Y-797667D01*
X7335357Y-902429D01*
X7725833Y-692905D02*
X7554405Y-950048D01*
X7982976Y-702429D02*
X8002024Y-702429D01*
X8021071Y-711953D01*
X8030595Y-721477D01*
X8040119Y-740524D01*
X8049643Y-778619D01*
X8049643Y-826238D01*
X8040119Y-864334D01*
X8030595Y-883381D01*
X8021071Y-892905D01*
X8002024Y-902429D01*
X7982976Y-902429D01*
X7963928Y-892905D01*
X7954405Y-883381D01*
X7944881Y-864334D01*
X7935357Y-826238D01*
X7935357Y-778619D01*
X7944881Y-740524D01*
X7954405Y-721477D01*
X7963928Y-711953D01*
X7982976Y-702429D01*
X8135357Y-883381D02*
X8144881Y-892905D01*
X8135357Y-902429D01*
X8125833Y-892905D01*
X8135357Y-883381D01*
X8135357Y-902429D01*
X8268690Y-702429D02*
X8287738Y-702429D01*
X8306786Y-711953D01*
X8316309Y-721477D01*
X8325833Y-740524D01*
X8335357Y-778619D01*
X8335357Y-826238D01*
X8325833Y-864334D01*
X8316309Y-883381D01*
X8306786Y-892905D01*
X8287738Y-902429D01*
X8268690Y-902429D01*
X8249643Y-892905D01*
X8240119Y-883381D01*
X8230595Y-864334D01*
X8221071Y-826238D01*
X8221071Y-778619D01*
X8230595Y-740524D01*
X8240119Y-721477D01*
X8249643Y-711953D01*
X8268690Y-702429D01*
X8506786Y-769096D02*
X8506786Y-902429D01*
X8459167Y-692905D02*
X8411548Y-835762D01*
X8535357Y-835762D01*
X8592500Y-702429D02*
X8716310Y-702429D01*
X8649643Y-778619D01*
X8678214Y-778619D01*
X8697262Y-788143D01*
X8706786Y-797667D01*
X8716310Y-816715D01*
X8716310Y-864334D01*
X8706786Y-883381D01*
X8697262Y-892905D01*
X8678214Y-902429D01*
X8621071Y-902429D01*
X8602024Y-892905D01*
X8592500Y-883381D01*
X8840119Y-702429D02*
X8859167Y-702429D01*
X8878214Y-711953D01*
X8887738Y-721477D01*
X8897262Y-740524D01*
X8906786Y-778619D01*
X8906786Y-826238D01*
X8897262Y-864334D01*
X8887738Y-883381D01*
X8878214Y-892905D01*
X8859167Y-902429D01*
X8840119Y-902429D01*
X8821071Y-892905D01*
X8811548Y-883381D01*
X8802024Y-864334D01*
X8792500Y-826238D01*
X8792500Y-778619D01*
X8802024Y-740524D01*
X8811548Y-721477D01*
X8821071Y-711953D01*
X8840119Y-702429D01*
X8982976Y-702429D02*
X8982976Y-740524D01*
X9059167Y-702429D02*
X9059167Y-740524D01*
X9354405Y-978619D02*
X9344881Y-969096D01*
X9325833Y-940524D01*
X9316310Y-921477D01*
X9306786Y-892905D01*
X9297262Y-845286D01*
X9297262Y-807191D01*
X9306786Y-759572D01*
X9316310Y-731000D01*
X9325833Y-711953D01*
X9344881Y-683381D01*
X9354405Y-673858D01*
X9421071Y-721477D02*
X9430595Y-711953D01*
X9449643Y-702429D01*
X9497262Y-702429D01*
X9516310Y-711953D01*
X9525833Y-721477D01*
X9535357Y-740524D01*
X9535357Y-759572D01*
X9525833Y-788143D01*
X9411548Y-902429D01*
X9535357Y-902429D01*
X9706786Y-769096D02*
X9706786Y-902429D01*
X9659167Y-692905D02*
X9611548Y-835762D01*
X9735357Y-835762D01*
X9963929Y-902429D02*
X9963929Y-702429D01*
X10049643Y-902429D02*
X10049643Y-797667D01*
X10040119Y-778619D01*
X10021071Y-769096D01*
X9992500Y-769096D01*
X9973452Y-778619D01*
X9963929Y-788143D01*
X10173452Y-902429D02*
X10154405Y-892905D01*
X10144881Y-883381D01*
X10135357Y-864334D01*
X10135357Y-807191D01*
X10144881Y-788143D01*
X10154405Y-778619D01*
X10173452Y-769096D01*
X10202024Y-769096D01*
X10221071Y-778619D01*
X10230595Y-788143D01*
X10240119Y-807191D01*
X10240119Y-864334D01*
X10230595Y-883381D01*
X10221071Y-892905D01*
X10202024Y-902429D01*
X10173452Y-902429D01*
X10354405Y-902429D02*
X10335357Y-892905D01*
X10325833Y-873857D01*
X10325833Y-702429D01*
X10506786Y-892905D02*
X10487738Y-902429D01*
X10449643Y-902429D01*
X10430595Y-892905D01*
X10421071Y-873857D01*
X10421071Y-797667D01*
X10430595Y-778619D01*
X10449643Y-769096D01*
X10487738Y-769096D01*
X10506786Y-778619D01*
X10516310Y-797667D01*
X10516310Y-816715D01*
X10421071Y-835762D01*
X10592500Y-892905D02*
X10611548Y-902429D01*
X10649643Y-902429D01*
X10668690Y-892905D01*
X10678214Y-873857D01*
X10678214Y-864334D01*
X10668690Y-845286D01*
X10649643Y-835762D01*
X10621071Y-835762D01*
X10602024Y-826238D01*
X10592500Y-807191D01*
X10592500Y-797667D01*
X10602024Y-778619D01*
X10621071Y-769096D01*
X10649643Y-769096D01*
X10668690Y-778619D01*
X10744881Y-978619D02*
X10754405Y-969096D01*
X10773452Y-940524D01*
X10782976Y-921477D01*
X10792500Y-892905D01*
X10802024Y-845286D01*
X10802024Y-807191D01*
X10792500Y-759572D01*
X10782976Y-731000D01*
X10773452Y-711953D01*
X10754405Y-683381D01*
X10744881Y-673858D01*
D15*
X5763902Y-1120855D02*
X5763902Y-1031051D01*
X5674098Y-1031051D01*
X5674098Y-1120855D01*
X5763902Y-1120855D01*
D11*
X6144881Y-1166429D02*
X6030595Y-1166429D01*
X6087738Y-1166429D02*
X6087738Y-966429D01*
X6068690Y-995000D01*
X6049643Y-1014048D01*
X6030595Y-1023572D01*
X6230595Y-1147381D02*
X6240119Y-1156905D01*
X6230595Y-1166429D01*
X6221071Y-1156905D01*
X6230595Y-1147381D01*
X6230595Y-1166429D01*
X6316309Y-985477D02*
X6325833Y-975953D01*
X6344881Y-966429D01*
X6392500Y-966429D01*
X6411548Y-975953D01*
X6421071Y-985477D01*
X6430595Y-1004524D01*
X6430595Y-1023572D01*
X6421071Y-1052143D01*
X6306786Y-1166429D01*
X6430595Y-1166429D01*
X6497262Y-966429D02*
X6630595Y-966429D01*
X6544881Y-1166429D01*
X6744881Y-966429D02*
X6763928Y-966429D01*
X6782976Y-975953D01*
X6792500Y-985477D01*
X6802024Y-1004524D01*
X6811548Y-1042619D01*
X6811548Y-1090239D01*
X6802024Y-1128334D01*
X6792500Y-1147381D01*
X6782976Y-1156905D01*
X6763928Y-1166429D01*
X6744881Y-1166429D01*
X6725833Y-1156905D01*
X6716309Y-1147381D01*
X6706786Y-1128334D01*
X6697262Y-1090239D01*
X6697262Y-1042619D01*
X6706786Y-1004524D01*
X6716309Y-985477D01*
X6725833Y-975953D01*
X6744881Y-966429D01*
X6897262Y-1166429D02*
X6897262Y-1033096D01*
X6897262Y-1052143D02*
X6906786Y-1042619D01*
X6925833Y-1033096D01*
X6954405Y-1033096D01*
X6973452Y-1042619D01*
X6982976Y-1061667D01*
X6982976Y-1166429D01*
X6982976Y-1061667D02*
X6992500Y-1042619D01*
X7011548Y-1033096D01*
X7040119Y-1033096D01*
X7059167Y-1042619D01*
X7068690Y-1061667D01*
X7068690Y-1166429D01*
X7163928Y-1166429D02*
X7163928Y-1033096D01*
X7163928Y-1052143D02*
X7173452Y-1042619D01*
X7192500Y-1033096D01*
X7221071Y-1033096D01*
X7240119Y-1042619D01*
X7249643Y-1061667D01*
X7249643Y-1166429D01*
X7249643Y-1061667D02*
X7259167Y-1042619D01*
X7278214Y-1033096D01*
X7306786Y-1033096D01*
X7325833Y-1042619D01*
X7335357Y-1061667D01*
X7335357Y-1166429D01*
X7725833Y-956905D02*
X7554405Y-1214048D01*
X7982976Y-966429D02*
X8002024Y-966429D01*
X8021071Y-975953D01*
X8030595Y-985477D01*
X8040119Y-1004524D01*
X8049643Y-1042619D01*
X8049643Y-1090239D01*
X8040119Y-1128334D01*
X8030595Y-1147381D01*
X8021071Y-1156905D01*
X8002024Y-1166429D01*
X7982976Y-1166429D01*
X7963928Y-1156905D01*
X7954405Y-1147381D01*
X7944881Y-1128334D01*
X7935357Y-1090239D01*
X7935357Y-1042619D01*
X7944881Y-1004524D01*
X7954405Y-985477D01*
X7963928Y-975953D01*
X7982976Y-966429D01*
X8135357Y-1147381D02*
X8144881Y-1156905D01*
X8135357Y-1166429D01*
X8125833Y-1156905D01*
X8135357Y-1147381D01*
X8135357Y-1166429D01*
X8268690Y-966429D02*
X8287738Y-966429D01*
X8306786Y-975953D01*
X8316309Y-985477D01*
X8325833Y-1004524D01*
X8335357Y-1042619D01*
X8335357Y-1090239D01*
X8325833Y-1128334D01*
X8316309Y-1147381D01*
X8306786Y-1156905D01*
X8287738Y-1166429D01*
X8268690Y-1166429D01*
X8249643Y-1156905D01*
X8240119Y-1147381D01*
X8230595Y-1128334D01*
X8221071Y-1090239D01*
X8221071Y-1042619D01*
X8230595Y-1004524D01*
X8240119Y-985477D01*
X8249643Y-975953D01*
X8268690Y-966429D01*
X8516310Y-966429D02*
X8421071Y-966429D01*
X8411548Y-1061667D01*
X8421071Y-1052143D01*
X8440119Y-1042619D01*
X8487738Y-1042619D01*
X8506786Y-1052143D01*
X8516310Y-1061667D01*
X8525833Y-1080715D01*
X8525833Y-1128334D01*
X8516310Y-1147381D01*
X8506786Y-1156905D01*
X8487738Y-1166429D01*
X8440119Y-1166429D01*
X8421071Y-1156905D01*
X8411548Y-1147381D01*
X8649643Y-966429D02*
X8668690Y-966429D01*
X8687738Y-975953D01*
X8697262Y-985477D01*
X8706786Y-1004524D01*
X8716310Y-1042619D01*
X8716310Y-1090239D01*
X8706786Y-1128334D01*
X8697262Y-1147381D01*
X8687738Y-1156905D01*
X8668690Y-1166429D01*
X8649643Y-1166429D01*
X8630595Y-1156905D01*
X8621071Y-1147381D01*
X8611548Y-1128334D01*
X8602024Y-1090239D01*
X8602024Y-1042619D01*
X8611548Y-1004524D01*
X8621071Y-985477D01*
X8630595Y-975953D01*
X8649643Y-966429D01*
X8840119Y-966429D02*
X8859167Y-966429D01*
X8878214Y-975953D01*
X8887738Y-985477D01*
X8897262Y-1004524D01*
X8906786Y-1042619D01*
X8906786Y-1090239D01*
X8897262Y-1128334D01*
X8887738Y-1147381D01*
X8878214Y-1156905D01*
X8859167Y-1166429D01*
X8840119Y-1166429D01*
X8821071Y-1156905D01*
X8811548Y-1147381D01*
X8802024Y-1128334D01*
X8792500Y-1090239D01*
X8792500Y-1042619D01*
X8802024Y-1004524D01*
X8811548Y-985477D01*
X8821071Y-975953D01*
X8840119Y-966429D01*
X8982976Y-966429D02*
X8982976Y-1004524D01*
X9059167Y-966429D02*
X9059167Y-1004524D01*
X9354405Y-1242619D02*
X9344881Y-1233096D01*
X9325833Y-1204524D01*
X9316310Y-1185477D01*
X9306786Y-1156905D01*
X9297262Y-1109286D01*
X9297262Y-1071191D01*
X9306786Y-1023572D01*
X9316310Y-995000D01*
X9325833Y-975953D01*
X9344881Y-947381D01*
X9354405Y-937857D01*
X9411548Y-966429D02*
X9544881Y-966429D01*
X9459167Y-1166429D01*
X9611548Y-985477D02*
X9621071Y-975953D01*
X9640119Y-966429D01*
X9687738Y-966429D01*
X9706786Y-975953D01*
X9716310Y-985477D01*
X9725833Y-1004524D01*
X9725833Y-1023572D01*
X9716310Y-1052143D01*
X9602024Y-1166429D01*
X9725833Y-1166429D01*
X9963929Y-1166429D02*
X9963929Y-966429D01*
X10049643Y-1166429D02*
X10049643Y-1061667D01*
X10040119Y-1042619D01*
X10021071Y-1033096D01*
X9992500Y-1033096D01*
X9973452Y-1042619D01*
X9963929Y-1052143D01*
X10173452Y-1166429D02*
X10154405Y-1156905D01*
X10144881Y-1147381D01*
X10135357Y-1128334D01*
X10135357Y-1071191D01*
X10144881Y-1052143D01*
X10154405Y-1042619D01*
X10173452Y-1033096D01*
X10202024Y-1033096D01*
X10221071Y-1042619D01*
X10230595Y-1052143D01*
X10240119Y-1071191D01*
X10240119Y-1128334D01*
X10230595Y-1147381D01*
X10221071Y-1156905D01*
X10202024Y-1166429D01*
X10173452Y-1166429D01*
X10354405Y-1166429D02*
X10335357Y-1156905D01*
X10325833Y-1137858D01*
X10325833Y-966429D01*
X10506786Y-1156905D02*
X10487738Y-1166429D01*
X10449643Y-1166429D01*
X10430595Y-1156905D01*
X10421071Y-1137858D01*
X10421071Y-1061667D01*
X10430595Y-1042619D01*
X10449643Y-1033096D01*
X10487738Y-1033096D01*
X10506786Y-1042619D01*
X10516310Y-1061667D01*
X10516310Y-1080715D01*
X10421071Y-1099762D01*
X10592500Y-1156905D02*
X10611548Y-1166429D01*
X10649643Y-1166429D01*
X10668690Y-1156905D01*
X10678214Y-1137858D01*
X10678214Y-1128334D01*
X10668690Y-1109286D01*
X10649643Y-1099762D01*
X10621071Y-1099762D01*
X10602024Y-1090239D01*
X10592500Y-1071191D01*
X10592500Y-1061667D01*
X10602024Y-1042619D01*
X10621071Y-1033096D01*
X10649643Y-1033096D01*
X10668690Y-1042619D01*
X10744881Y-1242619D02*
X10754405Y-1233096D01*
X10773452Y-1204524D01*
X10782976Y-1185477D01*
X10792500Y-1156905D01*
X10802024Y-1109286D01*
X10802024Y-1071191D01*
X10792500Y-1023572D01*
X10782976Y-995000D01*
X10773452Y-975953D01*
X10754405Y-947381D01*
X10744881Y-937857D01*
D16*
X5737500Y-1384953D02*
X5782500Y-1339953D01*
X5737500Y-1294953D01*
X5692500Y-1339953D01*
X5737500Y-1384953D01*
D11*
X6078214Y-1230429D02*
X6097262Y-1230429D01*
X6116309Y-1239953D01*
X6125833Y-1249477D01*
X6135357Y-1268524D01*
X6144881Y-1306619D01*
X6144881Y-1354239D01*
X6135357Y-1392334D01*
X6125833Y-1411381D01*
X6116309Y-1420905D01*
X6097262Y-1430429D01*
X6078214Y-1430429D01*
X6059167Y-1420905D01*
X6049643Y-1411381D01*
X6040119Y-1392334D01*
X6030595Y-1354239D01*
X6030595Y-1306619D01*
X6040119Y-1268524D01*
X6049643Y-1249477D01*
X6059167Y-1239953D01*
X6078214Y-1230429D01*
X6230595Y-1411381D02*
X6240119Y-1420905D01*
X6230595Y-1430429D01*
X6221071Y-1420905D01*
X6230595Y-1411381D01*
X6230595Y-1430429D01*
X6335357Y-1430429D02*
X6373452Y-1430429D01*
X6392500Y-1420905D01*
X6402024Y-1411381D01*
X6421071Y-1382810D01*
X6430595Y-1344715D01*
X6430595Y-1268524D01*
X6421071Y-1249477D01*
X6411548Y-1239953D01*
X6392500Y-1230429D01*
X6354405Y-1230429D01*
X6335357Y-1239953D01*
X6325833Y-1249477D01*
X6316309Y-1268524D01*
X6316309Y-1316143D01*
X6325833Y-1335191D01*
X6335357Y-1344715D01*
X6354405Y-1354239D01*
X6392500Y-1354239D01*
X6411548Y-1344715D01*
X6421071Y-1335191D01*
X6430595Y-1316143D01*
X6554405Y-1230429D02*
X6573452Y-1230429D01*
X6592500Y-1239953D01*
X6602024Y-1249477D01*
X6611548Y-1268524D01*
X6621071Y-1306619D01*
X6621071Y-1354239D01*
X6611548Y-1392334D01*
X6602024Y-1411381D01*
X6592500Y-1420905D01*
X6573452Y-1430429D01*
X6554405Y-1430429D01*
X6535357Y-1420905D01*
X6525833Y-1411381D01*
X6516309Y-1392334D01*
X6506786Y-1354239D01*
X6506786Y-1306619D01*
X6516309Y-1268524D01*
X6525833Y-1249477D01*
X6535357Y-1239953D01*
X6554405Y-1230429D01*
X6744881Y-1230429D02*
X6763928Y-1230429D01*
X6782976Y-1239953D01*
X6792500Y-1249477D01*
X6802024Y-1268524D01*
X6811548Y-1306619D01*
X6811548Y-1354239D01*
X6802024Y-1392334D01*
X6792500Y-1411381D01*
X6782976Y-1420905D01*
X6763928Y-1430429D01*
X6744881Y-1430429D01*
X6725833Y-1420905D01*
X6716309Y-1411381D01*
X6706786Y-1392334D01*
X6697262Y-1354239D01*
X6697262Y-1306619D01*
X6706786Y-1268524D01*
X6716309Y-1249477D01*
X6725833Y-1239953D01*
X6744881Y-1230429D01*
X6897262Y-1430429D02*
X6897262Y-1297096D01*
X6897262Y-1316143D02*
X6906786Y-1306619D01*
X6925833Y-1297096D01*
X6954405Y-1297096D01*
X6973452Y-1306619D01*
X6982976Y-1325667D01*
X6982976Y-1430429D01*
X6982976Y-1325667D02*
X6992500Y-1306619D01*
X7011548Y-1297096D01*
X7040119Y-1297096D01*
X7059167Y-1306619D01*
X7068690Y-1325667D01*
X7068690Y-1430429D01*
X7163928Y-1430429D02*
X7163928Y-1297096D01*
X7163928Y-1316143D02*
X7173452Y-1306619D01*
X7192500Y-1297096D01*
X7221071Y-1297096D01*
X7240119Y-1306619D01*
X7249643Y-1325667D01*
X7249643Y-1430429D01*
X7249643Y-1325667D02*
X7259167Y-1306619D01*
X7278214Y-1297096D01*
X7306786Y-1297096D01*
X7325833Y-1306619D01*
X7335357Y-1325667D01*
X7335357Y-1430429D01*
X7725833Y-1220905D02*
X7554405Y-1478048D01*
X7982976Y-1230429D02*
X8002024Y-1230429D01*
X8021071Y-1239953D01*
X8030595Y-1249477D01*
X8040119Y-1268524D01*
X8049643Y-1306619D01*
X8049643Y-1354239D01*
X8040119Y-1392334D01*
X8030595Y-1411381D01*
X8021071Y-1420905D01*
X8002024Y-1430429D01*
X7982976Y-1430429D01*
X7963928Y-1420905D01*
X7954405Y-1411381D01*
X7944881Y-1392334D01*
X7935357Y-1354239D01*
X7935357Y-1306619D01*
X7944881Y-1268524D01*
X7954405Y-1249477D01*
X7963928Y-1239953D01*
X7982976Y-1230429D01*
X8135357Y-1411381D02*
X8144881Y-1420905D01*
X8135357Y-1430429D01*
X8125833Y-1420905D01*
X8135357Y-1411381D01*
X8135357Y-1430429D01*
X8268690Y-1230429D02*
X8287738Y-1230429D01*
X8306786Y-1239953D01*
X8316309Y-1249477D01*
X8325833Y-1268524D01*
X8335357Y-1306619D01*
X8335357Y-1354239D01*
X8325833Y-1392334D01*
X8316309Y-1411381D01*
X8306786Y-1420905D01*
X8287738Y-1430429D01*
X8268690Y-1430429D01*
X8249643Y-1420905D01*
X8240119Y-1411381D01*
X8230595Y-1392334D01*
X8221071Y-1354239D01*
X8221071Y-1306619D01*
X8230595Y-1268524D01*
X8240119Y-1249477D01*
X8249643Y-1239953D01*
X8268690Y-1230429D01*
X8402024Y-1230429D02*
X8525833Y-1230429D01*
X8459167Y-1306619D01*
X8487738Y-1306619D01*
X8506786Y-1316143D01*
X8516310Y-1325667D01*
X8525833Y-1344715D01*
X8525833Y-1392334D01*
X8516310Y-1411381D01*
X8506786Y-1420905D01*
X8487738Y-1430429D01*
X8430595Y-1430429D01*
X8411548Y-1420905D01*
X8402024Y-1411381D01*
X8706786Y-1230429D02*
X8611548Y-1230429D01*
X8602024Y-1325667D01*
X8611548Y-1316143D01*
X8630595Y-1306619D01*
X8678214Y-1306619D01*
X8697262Y-1316143D01*
X8706786Y-1325667D01*
X8716310Y-1344715D01*
X8716310Y-1392334D01*
X8706786Y-1411381D01*
X8697262Y-1420905D01*
X8678214Y-1430429D01*
X8630595Y-1430429D01*
X8611548Y-1420905D01*
X8602024Y-1411381D01*
X8887738Y-1297096D02*
X8887738Y-1430429D01*
X8840119Y-1220905D02*
X8792500Y-1363762D01*
X8916310Y-1363762D01*
X8982976Y-1230429D02*
X8982976Y-1268524D01*
X9059167Y-1230429D02*
X9059167Y-1268524D01*
X9354405Y-1506619D02*
X9344881Y-1497096D01*
X9325833Y-1468524D01*
X9316310Y-1449477D01*
X9306786Y-1420905D01*
X9297262Y-1373286D01*
X9297262Y-1335191D01*
X9306786Y-1287572D01*
X9316310Y-1259000D01*
X9325833Y-1239953D01*
X9344881Y-1211381D01*
X9354405Y-1201858D01*
X9516310Y-1297096D02*
X9516310Y-1430429D01*
X9468690Y-1220905D02*
X9421071Y-1363762D01*
X9544881Y-1363762D01*
X9773452Y-1430429D02*
X9773452Y-1230429D01*
X9859167Y-1430429D02*
X9859167Y-1325667D01*
X9849643Y-1306619D01*
X9830595Y-1297096D01*
X9802024Y-1297096D01*
X9782976Y-1306619D01*
X9773452Y-1316143D01*
X9982976Y-1430429D02*
X9963929Y-1420905D01*
X9954405Y-1411381D01*
X9944881Y-1392334D01*
X9944881Y-1335191D01*
X9954405Y-1316143D01*
X9963929Y-1306619D01*
X9982976Y-1297096D01*
X10011548Y-1297096D01*
X10030595Y-1306619D01*
X10040119Y-1316143D01*
X10049643Y-1335191D01*
X10049643Y-1392334D01*
X10040119Y-1411381D01*
X10030595Y-1420905D01*
X10011548Y-1430429D01*
X9982976Y-1430429D01*
X10163929Y-1430429D02*
X10144881Y-1420905D01*
X10135357Y-1401857D01*
X10135357Y-1230429D01*
X10316310Y-1420905D02*
X10297262Y-1430429D01*
X10259167Y-1430429D01*
X10240119Y-1420905D01*
X10230595Y-1401857D01*
X10230595Y-1325667D01*
X10240119Y-1306619D01*
X10259167Y-1297096D01*
X10297262Y-1297096D01*
X10316310Y-1306619D01*
X10325833Y-1325667D01*
X10325833Y-1344715D01*
X10230595Y-1363762D01*
X10402024Y-1420905D02*
X10421071Y-1430429D01*
X10459167Y-1430429D01*
X10478214Y-1420905D01*
X10487738Y-1401857D01*
X10487738Y-1392334D01*
X10478214Y-1373286D01*
X10459167Y-1363762D01*
X10430595Y-1363762D01*
X10411548Y-1354239D01*
X10402024Y-1335191D01*
X10402024Y-1325667D01*
X10411548Y-1306619D01*
X10430595Y-1297096D01*
X10459167Y-1297096D01*
X10478214Y-1306619D01*
X10554405Y-1506619D02*
X10563929Y-1497096D01*
X10582976Y-1468524D01*
X10592500Y-1449477D01*
X10602024Y-1420905D01*
X10611548Y-1373286D01*
X10611548Y-1335191D01*
X10602024Y-1287572D01*
X10592500Y-1259000D01*
X10582976Y-1239953D01*
X10563929Y-1211381D01*
X10554405Y-1201858D01*
X10916310Y-1506619D02*
X10906786Y-1497096D01*
X10887738Y-1468524D01*
X10878214Y-1449477D01*
X10868690Y-1420905D01*
X10859167Y-1373286D01*
X10859167Y-1335191D01*
X10868690Y-1287572D01*
X10878214Y-1259000D01*
X10887738Y-1239953D01*
X10906786Y-1211381D01*
X10916310Y-1201858D01*
X10992500Y-1297096D02*
X10992500Y-1430429D01*
X10992500Y-1316143D02*
X11002024Y-1306619D01*
X11021071Y-1297096D01*
X11049643Y-1297096D01*
X11068690Y-1306619D01*
X11078214Y-1325667D01*
X11078214Y-1430429D01*
X11202024Y-1430429D02*
X11182976Y-1420905D01*
X11173452Y-1411381D01*
X11163929Y-1392334D01*
X11163929Y-1335191D01*
X11173452Y-1316143D01*
X11182976Y-1306619D01*
X11202024Y-1297096D01*
X11230595Y-1297096D01*
X11249643Y-1306619D01*
X11259167Y-1316143D01*
X11268690Y-1335191D01*
X11268690Y-1392334D01*
X11259167Y-1411381D01*
X11249643Y-1420905D01*
X11230595Y-1430429D01*
X11202024Y-1430429D01*
X11325833Y-1297096D02*
X11402024Y-1297096D01*
X11354405Y-1230429D02*
X11354405Y-1401857D01*
X11363928Y-1420905D01*
X11382976Y-1430429D01*
X11402024Y-1430429D01*
X11621071Y-1297096D02*
X11621071Y-1497096D01*
X11621071Y-1306619D02*
X11640119Y-1297096D01*
X11678214Y-1297096D01*
X11697262Y-1306619D01*
X11706786Y-1316143D01*
X11716309Y-1335191D01*
X11716309Y-1392334D01*
X11706786Y-1411381D01*
X11697262Y-1420905D01*
X11678214Y-1430429D01*
X11640119Y-1430429D01*
X11621071Y-1420905D01*
X11830595Y-1430429D02*
X11811548Y-1420905D01*
X11802024Y-1401857D01*
X11802024Y-1230429D01*
X11992500Y-1430429D02*
X11992500Y-1325667D01*
X11982976Y-1306619D01*
X11963928Y-1297096D01*
X11925833Y-1297096D01*
X11906786Y-1306619D01*
X11992500Y-1420905D02*
X11973452Y-1430429D01*
X11925833Y-1430429D01*
X11906786Y-1420905D01*
X11897262Y-1401857D01*
X11897262Y-1382810D01*
X11906786Y-1363762D01*
X11925833Y-1354239D01*
X11973452Y-1354239D01*
X11992500Y-1344715D01*
X12059167Y-1297096D02*
X12135357Y-1297096D01*
X12087738Y-1230429D02*
X12087738Y-1401857D01*
X12097262Y-1420905D01*
X12116309Y-1430429D01*
X12135357Y-1430429D01*
X12278214Y-1420905D02*
X12259167Y-1430429D01*
X12221071Y-1430429D01*
X12202024Y-1420905D01*
X12192500Y-1401857D01*
X12192500Y-1325667D01*
X12202024Y-1306619D01*
X12221071Y-1297096D01*
X12259167Y-1297096D01*
X12278214Y-1306619D01*
X12287738Y-1325667D01*
X12287738Y-1344715D01*
X12192500Y-1363762D01*
X12459167Y-1430429D02*
X12459167Y-1230429D01*
X12459167Y-1420905D02*
X12440119Y-1430429D01*
X12402024Y-1430429D01*
X12382976Y-1420905D01*
X12373452Y-1411381D01*
X12363928Y-1392334D01*
X12363928Y-1335191D01*
X12373452Y-1316143D01*
X12382976Y-1306619D01*
X12402024Y-1297096D01*
X12440119Y-1297096D01*
X12459167Y-1306619D01*
X12535357Y-1506619D02*
X12544881Y-1497096D01*
X12563928Y-1468524D01*
X12573452Y-1449477D01*
X12582976Y-1420905D01*
X12592500Y-1373286D01*
X12592500Y-1335191D01*
X12582976Y-1287572D01*
X12573452Y-1259000D01*
X12563928Y-1239953D01*
X12544881Y-1211381D01*
X12535357Y-1201858D01*
D17*
X5612320Y-1518863D02*
X5782500Y-1689043D01*
X5782500Y-1518863D02*
X5612320Y-1689043D01*
X5782500Y-1603953D02*
G75*
G03*
X5782500Y-1603953I-85090J0D01*
G01*
D11*
X6144881Y-1694429D02*
X6030595Y-1694429D01*
X6087738Y-1694429D02*
X6087738Y-1494429D01*
X6068690Y-1523000D01*
X6049643Y-1542048D01*
X6030595Y-1551572D01*
X6230595Y-1675381D02*
X6240119Y-1684905D01*
X6230595Y-1694429D01*
X6221071Y-1684905D01*
X6230595Y-1675381D01*
X6230595Y-1694429D01*
X6306786Y-1494429D02*
X6440119Y-1494429D01*
X6354405Y-1694429D01*
X6554405Y-1494429D02*
X6573452Y-1494429D01*
X6592500Y-1503953D01*
X6602024Y-1513477D01*
X6611548Y-1532524D01*
X6621071Y-1570619D01*
X6621071Y-1618238D01*
X6611548Y-1656334D01*
X6602024Y-1675381D01*
X6592500Y-1684905D01*
X6573452Y-1694429D01*
X6554405Y-1694429D01*
X6535357Y-1684905D01*
X6525833Y-1675381D01*
X6516309Y-1656334D01*
X6506786Y-1618238D01*
X6506786Y-1570619D01*
X6516309Y-1532524D01*
X6525833Y-1513477D01*
X6535357Y-1503953D01*
X6554405Y-1494429D01*
X6697262Y-1513477D02*
X6706786Y-1503953D01*
X6725833Y-1494429D01*
X6773452Y-1494429D01*
X6792500Y-1503953D01*
X6802024Y-1513477D01*
X6811548Y-1532524D01*
X6811548Y-1551572D01*
X6802024Y-1580143D01*
X6687738Y-1694429D01*
X6811548Y-1694429D01*
X6897262Y-1694429D02*
X6897262Y-1561096D01*
X6897262Y-1580143D02*
X6906786Y-1570619D01*
X6925833Y-1561096D01*
X6954405Y-1561096D01*
X6973452Y-1570619D01*
X6982976Y-1589667D01*
X6982976Y-1694429D01*
X6982976Y-1589667D02*
X6992500Y-1570619D01*
X7011548Y-1561096D01*
X7040119Y-1561096D01*
X7059167Y-1570619D01*
X7068690Y-1589667D01*
X7068690Y-1694429D01*
X7163928Y-1694429D02*
X7163928Y-1561096D01*
X7163928Y-1580143D02*
X7173452Y-1570619D01*
X7192500Y-1561096D01*
X7221071Y-1561096D01*
X7240119Y-1570619D01*
X7249643Y-1589667D01*
X7249643Y-1694429D01*
X7249643Y-1589667D02*
X7259167Y-1570619D01*
X7278214Y-1561096D01*
X7306786Y-1561096D01*
X7325833Y-1570619D01*
X7335357Y-1589667D01*
X7335357Y-1694429D01*
X7725833Y-1484905D02*
X7554405Y-1742048D01*
X7982976Y-1494429D02*
X8002024Y-1494429D01*
X8021071Y-1503953D01*
X8030595Y-1513477D01*
X8040119Y-1532524D01*
X8049643Y-1570619D01*
X8049643Y-1618238D01*
X8040119Y-1656334D01*
X8030595Y-1675381D01*
X8021071Y-1684905D01*
X8002024Y-1694429D01*
X7982976Y-1694429D01*
X7963928Y-1684905D01*
X7954405Y-1675381D01*
X7944881Y-1656334D01*
X7935357Y-1618238D01*
X7935357Y-1570619D01*
X7944881Y-1532524D01*
X7954405Y-1513477D01*
X7963928Y-1503953D01*
X7982976Y-1494429D01*
X8135357Y-1675381D02*
X8144881Y-1684905D01*
X8135357Y-1694429D01*
X8125833Y-1684905D01*
X8135357Y-1675381D01*
X8135357Y-1694429D01*
X8268690Y-1494429D02*
X8287738Y-1494429D01*
X8306786Y-1503953D01*
X8316309Y-1513477D01*
X8325833Y-1532524D01*
X8335357Y-1570619D01*
X8335357Y-1618238D01*
X8325833Y-1656334D01*
X8316309Y-1675381D01*
X8306786Y-1684905D01*
X8287738Y-1694429D01*
X8268690Y-1694429D01*
X8249643Y-1684905D01*
X8240119Y-1675381D01*
X8230595Y-1656334D01*
X8221071Y-1618238D01*
X8221071Y-1570619D01*
X8230595Y-1532524D01*
X8240119Y-1513477D01*
X8249643Y-1503953D01*
X8268690Y-1494429D01*
X8506786Y-1494429D02*
X8468690Y-1494429D01*
X8449643Y-1503953D01*
X8440119Y-1513477D01*
X8421071Y-1542048D01*
X8411548Y-1580143D01*
X8411548Y-1656334D01*
X8421071Y-1675381D01*
X8430595Y-1684905D01*
X8449643Y-1694429D01*
X8487738Y-1694429D01*
X8506786Y-1684905D01*
X8516310Y-1675381D01*
X8525833Y-1656334D01*
X8525833Y-1608715D01*
X8516310Y-1589667D01*
X8506786Y-1580143D01*
X8487738Y-1570619D01*
X8449643Y-1570619D01*
X8430595Y-1580143D01*
X8421071Y-1589667D01*
X8411548Y-1608715D01*
X8592500Y-1494429D02*
X8725833Y-1494429D01*
X8640119Y-1694429D01*
X8840119Y-1494429D02*
X8859167Y-1494429D01*
X8878214Y-1503953D01*
X8887738Y-1513477D01*
X8897262Y-1532524D01*
X8906786Y-1570619D01*
X8906786Y-1618238D01*
X8897262Y-1656334D01*
X8887738Y-1675381D01*
X8878214Y-1684905D01*
X8859167Y-1694429D01*
X8840119Y-1694429D01*
X8821071Y-1684905D01*
X8811548Y-1675381D01*
X8802024Y-1656334D01*
X8792500Y-1618238D01*
X8792500Y-1570619D01*
X8802024Y-1532524D01*
X8811548Y-1513477D01*
X8821071Y-1503953D01*
X8840119Y-1494429D01*
X8982976Y-1494429D02*
X8982976Y-1532524D01*
X9059167Y-1494429D02*
X9059167Y-1532524D01*
X9354405Y-1770619D02*
X9344881Y-1761096D01*
X9325833Y-1732524D01*
X9316310Y-1713477D01*
X9306786Y-1684905D01*
X9297262Y-1637286D01*
X9297262Y-1599191D01*
X9306786Y-1551572D01*
X9316310Y-1523000D01*
X9325833Y-1503953D01*
X9344881Y-1475381D01*
X9354405Y-1465857D01*
X9411548Y-1494429D02*
X9544881Y-1494429D01*
X9459167Y-1694429D01*
X9611548Y-1513477D02*
X9621071Y-1503953D01*
X9640119Y-1494429D01*
X9687738Y-1494429D01*
X9706786Y-1503953D01*
X9716310Y-1513477D01*
X9725833Y-1532524D01*
X9725833Y-1551572D01*
X9716310Y-1580143D01*
X9602024Y-1694429D01*
X9725833Y-1694429D01*
X9963929Y-1694429D02*
X9963929Y-1494429D01*
X10049643Y-1694429D02*
X10049643Y-1589667D01*
X10040119Y-1570619D01*
X10021071Y-1561096D01*
X9992500Y-1561096D01*
X9973452Y-1570619D01*
X9963929Y-1580143D01*
X10173452Y-1694429D02*
X10154405Y-1684905D01*
X10144881Y-1675381D01*
X10135357Y-1656334D01*
X10135357Y-1599191D01*
X10144881Y-1580143D01*
X10154405Y-1570619D01*
X10173452Y-1561096D01*
X10202024Y-1561096D01*
X10221071Y-1570619D01*
X10230595Y-1580143D01*
X10240119Y-1599191D01*
X10240119Y-1656334D01*
X10230595Y-1675381D01*
X10221071Y-1684905D01*
X10202024Y-1694429D01*
X10173452Y-1694429D01*
X10354405Y-1694429D02*
X10335357Y-1684905D01*
X10325833Y-1665857D01*
X10325833Y-1494429D01*
X10506786Y-1684905D02*
X10487738Y-1694429D01*
X10449643Y-1694429D01*
X10430595Y-1684905D01*
X10421071Y-1665857D01*
X10421071Y-1589667D01*
X10430595Y-1570619D01*
X10449643Y-1561096D01*
X10487738Y-1561096D01*
X10506786Y-1570619D01*
X10516310Y-1589667D01*
X10516310Y-1608715D01*
X10421071Y-1627762D01*
X10592500Y-1684905D02*
X10611548Y-1694429D01*
X10649643Y-1694429D01*
X10668690Y-1684905D01*
X10678214Y-1665857D01*
X10678214Y-1656334D01*
X10668690Y-1637286D01*
X10649643Y-1627762D01*
X10621071Y-1627762D01*
X10602024Y-1618238D01*
X10592500Y-1599191D01*
X10592500Y-1589667D01*
X10602024Y-1570619D01*
X10621071Y-1561096D01*
X10649643Y-1561096D01*
X10668690Y-1570619D01*
X10744881Y-1770619D02*
X10754405Y-1761096D01*
X10773452Y-1732524D01*
X10782976Y-1713477D01*
X10792500Y-1684905D01*
X10802024Y-1637286D01*
X10802024Y-1599191D01*
X10792500Y-1551572D01*
X10782976Y-1523000D01*
X10773452Y-1503953D01*
X10754405Y-1475381D01*
X10744881Y-1465857D01*
X11106786Y-1770619D02*
X11097262Y-1761096D01*
X11078214Y-1732524D01*
X11068690Y-1713477D01*
X11059167Y-1684905D01*
X11049643Y-1637286D01*
X11049643Y-1599191D01*
X11059167Y-1551572D01*
X11068690Y-1523000D01*
X11078214Y-1503953D01*
X11097262Y-1475381D01*
X11106786Y-1465857D01*
X11182976Y-1561096D02*
X11182976Y-1694429D01*
X11182976Y-1580143D02*
X11192500Y-1570619D01*
X11211548Y-1561096D01*
X11240119Y-1561096D01*
X11259167Y-1570619D01*
X11268690Y-1589667D01*
X11268690Y-1694429D01*
X11392500Y-1694429D02*
X11373452Y-1684905D01*
X11363928Y-1675381D01*
X11354405Y-1656334D01*
X11354405Y-1599191D01*
X11363928Y-1580143D01*
X11373452Y-1570619D01*
X11392500Y-1561096D01*
X11421071Y-1561096D01*
X11440119Y-1570619D01*
X11449643Y-1580143D01*
X11459167Y-1599191D01*
X11459167Y-1656334D01*
X11449643Y-1675381D01*
X11440119Y-1684905D01*
X11421071Y-1694429D01*
X11392500Y-1694429D01*
X11516309Y-1561096D02*
X11592500Y-1561096D01*
X11544881Y-1494429D02*
X11544881Y-1665857D01*
X11554405Y-1684905D01*
X11573452Y-1694429D01*
X11592500Y-1694429D01*
X11811548Y-1561096D02*
X11811548Y-1761096D01*
X11811548Y-1570619D02*
X11830595Y-1561096D01*
X11868690Y-1561096D01*
X11887738Y-1570619D01*
X11897262Y-1580143D01*
X11906786Y-1599191D01*
X11906786Y-1656334D01*
X11897262Y-1675381D01*
X11887738Y-1684905D01*
X11868690Y-1694429D01*
X11830595Y-1694429D01*
X11811548Y-1684905D01*
X12021071Y-1694429D02*
X12002024Y-1684905D01*
X11992500Y-1665857D01*
X11992500Y-1494429D01*
X12182976Y-1694429D02*
X12182976Y-1589667D01*
X12173452Y-1570619D01*
X12154405Y-1561096D01*
X12116309Y-1561096D01*
X12097262Y-1570619D01*
X12182976Y-1684905D02*
X12163928Y-1694429D01*
X12116309Y-1694429D01*
X12097262Y-1684905D01*
X12087738Y-1665857D01*
X12087738Y-1646810D01*
X12097262Y-1627762D01*
X12116309Y-1618238D01*
X12163928Y-1618238D01*
X12182976Y-1608715D01*
X12249643Y-1561096D02*
X12325833Y-1561096D01*
X12278214Y-1494429D02*
X12278214Y-1665857D01*
X12287738Y-1684905D01*
X12306786Y-1694429D01*
X12325833Y-1694429D01*
X12468690Y-1684905D02*
X12449643Y-1694429D01*
X12411548Y-1694429D01*
X12392500Y-1684905D01*
X12382976Y-1665857D01*
X12382976Y-1589667D01*
X12392500Y-1570619D01*
X12411548Y-1561096D01*
X12449643Y-1561096D01*
X12468690Y-1570619D01*
X12478214Y-1589667D01*
X12478214Y-1608715D01*
X12382976Y-1627762D01*
X12649643Y-1694429D02*
X12649643Y-1494429D01*
X12649643Y-1684905D02*
X12630595Y-1694429D01*
X12592500Y-1694429D01*
X12573452Y-1684905D01*
X12563928Y-1675381D01*
X12554405Y-1656334D01*
X12554405Y-1599191D01*
X12563928Y-1580143D01*
X12573452Y-1570619D01*
X12592500Y-1561096D01*
X12630595Y-1561096D01*
X12649643Y-1570619D01*
X12725833Y-1770619D02*
X12735357Y-1761096D01*
X12754405Y-1732524D01*
X12763928Y-1713477D01*
X12773452Y-1684905D01*
X12782976Y-1637286D01*
X12782976Y-1599191D01*
X12773452Y-1551572D01*
X12763928Y-1523000D01*
X12754405Y-1503953D01*
X12735357Y-1475381D01*
X12725833Y-1465857D01*
X5582500Y-1794133D02*
X5782500Y-1994133D01*
X5782500Y-1794133D02*
X5582500Y-1994133D01*
X5682500Y-1794133D02*
X5682500Y-1994133D01*
X5582500Y-1894133D02*
X5782500Y-1894133D01*
X6021071Y-1784609D02*
X6144881Y-1784609D01*
X6078214Y-1860799D01*
X6106786Y-1860799D01*
X6125833Y-1870323D01*
X6135357Y-1879847D01*
X6144881Y-1898895D01*
X6144881Y-1946514D01*
X6135357Y-1965561D01*
X6125833Y-1975085D01*
X6106786Y-1984609D01*
X6049643Y-1984609D01*
X6030595Y-1975085D01*
X6021071Y-1965561D01*
X6230595Y-1965561D02*
X6240119Y-1975085D01*
X6230595Y-1984609D01*
X6221071Y-1975085D01*
X6230595Y-1965561D01*
X6230595Y-1984609D01*
X6363928Y-1784609D02*
X6382976Y-1784609D01*
X6402024Y-1794133D01*
X6411548Y-1803657D01*
X6421071Y-1822704D01*
X6430595Y-1860799D01*
X6430595Y-1908418D01*
X6421071Y-1946514D01*
X6411548Y-1965561D01*
X6402024Y-1975085D01*
X6382976Y-1984609D01*
X6363928Y-1984609D01*
X6344881Y-1975085D01*
X6335357Y-1965561D01*
X6325833Y-1946514D01*
X6316309Y-1908418D01*
X6316309Y-1860799D01*
X6325833Y-1822704D01*
X6335357Y-1803657D01*
X6344881Y-1794133D01*
X6363928Y-1784609D01*
X6554405Y-1784609D02*
X6573452Y-1784609D01*
X6592500Y-1794133D01*
X6602024Y-1803657D01*
X6611548Y-1822704D01*
X6621071Y-1860799D01*
X6621071Y-1908418D01*
X6611548Y-1946514D01*
X6602024Y-1965561D01*
X6592500Y-1975085D01*
X6573452Y-1984609D01*
X6554405Y-1984609D01*
X6535357Y-1975085D01*
X6525833Y-1965561D01*
X6516309Y-1946514D01*
X6506786Y-1908418D01*
X6506786Y-1860799D01*
X6516309Y-1822704D01*
X6525833Y-1803657D01*
X6535357Y-1794133D01*
X6554405Y-1784609D01*
X6744881Y-1784609D02*
X6763928Y-1784609D01*
X6782976Y-1794133D01*
X6792500Y-1803657D01*
X6802024Y-1822704D01*
X6811548Y-1860799D01*
X6811548Y-1908418D01*
X6802024Y-1946514D01*
X6792500Y-1965561D01*
X6782976Y-1975085D01*
X6763928Y-1984609D01*
X6744881Y-1984609D01*
X6725833Y-1975085D01*
X6716309Y-1965561D01*
X6706786Y-1946514D01*
X6697262Y-1908418D01*
X6697262Y-1860799D01*
X6706786Y-1822704D01*
X6716309Y-1803657D01*
X6725833Y-1794133D01*
X6744881Y-1784609D01*
X6897262Y-1984609D02*
X6897262Y-1851276D01*
X6897262Y-1870323D02*
X6906786Y-1860799D01*
X6925833Y-1851276D01*
X6954405Y-1851276D01*
X6973452Y-1860799D01*
X6982976Y-1879847D01*
X6982976Y-1984609D01*
X6982976Y-1879847D02*
X6992500Y-1860799D01*
X7011548Y-1851276D01*
X7040119Y-1851276D01*
X7059167Y-1860799D01*
X7068690Y-1879847D01*
X7068690Y-1984609D01*
X7163928Y-1984609D02*
X7163928Y-1851276D01*
X7163928Y-1870323D02*
X7173452Y-1860799D01*
X7192500Y-1851276D01*
X7221071Y-1851276D01*
X7240119Y-1860799D01*
X7249643Y-1879847D01*
X7249643Y-1984609D01*
X7249643Y-1879847D02*
X7259167Y-1860799D01*
X7278214Y-1851276D01*
X7306786Y-1851276D01*
X7325833Y-1860799D01*
X7335357Y-1879847D01*
X7335357Y-1984609D01*
X7725833Y-1775085D02*
X7554405Y-2032228D01*
X7982976Y-1784609D02*
X8002024Y-1784609D01*
X8021071Y-1794133D01*
X8030595Y-1803657D01*
X8040119Y-1822704D01*
X8049643Y-1860799D01*
X8049643Y-1908418D01*
X8040119Y-1946514D01*
X8030595Y-1965561D01*
X8021071Y-1975085D01*
X8002024Y-1984609D01*
X7982976Y-1984609D01*
X7963928Y-1975085D01*
X7954405Y-1965561D01*
X7944881Y-1946514D01*
X7935357Y-1908418D01*
X7935357Y-1860799D01*
X7944881Y-1822704D01*
X7954405Y-1803657D01*
X7963928Y-1794133D01*
X7982976Y-1784609D01*
X8135357Y-1965561D02*
X8144881Y-1975085D01*
X8135357Y-1984609D01*
X8125833Y-1975085D01*
X8135357Y-1965561D01*
X8135357Y-1984609D01*
X8335357Y-1984609D02*
X8221071Y-1984609D01*
X8278214Y-1984609D02*
X8278214Y-1784609D01*
X8259167Y-1813180D01*
X8240119Y-1832228D01*
X8221071Y-1841752D01*
X8525833Y-1984609D02*
X8411548Y-1984609D01*
X8468690Y-1984609D02*
X8468690Y-1784609D01*
X8449643Y-1813180D01*
X8430595Y-1832228D01*
X8411548Y-1841752D01*
X8640119Y-1870323D02*
X8621071Y-1860799D01*
X8611548Y-1851276D01*
X8602024Y-1832228D01*
X8602024Y-1822704D01*
X8611548Y-1803657D01*
X8621071Y-1794133D01*
X8640119Y-1784609D01*
X8678214Y-1784609D01*
X8697262Y-1794133D01*
X8706786Y-1803657D01*
X8716310Y-1822704D01*
X8716310Y-1832228D01*
X8706786Y-1851276D01*
X8697262Y-1860799D01*
X8678214Y-1870323D01*
X8640119Y-1870323D01*
X8621071Y-1879847D01*
X8611548Y-1889371D01*
X8602024Y-1908418D01*
X8602024Y-1946514D01*
X8611548Y-1965561D01*
X8621071Y-1975085D01*
X8640119Y-1984609D01*
X8678214Y-1984609D01*
X8697262Y-1975085D01*
X8706786Y-1965561D01*
X8716310Y-1946514D01*
X8716310Y-1908418D01*
X8706786Y-1889371D01*
X8697262Y-1879847D01*
X8678214Y-1870323D01*
X8906786Y-1984609D02*
X8792500Y-1984609D01*
X8849643Y-1984609D02*
X8849643Y-1784609D01*
X8830595Y-1813180D01*
X8811548Y-1832228D01*
X8792500Y-1841752D01*
X8982976Y-1784609D02*
X8982976Y-1822704D01*
X9059167Y-1784609D02*
X9059167Y-1822704D01*
X9354405Y-2060799D02*
X9344881Y-2051276D01*
X9325833Y-2022704D01*
X9316310Y-2003657D01*
X9306786Y-1975085D01*
X9297262Y-1927466D01*
X9297262Y-1889371D01*
X9306786Y-1841752D01*
X9316310Y-1813180D01*
X9325833Y-1794133D01*
X9344881Y-1765561D01*
X9354405Y-1756037D01*
X9411548Y-1784609D02*
X9544881Y-1784609D01*
X9459167Y-1984609D01*
X9611548Y-1803657D02*
X9621071Y-1794133D01*
X9640119Y-1784609D01*
X9687738Y-1784609D01*
X9706786Y-1794133D01*
X9716310Y-1803657D01*
X9725833Y-1822704D01*
X9725833Y-1841752D01*
X9716310Y-1870323D01*
X9602024Y-1984609D01*
X9725833Y-1984609D01*
X9963929Y-1984609D02*
X9963929Y-1784609D01*
X10049643Y-1984609D02*
X10049643Y-1879847D01*
X10040119Y-1860799D01*
X10021071Y-1851276D01*
X9992500Y-1851276D01*
X9973452Y-1860799D01*
X9963929Y-1870323D01*
X10173452Y-1984609D02*
X10154405Y-1975085D01*
X10144881Y-1965561D01*
X10135357Y-1946514D01*
X10135357Y-1889371D01*
X10144881Y-1870323D01*
X10154405Y-1860799D01*
X10173452Y-1851276D01*
X10202024Y-1851276D01*
X10221071Y-1860799D01*
X10230595Y-1870323D01*
X10240119Y-1889371D01*
X10240119Y-1946514D01*
X10230595Y-1965561D01*
X10221071Y-1975085D01*
X10202024Y-1984609D01*
X10173452Y-1984609D01*
X10354405Y-1984609D02*
X10335357Y-1975085D01*
X10325833Y-1956037D01*
X10325833Y-1784609D01*
X10506786Y-1975085D02*
X10487738Y-1984609D01*
X10449643Y-1984609D01*
X10430595Y-1975085D01*
X10421071Y-1956037D01*
X10421071Y-1879847D01*
X10430595Y-1860799D01*
X10449643Y-1851276D01*
X10487738Y-1851276D01*
X10506786Y-1860799D01*
X10516310Y-1879847D01*
X10516310Y-1898895D01*
X10421071Y-1917942D01*
X10592500Y-1975085D02*
X10611548Y-1984609D01*
X10649643Y-1984609D01*
X10668690Y-1975085D01*
X10678214Y-1956037D01*
X10678214Y-1946514D01*
X10668690Y-1927466D01*
X10649643Y-1917942D01*
X10621071Y-1917942D01*
X10602024Y-1908418D01*
X10592500Y-1889371D01*
X10592500Y-1879847D01*
X10602024Y-1860799D01*
X10621071Y-1851276D01*
X10649643Y-1851276D01*
X10668690Y-1860799D01*
X10744881Y-2060799D02*
X10754405Y-2051276D01*
X10773452Y-2022704D01*
X10782976Y-2003657D01*
X10792500Y-1975085D01*
X10802024Y-1927466D01*
X10802024Y-1889371D01*
X10792500Y-1841752D01*
X10782976Y-1813180D01*
X10773452Y-1794133D01*
X10754405Y-1765561D01*
X10744881Y-1756037D01*
X11106786Y-2060799D02*
X11097262Y-2051276D01*
X11078214Y-2022704D01*
X11068690Y-2003657D01*
X11059167Y-1975085D01*
X11049643Y-1927466D01*
X11049643Y-1889371D01*
X11059167Y-1841752D01*
X11068690Y-1813180D01*
X11078214Y-1794133D01*
X11097262Y-1765561D01*
X11106786Y-1756037D01*
X11182976Y-1851276D02*
X11182976Y-1984609D01*
X11182976Y-1870323D02*
X11192500Y-1860799D01*
X11211548Y-1851276D01*
X11240119Y-1851276D01*
X11259167Y-1860799D01*
X11268690Y-1879847D01*
X11268690Y-1984609D01*
X11392500Y-1984609D02*
X11373452Y-1975085D01*
X11363928Y-1965561D01*
X11354405Y-1946514D01*
X11354405Y-1889371D01*
X11363928Y-1870323D01*
X11373452Y-1860799D01*
X11392500Y-1851276D01*
X11421071Y-1851276D01*
X11440119Y-1860799D01*
X11449643Y-1870323D01*
X11459167Y-1889371D01*
X11459167Y-1946514D01*
X11449643Y-1965561D01*
X11440119Y-1975085D01*
X11421071Y-1984609D01*
X11392500Y-1984609D01*
X11516309Y-1851276D02*
X11592500Y-1851276D01*
X11544881Y-1784609D02*
X11544881Y-1956037D01*
X11554405Y-1975085D01*
X11573452Y-1984609D01*
X11592500Y-1984609D01*
X11811548Y-1851276D02*
X11811548Y-2051276D01*
X11811548Y-1860799D02*
X11830595Y-1851276D01*
X11868690Y-1851276D01*
X11887738Y-1860799D01*
X11897262Y-1870323D01*
X11906786Y-1889371D01*
X11906786Y-1946514D01*
X11897262Y-1965561D01*
X11887738Y-1975085D01*
X11868690Y-1984609D01*
X11830595Y-1984609D01*
X11811548Y-1975085D01*
X12021071Y-1984609D02*
X12002024Y-1975085D01*
X11992500Y-1956037D01*
X11992500Y-1784609D01*
X12182976Y-1984609D02*
X12182976Y-1879847D01*
X12173452Y-1860799D01*
X12154405Y-1851276D01*
X12116309Y-1851276D01*
X12097262Y-1860799D01*
X12182976Y-1975085D02*
X12163928Y-1984609D01*
X12116309Y-1984609D01*
X12097262Y-1975085D01*
X12087738Y-1956037D01*
X12087738Y-1936990D01*
X12097262Y-1917942D01*
X12116309Y-1908418D01*
X12163928Y-1908418D01*
X12182976Y-1898895D01*
X12249643Y-1851276D02*
X12325833Y-1851276D01*
X12278214Y-1784609D02*
X12278214Y-1956037D01*
X12287738Y-1975085D01*
X12306786Y-1984609D01*
X12325833Y-1984609D01*
X12468690Y-1975085D02*
X12449643Y-1984609D01*
X12411548Y-1984609D01*
X12392500Y-1975085D01*
X12382976Y-1956037D01*
X12382976Y-1879847D01*
X12392500Y-1860799D01*
X12411548Y-1851276D01*
X12449643Y-1851276D01*
X12468690Y-1860799D01*
X12478214Y-1879847D01*
X12478214Y-1898895D01*
X12382976Y-1917942D01*
X12649643Y-1984609D02*
X12649643Y-1784609D01*
X12649643Y-1975085D02*
X12630595Y-1984609D01*
X12592500Y-1984609D01*
X12573452Y-1975085D01*
X12563928Y-1965561D01*
X12554405Y-1946514D01*
X12554405Y-1889371D01*
X12563928Y-1870323D01*
X12573452Y-1860799D01*
X12592500Y-1851276D01*
X12630595Y-1851276D01*
X12649643Y-1860799D01*
X12725833Y-2060799D02*
X12735357Y-2051276D01*
X12754405Y-2022704D01*
X12763928Y-2003657D01*
X12773452Y-1975085D01*
X12782976Y-1927466D01*
X12782976Y-1889371D01*
X12773452Y-1841752D01*
X12763928Y-1813180D01*
X12754405Y-1794133D01*
X12735357Y-1765561D01*
X12725833Y-1756037D01*
X5582500Y-2114133D02*
X5782500Y-2314133D01*
X5782500Y-2114133D02*
X5582500Y-2314133D01*
X5753211Y-2284844D02*
X5753211Y-2143421D01*
X5611789Y-2143421D01*
X5611789Y-2284844D01*
X5753211Y-2284844D01*
X6021071Y-2104609D02*
X6144881Y-2104609D01*
X6078214Y-2180799D01*
X6106786Y-2180799D01*
X6125833Y-2190323D01*
X6135357Y-2199847D01*
X6144881Y-2218895D01*
X6144881Y-2266514D01*
X6135357Y-2285561D01*
X6125833Y-2295085D01*
X6106786Y-2304609D01*
X6049643Y-2304609D01*
X6030595Y-2295085D01*
X6021071Y-2285561D01*
X6230595Y-2285561D02*
X6240119Y-2295085D01*
X6230595Y-2304609D01*
X6221071Y-2295085D01*
X6230595Y-2285561D01*
X6230595Y-2304609D01*
X6411548Y-2171276D02*
X6411548Y-2304609D01*
X6363928Y-2095085D02*
X6316309Y-2237942D01*
X6440119Y-2237942D01*
X6506786Y-2123657D02*
X6516309Y-2114133D01*
X6535357Y-2104609D01*
X6582976Y-2104609D01*
X6602024Y-2114133D01*
X6611548Y-2123657D01*
X6621071Y-2142704D01*
X6621071Y-2161752D01*
X6611548Y-2190323D01*
X6497262Y-2304609D01*
X6621071Y-2304609D01*
X6716309Y-2304609D02*
X6754405Y-2304609D01*
X6773452Y-2295085D01*
X6782976Y-2285561D01*
X6802024Y-2256990D01*
X6811548Y-2218895D01*
X6811548Y-2142704D01*
X6802024Y-2123657D01*
X6792500Y-2114133D01*
X6773452Y-2104609D01*
X6735357Y-2104609D01*
X6716309Y-2114133D01*
X6706786Y-2123657D01*
X6697262Y-2142704D01*
X6697262Y-2190323D01*
X6706786Y-2209371D01*
X6716309Y-2218895D01*
X6735357Y-2228419D01*
X6773452Y-2228419D01*
X6792500Y-2218895D01*
X6802024Y-2209371D01*
X6811548Y-2190323D01*
X6897262Y-2304609D02*
X6897262Y-2171276D01*
X6897262Y-2190323D02*
X6906786Y-2180799D01*
X6925833Y-2171276D01*
X6954405Y-2171276D01*
X6973452Y-2180799D01*
X6982976Y-2199847D01*
X6982976Y-2304609D01*
X6982976Y-2199847D02*
X6992500Y-2180799D01*
X7011548Y-2171276D01*
X7040119Y-2171276D01*
X7059167Y-2180799D01*
X7068690Y-2199847D01*
X7068690Y-2304609D01*
X7163928Y-2304609D02*
X7163928Y-2171276D01*
X7163928Y-2190323D02*
X7173452Y-2180799D01*
X7192500Y-2171276D01*
X7221071Y-2171276D01*
X7240119Y-2180799D01*
X7249643Y-2199847D01*
X7249643Y-2304609D01*
X7249643Y-2199847D02*
X7259167Y-2180799D01*
X7278214Y-2171276D01*
X7306786Y-2171276D01*
X7325833Y-2180799D01*
X7335357Y-2199847D01*
X7335357Y-2304609D01*
X7725833Y-2095085D02*
X7554405Y-2352228D01*
X7982976Y-2104609D02*
X8002024Y-2104609D01*
X8021071Y-2114133D01*
X8030595Y-2123657D01*
X8040119Y-2142704D01*
X8049643Y-2180799D01*
X8049643Y-2228419D01*
X8040119Y-2266514D01*
X8030595Y-2285561D01*
X8021071Y-2295085D01*
X8002024Y-2304609D01*
X7982976Y-2304609D01*
X7963928Y-2295085D01*
X7954405Y-2285561D01*
X7944881Y-2266514D01*
X7935357Y-2228419D01*
X7935357Y-2180799D01*
X7944881Y-2142704D01*
X7954405Y-2123657D01*
X7963928Y-2114133D01*
X7982976Y-2104609D01*
X8135357Y-2285561D02*
X8144881Y-2295085D01*
X8135357Y-2304609D01*
X8125833Y-2295085D01*
X8135357Y-2285561D01*
X8135357Y-2304609D01*
X8335357Y-2304609D02*
X8221071Y-2304609D01*
X8278214Y-2304609D02*
X8278214Y-2104609D01*
X8259167Y-2133180D01*
X8240119Y-2152228D01*
X8221071Y-2161752D01*
X8402024Y-2104609D02*
X8525833Y-2104609D01*
X8459167Y-2180799D01*
X8487738Y-2180799D01*
X8506786Y-2190323D01*
X8516310Y-2199847D01*
X8525833Y-2218895D01*
X8525833Y-2266514D01*
X8516310Y-2285561D01*
X8506786Y-2295085D01*
X8487738Y-2304609D01*
X8430595Y-2304609D01*
X8411548Y-2295085D01*
X8402024Y-2285561D01*
X8706786Y-2104609D02*
X8611548Y-2104609D01*
X8602024Y-2199847D01*
X8611548Y-2190323D01*
X8630595Y-2180799D01*
X8678214Y-2180799D01*
X8697262Y-2190323D01*
X8706786Y-2199847D01*
X8716310Y-2218895D01*
X8716310Y-2266514D01*
X8706786Y-2285561D01*
X8697262Y-2295085D01*
X8678214Y-2304609D01*
X8630595Y-2304609D01*
X8611548Y-2295085D01*
X8602024Y-2285561D01*
X8840119Y-2104609D02*
X8859167Y-2104609D01*
X8878214Y-2114133D01*
X8887738Y-2123657D01*
X8897262Y-2142704D01*
X8906786Y-2180799D01*
X8906786Y-2228419D01*
X8897262Y-2266514D01*
X8887738Y-2285561D01*
X8878214Y-2295085D01*
X8859167Y-2304609D01*
X8840119Y-2304609D01*
X8821071Y-2295085D01*
X8811548Y-2285561D01*
X8802024Y-2266514D01*
X8792500Y-2228419D01*
X8792500Y-2180799D01*
X8802024Y-2142704D01*
X8811548Y-2123657D01*
X8821071Y-2114133D01*
X8840119Y-2104609D01*
X8982976Y-2104609D02*
X8982976Y-2142704D01*
X9059167Y-2104609D02*
X9059167Y-2142704D01*
X9354405Y-2380799D02*
X9344881Y-2371276D01*
X9325833Y-2342704D01*
X9316310Y-2323657D01*
X9306786Y-2295085D01*
X9297262Y-2247466D01*
X9297262Y-2209371D01*
X9306786Y-2161752D01*
X9316310Y-2133180D01*
X9325833Y-2114133D01*
X9344881Y-2085561D01*
X9354405Y-2076037D01*
X9411548Y-2104609D02*
X9535357Y-2104609D01*
X9468690Y-2180799D01*
X9497262Y-2180799D01*
X9516310Y-2190323D01*
X9525833Y-2199847D01*
X9535357Y-2218895D01*
X9535357Y-2266514D01*
X9525833Y-2285561D01*
X9516310Y-2295085D01*
X9497262Y-2304609D01*
X9440119Y-2304609D01*
X9421071Y-2295085D01*
X9411548Y-2285561D01*
X9706786Y-2104609D02*
X9668690Y-2104609D01*
X9649643Y-2114133D01*
X9640119Y-2123657D01*
X9621071Y-2152228D01*
X9611548Y-2190323D01*
X9611548Y-2266514D01*
X9621071Y-2285561D01*
X9630595Y-2295085D01*
X9649643Y-2304609D01*
X9687738Y-2304609D01*
X9706786Y-2295085D01*
X9716310Y-2285561D01*
X9725833Y-2266514D01*
X9725833Y-2218895D01*
X9716310Y-2199847D01*
X9706786Y-2190323D01*
X9687738Y-2180799D01*
X9649643Y-2180799D01*
X9630595Y-2190323D01*
X9621071Y-2199847D01*
X9611548Y-2218895D01*
X9963929Y-2304609D02*
X9963929Y-2104609D01*
X10049643Y-2304609D02*
X10049643Y-2199847D01*
X10040119Y-2180799D01*
X10021071Y-2171276D01*
X9992500Y-2171276D01*
X9973452Y-2180799D01*
X9963929Y-2190323D01*
X10173452Y-2304609D02*
X10154405Y-2295085D01*
X10144881Y-2285561D01*
X10135357Y-2266514D01*
X10135357Y-2209371D01*
X10144881Y-2190323D01*
X10154405Y-2180799D01*
X10173452Y-2171276D01*
X10202024Y-2171276D01*
X10221071Y-2180799D01*
X10230595Y-2190323D01*
X10240119Y-2209371D01*
X10240119Y-2266514D01*
X10230595Y-2285561D01*
X10221071Y-2295085D01*
X10202024Y-2304609D01*
X10173452Y-2304609D01*
X10354405Y-2304609D02*
X10335357Y-2295085D01*
X10325833Y-2276038D01*
X10325833Y-2104609D01*
X10506786Y-2295085D02*
X10487738Y-2304609D01*
X10449643Y-2304609D01*
X10430595Y-2295085D01*
X10421071Y-2276038D01*
X10421071Y-2199847D01*
X10430595Y-2180799D01*
X10449643Y-2171276D01*
X10487738Y-2171276D01*
X10506786Y-2180799D01*
X10516310Y-2199847D01*
X10516310Y-2218895D01*
X10421071Y-2237942D01*
X10592500Y-2295085D02*
X10611548Y-2304609D01*
X10649643Y-2304609D01*
X10668690Y-2295085D01*
X10678214Y-2276038D01*
X10678214Y-2266514D01*
X10668690Y-2247466D01*
X10649643Y-2237942D01*
X10621071Y-2237942D01*
X10602024Y-2228419D01*
X10592500Y-2209371D01*
X10592500Y-2199847D01*
X10602024Y-2180799D01*
X10621071Y-2171276D01*
X10649643Y-2171276D01*
X10668690Y-2180799D01*
X10744881Y-2380799D02*
X10754405Y-2371276D01*
X10773452Y-2342704D01*
X10782976Y-2323657D01*
X10792500Y-2295085D01*
X10802024Y-2247466D01*
X10802024Y-2209371D01*
X10792500Y-2161752D01*
X10782976Y-2133180D01*
X10773452Y-2114133D01*
X10754405Y-2085561D01*
X10744881Y-2076037D01*
X11106786Y-2380799D02*
X11097262Y-2371276D01*
X11078214Y-2342704D01*
X11068690Y-2323657D01*
X11059167Y-2295085D01*
X11049643Y-2247466D01*
X11049643Y-2209371D01*
X11059167Y-2161752D01*
X11068690Y-2133180D01*
X11078214Y-2114133D01*
X11097262Y-2085561D01*
X11106786Y-2076037D01*
X11182976Y-2171276D02*
X11182976Y-2304609D01*
X11182976Y-2190323D02*
X11192500Y-2180799D01*
X11211548Y-2171276D01*
X11240119Y-2171276D01*
X11259167Y-2180799D01*
X11268690Y-2199847D01*
X11268690Y-2304609D01*
X11392500Y-2304609D02*
X11373452Y-2295085D01*
X11363928Y-2285561D01*
X11354405Y-2266514D01*
X11354405Y-2209371D01*
X11363928Y-2190323D01*
X11373452Y-2180799D01*
X11392500Y-2171276D01*
X11421071Y-2171276D01*
X11440119Y-2180799D01*
X11449643Y-2190323D01*
X11459167Y-2209371D01*
X11459167Y-2266514D01*
X11449643Y-2285561D01*
X11440119Y-2295085D01*
X11421071Y-2304609D01*
X11392500Y-2304609D01*
X11516309Y-2171276D02*
X11592500Y-2171276D01*
X11544881Y-2104609D02*
X11544881Y-2276038D01*
X11554405Y-2295085D01*
X11573452Y-2304609D01*
X11592500Y-2304609D01*
X11811548Y-2171276D02*
X11811548Y-2371276D01*
X11811548Y-2180799D02*
X11830595Y-2171276D01*
X11868690Y-2171276D01*
X11887738Y-2180799D01*
X11897262Y-2190323D01*
X11906786Y-2209371D01*
X11906786Y-2266514D01*
X11897262Y-2285561D01*
X11887738Y-2295085D01*
X11868690Y-2304609D01*
X11830595Y-2304609D01*
X11811548Y-2295085D01*
X12021071Y-2304609D02*
X12002024Y-2295085D01*
X11992500Y-2276038D01*
X11992500Y-2104609D01*
X12182976Y-2304609D02*
X12182976Y-2199847D01*
X12173452Y-2180799D01*
X12154405Y-2171276D01*
X12116309Y-2171276D01*
X12097262Y-2180799D01*
X12182976Y-2295085D02*
X12163928Y-2304609D01*
X12116309Y-2304609D01*
X12097262Y-2295085D01*
X12087738Y-2276038D01*
X12087738Y-2256990D01*
X12097262Y-2237942D01*
X12116309Y-2228419D01*
X12163928Y-2228419D01*
X12182976Y-2218895D01*
X12249643Y-2171276D02*
X12325833Y-2171276D01*
X12278214Y-2104609D02*
X12278214Y-2276038D01*
X12287738Y-2295085D01*
X12306786Y-2304609D01*
X12325833Y-2304609D01*
X12468690Y-2295085D02*
X12449643Y-2304609D01*
X12411548Y-2304609D01*
X12392500Y-2295085D01*
X12382976Y-2276038D01*
X12382976Y-2199847D01*
X12392500Y-2180799D01*
X12411548Y-2171276D01*
X12449643Y-2171276D01*
X12468690Y-2180799D01*
X12478214Y-2199847D01*
X12478214Y-2218895D01*
X12382976Y-2237942D01*
X12649643Y-2304609D02*
X12649643Y-2104609D01*
X12649643Y-2295085D02*
X12630595Y-2304609D01*
X12592500Y-2304609D01*
X12573452Y-2295085D01*
X12563928Y-2285561D01*
X12554405Y-2266514D01*
X12554405Y-2209371D01*
X12563928Y-2190323D01*
X12573452Y-2180799D01*
X12592500Y-2171276D01*
X12630595Y-2171276D01*
X12649643Y-2180799D01*
X12725833Y-2380799D02*
X12735357Y-2371276D01*
X12754405Y-2342704D01*
X12763928Y-2323657D01*
X12773452Y-2295085D01*
X12782976Y-2247466D01*
X12782976Y-2209371D01*
X12773452Y-2161752D01*
X12763928Y-2133180D01*
X12754405Y-2114133D01*
X12735357Y-2085561D01*
X12725833Y-2076037D01*
M02*
