M48
; DRILL file {KiCad (6.0.5)} date Sat Sep 17 13:25:25 2022
; FORMAT={-:-/ absolute / metric / decimal}
; #@! TF.CreationDate,2022-09-17T13:25:25+02:00
; #@! TF.GenerationSoftware,Kicad,Pcbnew,(6.0.5)
; #@! TF.FileFunction,MixedPlating,1,2
FMAT,2
METRIC
; #@! TA.AperFunction,Plated,PTH,ViaDrill
T1C0.400
; #@! TA.AperFunction,Plated,PTH,ComponentDrill
T2C0.800
; #@! TA.AperFunction,Plated,PTH,ComponentDrill
T3C1.092
; #@! TA.AperFunction,Plated,PTH,ComponentDrill
T4C1.270
; #@! TA.AperFunction,NonPlated,NPTH,ComponentDrill
T5C0.900
; #@! TA.AperFunction,NonPlated,NPTH,ComponentDrill
T6C1.702
; #@! TA.AperFunction,NonPlated,NPTH,ComponentDrill
T7C3.000
; #@! TA.AperFunction,NonPlated,NPTH,ComponentDrill
T8C3.429
%
G90
G05
T1
X159.169Y45.711
X159.782Y93.958
X159.955Y90.521
T2
X159.0Y59.667
X161.0Y59.667
T3
X152.38Y92.637
X152.38Y90.097
X152.38Y87.557
X152.38Y85.017
X152.38Y82.477
X152.38Y79.937
X152.38Y77.397
X152.38Y74.857
X152.38Y72.317
X152.38Y69.777
X152.38Y67.237
X152.38Y64.697
X167.62Y92.637
X167.62Y90.097
X167.62Y87.557
X167.62Y85.017
X167.62Y82.477
X167.62Y79.937
X167.62Y77.397
X167.62Y74.857
X167.62Y72.317
X167.62Y69.777
X167.62Y67.237
X167.62Y64.697
T4
X63.0Y80.2
X63.0Y63.2
X63.0Y46.2
X68.0Y78.1
X68.0Y78.1
X68.0Y61.1
X68.0Y61.1
X68.0Y44.1
X68.0Y44.1
X73.0Y80.2
X73.0Y63.2
X73.0Y46.2
X81.0Y88.7
X81.0Y71.7
X81.0Y54.7
X86.0Y86.6
X86.0Y86.6
X86.0Y69.6
X86.0Y69.6
X86.0Y52.6
X86.0Y52.6
X91.0Y88.7
X91.0Y71.7
X91.0Y54.7
X99.0Y94.367
X99.0Y77.367
X99.0Y60.367
X104.0Y92.267
X104.0Y92.267
X104.0Y75.267
X104.0Y75.267
X104.0Y58.267
X104.0Y58.267
X109.0Y94.367
X109.0Y77.367
X109.0Y60.367
X117.0Y88.7
X117.0Y71.7
X117.0Y54.7
X119.267Y34.112
X122.0Y86.6
X122.0Y86.6
X122.0Y69.6
X122.0Y69.6
X122.0Y52.6
X122.0Y52.6
X123.553Y30.79
X123.553Y30.79
X127.0Y88.7
X127.0Y71.7
X127.0Y54.7
X128.926Y31.524
X135.0Y85.867
X135.0Y68.867
X135.0Y51.867
X137.387Y28.019
X140.0Y83.767
X140.0Y83.767
X140.0Y66.767
X140.0Y66.767
X140.0Y49.767
X140.0Y49.767
X140.668Y23.701
X140.668Y23.701
X145.0Y85.867
X145.0Y68.867
X145.0Y51.867
X146.048Y23.019
X153.314Y17.444
X155.364Y12.424
X155.364Y12.424
X160.385Y10.373
T5
X158.5Y94.667
X158.5Y94.667
X161.5Y94.667
X161.5Y94.667
T6
X62.5Y84.0
X62.5Y84.0
X62.5Y67.0
X62.5Y67.0
X62.5Y50.0
X62.5Y50.0
X73.5Y84.0
X73.5Y84.0
X73.5Y67.0
X73.5Y67.0
X73.5Y50.0
X73.5Y50.0
X80.5Y92.5
X80.5Y92.5
X80.5Y75.5
X80.5Y75.5
X80.5Y58.5
X80.5Y58.5
X91.5Y92.5
X91.5Y92.5
X91.5Y75.5
X91.5Y75.5
X91.5Y58.5
X91.5Y58.5
X98.5Y98.167
X98.5Y98.167
X98.5Y81.167
X98.5Y81.167
X98.5Y64.167
X98.5Y64.167
X109.5Y98.167
X109.5Y98.167
X109.5Y81.167
X109.5Y81.167
X109.5Y64.167
X109.5Y64.167
X116.5Y92.5
X116.5Y92.5
X116.5Y75.5
X116.5Y75.5
X116.5Y58.5
X116.5Y58.5
X119.767Y37.912
X119.767Y37.912
X127.5Y92.5
X127.5Y92.5
X127.5Y75.5
X127.5Y75.5
X127.5Y58.5
X127.5Y58.5
X130.393Y35.065
X130.393Y35.065
X134.5Y89.667
X134.5Y89.667
X134.5Y72.667
X134.5Y72.667
X134.5Y55.667
X134.5Y55.667
X138.854Y31.56
X138.854Y31.56
X145.5Y89.667
X145.5Y89.667
X145.5Y72.667
X145.5Y72.667
X145.5Y55.667
X145.5Y55.667
X148.381Y26.06
X148.381Y26.06
X155.647Y20.485
X155.647Y20.485
X163.425Y12.707
X163.425Y12.707
T7
X63.0Y87.75
X63.0Y70.75
X63.0Y53.75
X68.0Y89.95
X68.0Y89.95
X68.0Y72.95
X68.0Y72.95
X68.0Y55.95
X68.0Y55.95
X73.0Y87.75
X73.0Y70.75
X73.0Y53.75
X81.0Y96.25
X81.0Y79.25
X81.0Y62.25
X86.0Y98.45
X86.0Y98.45
X86.0Y81.45
X86.0Y81.45
X86.0Y64.45
X86.0Y64.45
X91.0Y96.25
X91.0Y79.25
X91.0Y62.25
X99.0Y101.917
X99.0Y84.917
X99.0Y67.917
X104.0Y104.117
X104.0Y104.117
X104.0Y87.117
X104.0Y87.117
X104.0Y70.117
X104.0Y70.117
X109.0Y101.917
X109.0Y84.917
X109.0Y67.917
X117.0Y96.25
X117.0Y79.25
X117.0Y62.25
X121.221Y41.405
X122.0Y98.45
X122.0Y98.45
X122.0Y81.45
X122.0Y81.45
X122.0Y64.45
X122.0Y64.45
X126.62Y42.236
X126.62Y42.236
X127.0Y96.25
X127.0Y79.25
X127.0Y62.25
X130.88Y38.817
X135.0Y93.417
X135.0Y76.417
X135.0Y59.417
X140.0Y95.617
X140.0Y95.617
X140.0Y78.617
X140.0Y78.617
X140.0Y61.617
X140.0Y61.617
X141.162Y34.558
X145.0Y93.417
X145.0Y76.417
X145.0Y59.417
X146.593Y33.963
X146.593Y33.963
X149.823Y29.558
X158.652Y22.783
X163.743Y20.803
X163.743Y20.803
X165.723Y15.712
T8
X68.0Y84.0
X68.0Y84.0
X68.0Y67.0
X68.0Y67.0
X68.0Y50.0
X68.0Y50.0
X86.0Y92.5
X86.0Y92.5
X86.0Y75.5
X86.0Y75.5
X86.0Y58.5
X86.0Y58.5
X104.0Y98.167
X104.0Y98.167
X104.0Y81.167
X104.0Y81.167
X104.0Y64.167
X104.0Y64.167
X122.0Y92.5
X122.0Y92.5
X122.0Y75.5
X122.0Y75.5
X122.0Y58.5
X122.0Y58.5
X125.08Y36.489
X125.08Y36.489
X140.0Y89.667
X140.0Y89.667
X140.0Y72.667
X140.0Y72.667
X140.0Y55.667
X140.0Y55.667
X143.618Y28.81
X143.618Y28.81
X159.536Y16.596
X159.536Y16.596
T0
M30
