%TF.GenerationSoftware,KiCad,Pcbnew,(6.0.5)*%
%TF.CreationDate,2022-09-17T13:25:28+02:00*%
%TF.ProjectId,rae_dux_no_splay,7261655f-6475-4785-9f6e-6f5f73706c61,v1.0.0*%
%TF.SameCoordinates,Original*%
%TF.FileFunction,Soldermask,Bot*%
%TF.FilePolarity,Negative*%
%FSLAX46Y46*%
G04 Gerber Fmt 4.6, Leading zero omitted, Abs format (unit mm)*
G04 Created by KiCad (PCBNEW (6.0.5)) date 2022-09-17 13:25:28*
%MOMM*%
%LPD*%
G01*
G04 APERTURE LIST*
G04 Aperture macros list*
%AMRoundRect*
0 Rectangle with rounded corners*
0 $1 Rounding radius*
0 $2 $3 $4 $5 $6 $7 $8 $9 X,Y pos of 4 corners*
0 Add a 4 corners polygon primitive as box body*
4,1,4,$2,$3,$4,$5,$6,$7,$8,$9,$2,$3,0*
0 Add four circle primitives for the rounded corners*
1,1,$1+$1,$2,$3*
1,1,$1+$1,$4,$5*
1,1,$1+$1,$6,$7*
1,1,$1+$1,$8,$9*
0 Add four rect primitives between the rounded corners*
20,1,$1+$1,$2,$3,$4,$5,0*
20,1,$1+$1,$4,$5,$6,$7,0*
20,1,$1+$1,$6,$7,$8,$9,0*
20,1,$1+$1,$8,$9,$2,$3,0*%
G04 Aperture macros list end*
%ADD10C,3.529000*%
%ADD11C,1.801800*%
%ADD12C,3.100000*%
%ADD13RoundRect,0.050000X-1.300000X-1.300000X1.300000X-1.300000X1.300000X1.300000X-1.300000X1.300000X0*%
%ADD14C,2.132000*%
%ADD15RoundRect,0.050000X-1.592168X-0.919239X0.919239X-1.592168X1.592168X0.919239X-0.919239X1.592168X0*%
%ADD16RoundRect,0.050000X-1.775833X-0.475833X0.475833X-1.775833X1.775833X0.475833X-0.475833X1.775833X0*%
%ADD17RoundRect,0.050000X-1.838478X0.000000X0.000000X-1.838478X1.838478X0.000000X0.000000X1.838478X0*%
%ADD18RoundRect,0.050000X-0.876300X0.876300X-0.876300X-0.876300X0.876300X-0.876300X0.876300X0.876300X0*%
%ADD19C,1.852600*%
%ADD20C,1.100000*%
%ADD21RoundRect,0.050000X-0.450000X-0.625000X0.450000X-0.625000X0.450000X0.625000X-0.450000X0.625000X0*%
%ADD22RoundRect,0.050000X-0.450000X-0.450000X0.450000X-0.450000X0.450000X0.450000X-0.450000X0.450000X0*%
%ADD23C,1.408000*%
%ADD24RoundRect,0.050000X-0.654000X-0.654000X0.654000X-0.654000X0.654000X0.654000X-0.654000X0.654000X0*%
%ADD25RoundRect,0.050000X0.500000X-0.725000X0.500000X0.725000X-0.500000X0.725000X-0.500000X-0.725000X0*%
G04 APERTURE END LIST*
D10*
X68000000Y50000000D03*
D11*
X73500000Y50000000D03*
X62500000Y50000000D03*
D12*
X73000000Y53750000D03*
X68000000Y55950000D03*
D13*
X64725000Y55950000D03*
X76275000Y53750000D03*
D12*
X63000000Y53750000D03*
X68000000Y55950000D03*
D10*
X68000000Y50000000D03*
D11*
X62500000Y50000000D03*
X73500000Y50000000D03*
D14*
X63000000Y46200000D03*
X68000000Y44100000D03*
X73000000Y46200000D03*
X68000000Y44100000D03*
D10*
X68000000Y67000000D03*
D11*
X73500000Y67000000D03*
X62500000Y67000000D03*
D12*
X73000000Y70750000D03*
X68000000Y72950000D03*
D13*
X64725000Y72950000D03*
X76275000Y70750000D03*
D12*
X63000000Y70750000D03*
X68000000Y72950000D03*
D10*
X68000000Y67000000D03*
D11*
X62500000Y67000000D03*
X73500000Y67000000D03*
D14*
X63000000Y63200000D03*
X68000000Y61100000D03*
X73000000Y63200000D03*
X68000000Y61100000D03*
D10*
X68000000Y84000000D03*
D11*
X73500000Y84000000D03*
X62500000Y84000000D03*
D12*
X73000000Y87750000D03*
X68000000Y89950000D03*
D13*
X64725000Y89950000D03*
X76275000Y87750000D03*
D12*
X63000000Y87750000D03*
X68000000Y89950000D03*
D10*
X68000000Y84000000D03*
D11*
X62500000Y84000000D03*
X73500000Y84000000D03*
D14*
X63000000Y80200000D03*
X68000000Y78100000D03*
X73000000Y80200000D03*
X68000000Y78100000D03*
D10*
X86000000Y58500000D03*
D11*
X91500000Y58500000D03*
X80500000Y58500000D03*
D12*
X91000000Y62250000D03*
X86000000Y64450000D03*
D13*
X82725000Y64450000D03*
X94275000Y62250000D03*
D12*
X81000000Y62250000D03*
X86000000Y64450000D03*
D10*
X86000000Y58500000D03*
D11*
X80500000Y58500000D03*
X91500000Y58500000D03*
D14*
X81000000Y54700000D03*
X86000000Y52600000D03*
X91000000Y54700000D03*
X86000000Y52600000D03*
D10*
X86000000Y75500000D03*
D11*
X91500000Y75500000D03*
X80500000Y75500000D03*
D12*
X91000000Y79250000D03*
X86000000Y81450000D03*
D13*
X82725000Y81450000D03*
X94275000Y79250000D03*
D12*
X81000000Y79250000D03*
X86000000Y81450000D03*
D10*
X86000000Y75500000D03*
D11*
X80500000Y75500000D03*
X91500000Y75500000D03*
D14*
X81000000Y71700000D03*
X86000000Y69600000D03*
X91000000Y71700000D03*
X86000000Y69600000D03*
D10*
X86000000Y92500000D03*
D11*
X91500000Y92500000D03*
X80500000Y92500000D03*
D12*
X91000000Y96250000D03*
X86000000Y98450000D03*
D13*
X82725000Y98450000D03*
X94275000Y96250000D03*
D12*
X81000000Y96250000D03*
X86000000Y98450000D03*
D10*
X86000000Y92500000D03*
D11*
X80500000Y92500000D03*
X91500000Y92500000D03*
D14*
X81000000Y88700000D03*
X86000000Y86600000D03*
X91000000Y88700000D03*
X86000000Y86600000D03*
D10*
X104000000Y64166667D03*
D11*
X109500000Y64166667D03*
X98500000Y64166667D03*
D12*
X109000000Y67916667D03*
X104000000Y70116667D03*
D13*
X100725000Y70116667D03*
X112275000Y67916667D03*
D12*
X99000000Y67916667D03*
X104000000Y70116667D03*
D10*
X104000000Y64166667D03*
D11*
X98500000Y64166667D03*
X109500000Y64166667D03*
D14*
X99000000Y60366667D03*
X104000000Y58266667D03*
X109000000Y60366667D03*
X104000000Y58266667D03*
D10*
X104000000Y81166667D03*
D11*
X109500000Y81166667D03*
X98500000Y81166667D03*
D12*
X109000000Y84916667D03*
X104000000Y87116667D03*
D13*
X100725000Y87116667D03*
X112275000Y84916667D03*
D12*
X99000000Y84916667D03*
X104000000Y87116667D03*
D10*
X104000000Y81166667D03*
D11*
X98500000Y81166667D03*
X109500000Y81166667D03*
D14*
X99000000Y77366667D03*
X104000000Y75266667D03*
X109000000Y77366667D03*
X104000000Y75266667D03*
D10*
X104000000Y98166667D03*
D11*
X109500000Y98166667D03*
X98500000Y98166667D03*
D12*
X109000000Y101916667D03*
X104000000Y104116667D03*
D13*
X100725000Y104116667D03*
X112275000Y101916667D03*
D12*
X99000000Y101916667D03*
X104000000Y104116667D03*
D10*
X104000000Y98166667D03*
D11*
X98500000Y98166667D03*
X109500000Y98166667D03*
D14*
X99000000Y94366667D03*
X104000000Y92266667D03*
X109000000Y94366667D03*
X104000000Y92266667D03*
D10*
X122000000Y58500000D03*
D11*
X127500000Y58500000D03*
X116500000Y58500000D03*
D12*
X127000000Y62250000D03*
X122000000Y64450000D03*
D13*
X118725000Y64450000D03*
X130275000Y62250000D03*
D12*
X117000000Y62250000D03*
X122000000Y64450000D03*
D10*
X122000000Y58500000D03*
D11*
X116500000Y58500000D03*
X127500000Y58500000D03*
D14*
X117000000Y54700000D03*
X122000000Y52600000D03*
X127000000Y54700000D03*
X122000000Y52600000D03*
D10*
X122000000Y75500000D03*
D11*
X127500000Y75500000D03*
X116500000Y75500000D03*
D12*
X127000000Y79250000D03*
X122000000Y81450000D03*
D13*
X118725000Y81450000D03*
X130275000Y79250000D03*
D12*
X117000000Y79250000D03*
X122000000Y81450000D03*
D10*
X122000000Y75500000D03*
D11*
X116500000Y75500000D03*
X127500000Y75500000D03*
D14*
X117000000Y71700000D03*
X122000000Y69600000D03*
X127000000Y71700000D03*
X122000000Y69600000D03*
D10*
X122000000Y92500000D03*
D11*
X127500000Y92500000D03*
X116500000Y92500000D03*
D12*
X127000000Y96250000D03*
X122000000Y98450000D03*
D13*
X118725000Y98450000D03*
X130275000Y96250000D03*
D12*
X117000000Y96250000D03*
X122000000Y98450000D03*
D10*
X122000000Y92500000D03*
D11*
X116500000Y92500000D03*
X127500000Y92500000D03*
D14*
X117000000Y88700000D03*
X122000000Y86600000D03*
X127000000Y88700000D03*
X122000000Y86600000D03*
D10*
X140000000Y55666667D03*
D11*
X145500000Y55666667D03*
X134500000Y55666667D03*
D12*
X145000000Y59416667D03*
X140000000Y61616667D03*
D13*
X136725000Y61616667D03*
X148275000Y59416667D03*
D12*
X135000000Y59416667D03*
X140000000Y61616667D03*
D10*
X140000000Y55666667D03*
D11*
X134500000Y55666667D03*
X145500000Y55666667D03*
D14*
X135000000Y51866667D03*
X140000000Y49766667D03*
X145000000Y51866667D03*
X140000000Y49766667D03*
D10*
X140000000Y72666667D03*
D11*
X145500000Y72666667D03*
X134500000Y72666667D03*
D12*
X145000000Y76416667D03*
X140000000Y78616667D03*
D13*
X136725000Y78616667D03*
X148275000Y76416667D03*
D12*
X135000000Y76416667D03*
X140000000Y78616667D03*
D10*
X140000000Y72666667D03*
D11*
X134500000Y72666667D03*
X145500000Y72666667D03*
D14*
X135000000Y68866667D03*
X140000000Y66766667D03*
X145000000Y68866667D03*
X140000000Y66766667D03*
D10*
X140000000Y89666667D03*
D11*
X145500000Y89666667D03*
X134500000Y89666667D03*
D12*
X145000000Y93416667D03*
X140000000Y95616667D03*
D13*
X136725000Y95616667D03*
X148275000Y93416667D03*
D12*
X135000000Y93416667D03*
X140000000Y95616667D03*
D10*
X140000000Y89666667D03*
D11*
X134500000Y89666667D03*
X145500000Y89666667D03*
D14*
X135000000Y85866667D03*
X140000000Y83766667D03*
X145000000Y85866667D03*
X140000000Y83766667D03*
D10*
X125079959Y36488922D03*
D11*
X130392551Y35065417D03*
X119767367Y37912427D03*
D12*
X130880160Y38817049D03*
X126619932Y42236181D03*
D15*
X123456525Y43083813D03*
X134043567Y37969416D03*
D12*
X121220901Y41405239D03*
X126619932Y42236181D03*
D10*
X125079959Y36488922D03*
D11*
X119767367Y37912427D03*
X130392551Y35065417D03*
D14*
X119266817Y34112499D03*
X123552927Y30789960D03*
X128926076Y31524309D03*
X123552927Y30789960D03*
D10*
X143617558Y28810397D03*
D11*
X148380698Y26060397D03*
X138854418Y31560397D03*
D12*
X149822685Y29557992D03*
X146592558Y33963248D03*
D16*
X143756325Y35600748D03*
X152658918Y27920492D03*
D12*
X141162431Y34557992D03*
X146592558Y33963248D03*
D10*
X143617558Y28810397D03*
D11*
X138854418Y31560397D03*
X148380698Y26060397D03*
D14*
X137387431Y28019500D03*
X140667558Y23700847D03*
X146047685Y23019500D03*
X140667558Y23700847D03*
D10*
X159536156Y16595628D03*
D11*
X163425243Y12706541D03*
X155647069Y20484715D03*
D12*
X165723340Y15711745D03*
X163743441Y20802913D03*
D17*
X161427667Y23118688D03*
X168039115Y13395970D03*
D12*
X158652273Y22782812D03*
X163743441Y20802913D03*
D10*
X159536156Y16595628D03*
D11*
X155647069Y20484715D03*
X163425243Y12706541D03*
D14*
X153313616Y17444156D03*
X155364226Y12423698D03*
X160384684Y10373088D03*
X155364226Y12423698D03*
D18*
X152380000Y92636667D03*
D19*
X152380000Y90096667D03*
X152380000Y87556667D03*
X152380000Y85016667D03*
X152380000Y82476667D03*
X152380000Y79936667D03*
X152380000Y77396667D03*
X152380000Y74856667D03*
X152380000Y72316667D03*
X152380000Y69776667D03*
X152380000Y67236667D03*
X152380000Y64696667D03*
X167620000Y92636667D03*
X167620000Y90096667D03*
X167620000Y87556667D03*
X167620000Y85016667D03*
X167620000Y82476667D03*
X167620000Y79936667D03*
X167620000Y77396667D03*
X167620000Y74856667D03*
X167620000Y72316667D03*
X167620000Y69776667D03*
X167620000Y67236667D03*
X167620000Y64696667D03*
D20*
X161500000Y94666667D03*
X158500000Y94666667D03*
X161500000Y94666667D03*
X158500000Y94666667D03*
D21*
X157750000Y92591667D03*
X160750000Y92591667D03*
X162250000Y92591667D03*
D22*
X163700000Y95766667D03*
X163700000Y93566667D03*
X156300000Y93566667D03*
X156300000Y95766667D03*
D23*
X161000000Y59666667D03*
D24*
X159000000Y59666667D03*
D25*
X159150000Y43091667D03*
X159150000Y48241667D03*
X160850000Y43091667D03*
X160850000Y48241667D03*
M02*
