0
SECTION
2
HEADER
9
$INSUNITS
70
4
0
ENDSEC
0
SECTION
2
TABLES
0
TABLE
2
LTYPE
0
LTYPE
72
65
70
64
2
CONTINUOUS
3
______
73
0
40
0
0
ENDTAB
0
TABLE
2
LAYER
0
ENDTAB
0
ENDSEC
0
SECTION
2
ENTITIES
0
LINE
8
0
10
59.9
20
40.4
11
76.3160823
21
40.4
0
LINE
8
0
10
57.9
20
42.4
11
57.9
21
91.6
0
LINE
8
0
10
59.9
20
93.6
11
73.9
21
93.6
0
LINE
8
0
10
77.9
20
102.1
11
91.9
21
102.1
0
LINE
8
0
10
75.9
20
95.6
11
75.9
21
100.1
0
LINE
8
0
10
95.9
20
107.7666667
11
112.1
21
107.7666667
0
LINE
8
0
10
114.1
20
105.7666667
11
114.1
21
104.1
0
LINE
8
0
10
93.9
20
104.1
11
93.9
21
105.7666667
0
LINE
8
0
10
116.1
20
102.1
11
130.1
21
102.1
0
LINE
8
0
10
132.1
20
100.1
11
132.1
21
99.2666667
0
LINE
8
0
10
132.1
20
99.2666667
11
148.1
21
99.2666667
0
ARC
8
0
10
159.889709
20
5.6354726
40
2
50
225
51
315
0
LINE
8
0
10
161.3039226
20
4.221259
11
171.9105243
21
14.8278607
0
ARC
8
0
10
170.4963107
20
16.2420743
40
2
50
315
51
45
0
ARC
8
0
10
59.9
20
42.4
40
2
50
180
51
270
0
ARC
8
0
10
59.9
20
91.6
40
2
50
90
51
180
0
ARC
8
0
10
73.9
20
95.6
40
2
50
270
51
0
0
ARC
8
0
10
77.9
20
100.1
40
2
50
90
51
180
0
ARC
8
0
10
91.9
20
104.1
40
2
50
270
51
0
0
ARC
8
0
10
95.9
20
105.7666667
40
2
50
90
51
180
0
ARC
8
0
10
112.1
20
105.7666667
40
2
50
0
51
90
0
ARC
8
0
10
116.1
20
104.1
40
2
50
180
51
270
0
ARC
8
0
10
130.1
20
100.1
40
2
50
0
51
90
0
ARC
8
0
10
148.1
20
97.2666667
40
2
50
1.4325437
51
90
0
LINE
8
0
10
169.6074111
20
21.6266123
11
171.9105243
21
17.6562879
0
LINE
8
0
10
158.4754954
20
4.221259
11
111.7371751
21
29.1937103
0
LINE
8
0
10
111.7371751
20
29.1937103
11
76.3160823
21
40.4
0
ARC
8
0
10
168
20
22.8166667
40
2
50
323.4854284
51
360
0
LINE
8
0
10
170
20
22.8166667
11
170
21
95.3166667
0
ARC
8
0
10
168
20
95.3166667
40
2
50
0
51
90
0
LINE
8
0
10
168
20
97.3166667
11
150.0993749
21
97.3166667
0
ENDSEC
0
EOF