0
SECTION
2
HEADER
9
$INSUNITS
70
4
0
ENDSEC
0
SECTION
2
TABLES
0
TABLE
2
LTYPE
0
LTYPE
72
65
70
64
2
CONTINUOUS
3
______
73
0
40
0
0
ENDTAB
0
TABLE
2
LAYER
0
ENDTAB
0
ENDSEC
0
SECTION
2
ENTITIES
0
LINE
8
0
10
59.9
20
40.4
11
73.999859
21
40.4
0
LINE
8
0
10
57.9
20
42.4
11
57.9
21
91.6
0
LINE
8
0
10
59.9
20
93.6
11
73.9
21
93.6
0
LINE
8
0
10
77.9
20
102.1
11
91.9
21
102.1
0
LINE
8
0
10
75.9
20
95.6
11
75.9
21
100.1
0
LINE
8
0
10
95.9
20
107.7666667
11
112.1
21
107.7666667
0
LINE
8
0
10
114.1
20
105.7666667
11
114.1
21
104.1
0
LINE
8
0
10
93.9
20
104.1
11
93.9
21
105.7666667
0
LINE
8
0
10
116.1
20
102.1
11
130.1
21
102.1
0
LINE
8
0
10
132.1
20
100.1
11
132.1
21
99.2666667
0
LINE
8
0
10
132.1
20
99.2666667
11
148.1
21
99.2666667
0
ARC
8
0
10
159.889709
20
5.6354726
40
2
50
225
51
315
0
LINE
8
0
10
161.3039226
20
4.221259
11
171.9105243
21
14.8278607
0
ARC
8
0
10
170.4963107
20
16.2420743
40
2
50
315
51
45
0
ARC
8
0
10
59.9
20
42.4
40
2
50
180
51
270
0
ARC
8
0
10
59.9
20
91.6
40
2
50
90
51
180
0
ARC
8
0
10
73.9
20
95.6
40
2
50
270
51
0
0
ARC
8
0
10
77.9
20
100.1
40
2
50
90
51
180
0
ARC
8
0
10
91.9
20
104.1
40
2
50
270
51
0
0
ARC
8
0
10
95.9
20
105.7666667
40
2
50
90
51
180
0
ARC
8
0
10
112.1
20
105.7666667
40
2
50
0
51
90
0
ARC
8
0
10
116.1
20
104.1
40
2
50
180
51
270
0
ARC
8
0
10
130.1
20
100.1
40
2
50
0
51
90
0
ARC
8
0
10
148.1
20
97.2666667
40
2
50
1.4325437
51
90
0
LINE
8
0
10
169.6074111
20
21.6266123
11
171.9105243
21
17.6562879
0
LINE
8
0
10
158.4754954
20
4.221259
11
112.9597961
21
28.5404595
0
LINE
8
0
10
110.4155441
20
29.6118391
11
78.5244214
21
39.7013403
0
ARC
8
0
10
168
20
22.8166667
40
2
50
323.4854284
51
360
0
LINE
8
0
10
170
20
22.8166667
11
170
21
95.3166667
0
ARC
8
0
10
168
20
95.3166667
40
2
50
0
51
90
0
LINE
8
0
10
168
20
97.3166667
11
150.0993749
21
97.3166667
0
ARC
8
0
10
73.999859
20
25.4
40
15
50
72.4440185
51
90
0
ARC
8
0
10
105.8909817
20
15.3104988
40
15
50
61.8842537
51
72.4440185
0
LINE
8
0
10
61.005
20
41.505
11
74.995
21
41.505
0
ARC
8
0
10
74.995
20
43.505
40
2
50
270
51
360
0
LINE
8
0
10
76.995
20
43.505
11
76.995
21
56.495
0
ARC
8
0
10
74.995
20
56.495
40
2
50
0
51
90
0
LINE
8
0
10
74.995
20
58.495
11
61.005
21
58.495
0
ARC
8
0
10
61.005
20
56.495
40
2
50
90
51
180
0
LINE
8
0
10
59.005
20
56.495
11
59.005
21
43.505
0
ARC
8
0
10
61.005
20
43.505
40
2
50
180
51
270
0
LINE
8
0
10
61.005
20
58.505
11
74.995
21
58.505
0
ARC
8
0
10
74.995
20
60.505
40
2
50
270
51
360
0
LINE
8
0
10
76.995
20
60.505
11
76.995
21
73.495
0
ARC
8
0
10
74.995
20
73.495
40
2
50
0
51
90
0
LINE
8
0
10
74.995
20
75.495
11
61.005
21
75.495
0
ARC
8
0
10
61.005
20
73.495
40
2
50
90
51
180
0
LINE
8
0
10
59.005
20
73.495
11
59.005
21
60.505
0
ARC
8
0
10
61.005
20
60.505
40
2
50
180
51
270
0
LINE
8
0
10
61.005
20
75.505
11
74.995
21
75.505
0
ARC
8
0
10
74.995
20
77.505
40
2
50
270
51
360
0
LINE
8
0
10
76.995
20
77.505
11
76.995
21
90.495
0
ARC
8
0
10
74.995
20
90.495
40
2
50
0
51
90
0
LINE
8
0
10
74.995
20
92.495
11
61.005
21
92.495
0
ARC
8
0
10
61.005
20
90.495
40
2
50
90
51
180
0
LINE
8
0
10
59.005
20
90.495
11
59.005
21
77.505
0
ARC
8
0
10
61.005
20
77.505
40
2
50
180
51
270
0
LINE
8
0
10
79.005
20
50.005
11
92.995
21
50.005
0
ARC
8
0
10
92.995
20
52.005
40
2
50
270
51
360
0
LINE
8
0
10
94.995
20
52.005
11
94.995
21
64.995
0
ARC
8
0
10
92.995
20
64.995
40
2
50
0
51
90
0
LINE
8
0
10
92.995
20
66.995
11
79.005
21
66.995
0
ARC
8
0
10
79.005
20
64.995
40
2
50
90
51
180
0
LINE
8
0
10
77.005
20
64.995
11
77.005
21
52.005
0
ARC
8
0
10
79.005
20
52.005
40
2
50
180
51
270
0
LINE
8
0
10
79.005
20
67.005
11
92.995
21
67.005
0
ARC
8
0
10
92.995
20
69.005
40
2
50
270
51
360
0
LINE
8
0
10
94.995
20
69.005
11
94.995
21
81.995
0
ARC
8
0
10
92.995
20
81.995
40
2
50
0
51
90
0
LINE
8
0
10
92.995
20
83.995
11
79.005
21
83.995
0
ARC
8
0
10
79.005
20
81.995
40
2
50
90
51
180
0
LINE
8
0
10
77.005
20
81.995
11
77.005
21
69.005
0
ARC
8
0
10
79.005
20
69.005
40
2
50
180
51
270
0
LINE
8
0
10
79.005
20
84.005
11
92.995
21
84.005
0
ARC
8
0
10
92.995
20
86.005
40
2
50
270
51
360
0
LINE
8
0
10
94.995
20
86.005
11
94.995
21
98.995
0
ARC
8
0
10
92.995
20
98.995
40
2
50
0
51
90
0
LINE
8
0
10
92.995
20
100.995
11
79.005
21
100.995
0
ARC
8
0
10
79.005
20
98.995
40
2
50
90
51
180
0
LINE
8
0
10
77.005
20
98.995
11
77.005
21
86.005
0
ARC
8
0
10
79.005
20
86.005
40
2
50
180
51
270
0
LINE
8
0
10
97.005
20
55.6716667
11
110.995
21
55.6716667
0
ARC
8
0
10
110.995
20
57.6716667
40
2
50
270
51
360
0
LINE
8
0
10
112.995
20
57.6716667
11
112.995
21
70.6616667
0
ARC
8
0
10
110.995
20
70.6616667
40
2
50
0
51
90
0
LINE
8
0
10
110.995
20
72.6616667
11
97.005
21
72.6616667
0
ARC
8
0
10
97.005
20
70.6616667
40
2
50
90
51
180
0
LINE
8
0
10
95.005
20
70.6616667
11
95.005
21
57.6716667
0
ARC
8
0
10
97.005
20
57.6716667
40
2
50
180
51
270
0
LINE
8
0
10
97.005
20
72.6716667
11
110.995
21
72.6716667
0
ARC
8
0
10
110.995
20
74.6716667
40
2
50
270
51
360
0
LINE
8
0
10
112.995
20
74.6716667
11
112.995
21
87.6616667
0
ARC
8
0
10
110.995
20
87.6616667
40
2
50
0
51
90
0
LINE
8
0
10
110.995
20
89.6616667
11
97.005
21
89.6616667
0
ARC
8
0
10
97.005
20
87.6616667
40
2
50
90
51
180
0
LINE
8
0
10
95.005
20
87.6616667
11
95.005
21
74.6716667
0
ARC
8
0
10
97.005
20
74.6716667
40
2
50
180
51
270
0
LINE
8
0
10
97.005
20
89.6716667
11
110.995
21
89.6716667
0
ARC
8
0
10
110.995
20
91.6716667
40
2
50
270
51
360
0
LINE
8
0
10
112.995
20
91.6716667
11
112.995
21
104.6616667
0
ARC
8
0
10
110.995
20
104.6616667
40
2
50
0
51
90
0
LINE
8
0
10
110.995
20
106.6616667
11
97.005
21
106.6616667
0
ARC
8
0
10
97.005
20
104.6616667
40
2
50
90
51
180
0
LINE
8
0
10
95.005
20
104.6616667
11
95.005
21
91.6716667
0
ARC
8
0
10
97.005
20
91.6716667
40
2
50
180
51
270
0
LINE
8
0
10
115.005
20
50.005
11
128.995
21
50.005
0
ARC
8
0
10
128.995
20
52.005
40
2
50
270
51
360
0
LINE
8
0
10
130.995
20
52.005
11
130.995
21
64.995
0
ARC
8
0
10
128.995
20
64.995
40
2
50
0
51
90
0
LINE
8
0
10
128.995
20
66.995
11
115.005
21
66.995
0
ARC
8
0
10
115.005
20
64.995
40
2
50
90
51
180
0
LINE
8
0
10
113.005
20
64.995
11
113.005
21
52.005
0
ARC
8
0
10
115.005
20
52.005
40
2
50
180
51
270
0
LINE
8
0
10
115.005
20
67.005
11
128.995
21
67.005
0
ARC
8
0
10
128.995
20
69.005
40
2
50
270
51
360
0
LINE
8
0
10
130.995
20
69.005
11
130.995
21
81.995
0
ARC
8
0
10
128.995
20
81.995
40
2
50
0
51
90
0
LINE
8
0
10
128.995
20
83.995
11
115.005
21
83.995
0
ARC
8
0
10
115.005
20
81.995
40
2
50
90
51
180
0
LINE
8
0
10
113.005
20
81.995
11
113.005
21
69.005
0
ARC
8
0
10
115.005
20
69.005
40
2
50
180
51
270
0
LINE
8
0
10
115.005
20
84.005
11
128.995
21
84.005
0
ARC
8
0
10
128.995
20
86.005
40
2
50
270
51
360
0
LINE
8
0
10
130.995
20
86.005
11
130.995
21
98.995
0
ARC
8
0
10
128.995
20
98.995
40
2
50
0
51
90
0
LINE
8
0
10
128.995
20
100.995
11
115.005
21
100.995
0
ARC
8
0
10
115.005
20
98.995
40
2
50
90
51
180
0
LINE
8
0
10
113.005
20
98.995
11
113.005
21
86.005
0
ARC
8
0
10
115.005
20
86.005
40
2
50
180
51
270
0
LINE
8
0
10
133.005
20
47.1716667
11
146.995
21
47.1716667
0
ARC
8
0
10
146.995
20
49.1716667
40
2
50
270
51
360
0
LINE
8
0
10
148.995
20
49.1716667
11
148.995
21
62.1616667
0
ARC
8
0
10
146.995
20
62.1616667
40
2
50
0
51
90
0
LINE
8
0
10
146.995
20
64.1616667
11
133.005
21
64.1616667
0
ARC
8
0
10
133.005
20
62.1616667
40
2
50
90
51
180
0
LINE
8
0
10
131.005
20
62.1616667
11
131.005
21
49.1716667
0
ARC
8
0
10
133.005
20
49.1716667
40
2
50
180
51
270
0
LINE
8
0
10
133.005
20
64.1716667
11
146.995
21
64.1716667
0
ARC
8
0
10
146.995
20
66.1716667
40
2
50
270
51
360
0
LINE
8
0
10
148.995
20
66.1716667
11
148.995
21
79.1616667
0
ARC
8
0
10
146.995
20
79.1616667
40
2
50
0
51
90
0
LINE
8
0
10
146.995
20
81.1616667
11
133.005
21
81.1616667
0
ARC
8
0
10
133.005
20
79.1616667
40
2
50
90
51
180
0
LINE
8
0
10
131.005
20
79.1616667
11
131.005
21
66.1716667
0
ARC
8
0
10
133.005
20
66.1716667
40
2
50
180
51
270
0
LINE
8
0
10
133.005
20
81.1716667
11
146.995
21
81.1716667
0
ARC
8
0
10
146.995
20
83.1716667
40
2
50
270
51
360
0
LINE
8
0
10
148.995
20
83.1716667
11
148.995
21
96.1616667
0
ARC
8
0
10
146.995
20
96.1616667
40
2
50
0
51
90
0
LINE
8
0
10
146.995
20
98.1616667
11
133.005
21
98.1616667
0
ARC
8
0
10
133.005
20
96.1616667
40
2
50
90
51
180
0
LINE
8
0
10
131.005
20
96.1616667
11
131.005
21
83.1716667
0
ARC
8
0
10
133.005
20
83.1716667
40
2
50
180
51
270
0
LINE
8
0
10
116.1246403
20
30.0938213
11
129.6379426
21
26.4729429
0
ARC
8
0
10
130.1555807
20
28.4047945
40
2
50
255
51
345
0
LINE
8
0
10
132.0874323
20
27.8871564
11
135.4494917
21
40.4345329
0
ARC
8
0
10
133.5176401
20
40.952171
40
2
50
345
51
75
0
LINE
8
0
10
134.0352781
20
42.8840227
11
120.5219758
21
46.5049011
0
ARC
8
0
10
120.0043377
20
44.5730495
40
2
50
75
51
165
0
LINE
8
0
10
118.0724861
20
45.0906876
11
114.7104267
21
32.5433111
0
ARC
8
0
10
116.6422783
20
32.025673
40
2
50
165
51
255
0
LINE
8
0
10
133.3122107
20
24.9510112
11
145.4279061
21
17.9560112
0
ARC
8
0
10
146.4279061
20
19.688062
40
2
50
240
51
330
0
LINE
8
0
10
148.1599569
20
18.688062
11
154.6549569
21
29.937732
0
ARC
8
0
10
152.9229061
20
30.937732
40
2
50
330
51
60
0
LINE
8
0
10
153.9229061
20
32.6697828
11
141.8072107
21
39.6647828
0
ARC
8
0
10
140.8072107
20
37.932732
40
2
50
60
51
150
0
LINE
8
0
10
139.0751599
20
38.932732
11
132.5801599
21
27.683062
0
ARC
8
0
10
134.3122107
20
26.683062
40
2
50
150
51
240
0
LINE
8
0
10
148.5830716
20
15.5349675
11
158.4754954
21
5.6425437
0
ARC
8
0
10
159.889709
20
7.0567572
40
2
50
225
51
315
0
LINE
8
0
10
161.3039226
20
5.6425437
11
170.4892396
21
14.8278607
0
ARC
8
0
10
169.0750261
20
16.2420743
40
2
50
315
51
45
0
LINE
8
0
10
170.4892396
20
17.6562879
11
160.5968158
21
27.5487117
0
ARC
8
0
10
159.1826022
20
26.1344982
40
2
50
45
51
135
0
LINE
8
0
10
157.7683886
20
27.5487117
11
148.5830716
21
18.3633947
0
ARC
8
0
10
149.9972851
20
16.9491811
40
2
50
135
51
225
0
ENDSEC
0
EOF