0
SECTION
2
HEADER
9
$INSUNITS
70
4
0
ENDSEC
0
SECTION
2
TABLES
0
TABLE
2
LTYPE
0
LTYPE
72
65
70
64
2
CONTINUOUS
3
______
73
0
40
0
0
ENDTAB
0
TABLE
2
LAYER
0
ENDTAB
0
ENDSEC
0
SECTION
2
ENTITIES
0
LINE
8
0
10
87
20
48.9
11
87
21
40.4
0
LINE
8
0
10
57.9
20
40.4
11
87
21
40.4
0
LINE
8
0
10
57.9
20
40.4
11
57.9
21
93.6
0
LINE
8
0
10
57.9
20
93.6
11
75.9
21
93.6
0
LINE
8
0
10
93.9
20
48.9
11
87
21
48.9
0
LINE
8
0
10
75.9
20
102.1
11
93.9
21
102.1
0
LINE
8
0
10
75.9
20
93.6
11
75.9
21
102.1
0
LINE
8
0
10
103
20
45.6666667
11
93.9
21
45.6666667
0
LINE
8
0
10
93.9
20
45.6666667
11
93.9
21
48.9
0
LINE
8
0
10
93.9
20
107.7666667
11
114.1
21
107.7666667
0
LINE
8
0
10
114.1
20
107.7666667
11
114.1
21
102.1
0
LINE
8
0
10
93.9
20
102.1
11
93.9
21
107.7666667
0
LINE
8
0
10
132.1
20
46.0666667
11
132.1
21
44.4430314
0
LINE
8
0
10
115.6679879
20
40
11
103
21
40
0
LINE
8
0
10
103
20
40
11
103
21
45.6666667
0
LINE
8
0
10
114.1
20
102.1
11
132.1
21
102.1
0
LINE
8
0
10
132.1
20
102.1
11
132.1
21
99.2666667
0
LINE
8
0
10
150.1
20
46.0666667
11
150.1
21
99.2666667
0
LINE
8
0
10
132.1
20
46.0666667
11
150.1
21
46.0666667
0
LINE
8
0
10
132.1
20
99.2666667
11
150.1
21
99.2666667
0
LINE
8
0
10
114.8937717
20
29.383179
11
130.3485849
21
25.2420743
0
ARC
8
0
10
130.866223
20
27.1739259
40
2
50
255
51
281.6239837
0
LINE
8
0
10
134.5051813
20
33.0272969
11
136.6803603
21
41.1451752
0
ARC
8
0
10
134.7485086
20
41.6628133
40
2
50
345
51
75
0
LINE
8
0
10
135.2661467
20
43.594665
11
132.1
21
44.4430314
0
LINE
8
0
10
115.6679879
20
40
11
113.4795581
21
31.8326688
0
ARC
8
0
10
115.4114098
20
31.3150307
40
2
50
165
51
255
0
LINE
8
0
10
131.9393552
20
24.5831557
11
145.7957616
21
16.5831557
0
ARC
8
0
10
146.7957616
20
18.3152065
40
2
50
240
51
266.6239785
0
LINE
8
0
10
151.8256897
20
23.0272975
11
156.0278124
21
30.3055875
0
ARC
8
0
10
154.2957616
20
31.3055875
40
2
50
330
51
60
0
LINE
8
0
10
155.2957616
20
33.0376383
11
141.4393552
21
41.0376383
0
ARC
8
0
10
140.4393552
20
39.3055875
40
2
50
60
51
150
0
LINE
8
0
10
138.7073044
20
40.3055875
11
134.5051813
21
33.0272969
0
ARC
8
0
10
132.9393552
20
26.3152065
40
2
50
213.3760218
51
240
0
LINE
8
0
10
147.1617869
20
15.5349675
11
158.4754954
21
4.221259
0
ARC
8
0
10
159.889709
20
5.6354726
40
2
50
225
51
315
0
LINE
8
0
10
161.3039226
20
4.221259
11
171.9105243
21
14.8278607
0
ARC
8
0
10
170.4963107
20
16.2420743
40
2
50
315
51
45
0
LINE
8
0
10
171.9105243
20
17.6562879
11
160.5968158
21
28.9699964
0
ARC
8
0
10
159.1826022
20
27.5557828
40
2
50
45
51
135
0
LINE
8
0
10
157.7683886
20
28.9699964
11
151.8256897
21
23.0272975
0
ARC
8
0
10
148.5760005
20
16.9491811
40
2
50
198.3760183
51
225
0
ENDSEC
0
EOF