0
SECTION
2
HEADER
9
$INSUNITS
70
4
0
ENDSEC
0
SECTION
2
TABLES
0
TABLE
2
LTYPE
0
LTYPE
72
65
70
64
2
CONTINUOUS
3
______
73
0
40
0
0
ENDTAB
0
TABLE
2
LAYER
0
ENDTAB
0
ENDSEC
0
SECTION
2
ENTITIES
0
LINE
8
0
10
59.9
20
40.4
11
75.4587068
21
40.4
0
LINE
8
0
10
57.9
20
42.4
11
57.9
21
91.6
0
LINE
8
0
10
59.9
20
93.6
11
73.9
21
93.6
0
LINE
8
0
10
77.9
20
110.6
11
91.9
21
110.6
0
LINE
8
0
10
75.9
20
95.6
11
75.9
21
108.6
0
LINE
8
0
10
95.9
20
116.2666667
11
112.1
21
116.2666667
0
LINE
8
0
10
114.1
20
114.2666667
11
114.1
21
112.6
0
LINE
8
0
10
93.9
20
112.6
11
93.9
21
114.2666667
0
LINE
8
0
10
116.1
20
110.6
11
132.1
21
110.6
0
LINE
8
0
10
132.1
20
110.6
11
132.1
21
109.7666667
0
LINE
8
0
10
134.1
20
107.7666667
11
148.1
21
107.7666667
0
ARC
8
0
10
174.289709
20
9.0354726
40
2
50
225
51
315
0
LINE
8
0
10
175.7039226
20
7.621259
11
186.3105243
21
18.2278607
0
ARC
8
0
10
184.8963107
20
19.6420743
40
2
50
315
51
45
0
ARC
8
0
10
148.1
20
105.7666667
40
2
50
1.4325437
51
90
0
ARC
8
0
10
134.1
20
109.7666667
40
2
50
180
51
270
0
ARC
8
0
10
116.1
20
112.6
40
2
50
180
51
270
0
ARC
8
0
10
112.1
20
114.2666667
40
2
50
0
51
90
0
ARC
8
0
10
95.9
20
114.2666667
40
2
50
90
51
180
0
ARC
8
0
10
91.9
20
112.6
40
2
50
270
51
0
0
ARC
8
0
10
77.9
20
108.6
40
2
50
90
51
180
0
ARC
8
0
10
73.9
20
95.6
40
2
50
270
51
0
0
ARC
8
0
10
59.9
20
91.6
40
2
50
90
51
180
0
ARC
8
0
10
59.9
20
42.4
40
2
50
180
51
270
0
LINE
8
0
10
173.1174997
20
38.1806397
11
186.3105243
21
21.0562879
0
LINE
8
0
10
172.8754954
20
7.621259
11
128.3694389
21
31.4010038
0
LINE
8
0
10
123.637149
20
32.9879473
11
77.7952313
21
40.2169043
0
LINE
8
0
10
170
20
47.3352115
11
170
21
103.8166667
0
ARC
8
0
10
168
20
103.8166667
40
2
50
0
51
90
0
LINE
8
0
10
168
20
105.8166667
11
150.0993749
21
105.8166667
0
ARC
8
0
10
75.4587068
20
25.4
40
15
50
81.038642
51
90
0
ARC
8
0
10
121.3006245
20
18.171043
40
15
50
61.8842537
51
81.038642
0
ARC
8
0
10
185
20
47.3352115
40
15
50
180
51
217.6115446
0
LINE
8
0
10
61.005
20
41.505
11
74.995
21
41.505
0
ARC
8
0
10
74.995
20
43.505
40
2
50
270
51
360
0
LINE
8
0
10
76.995
20
43.505
11
76.995
21
56.495
0
ARC
8
0
10
74.995
20
56.495
40
2
50
0
51
90
0
LINE
8
0
10
74.995
20
58.495
11
61.005
21
58.495
0
ARC
8
0
10
61.005
20
56.495
40
2
50
90
51
180
0
LINE
8
0
10
59.005
20
56.495
11
59.005
21
43.505
0
ARC
8
0
10
61.005
20
43.505
40
2
50
180
51
270
0
LINE
8
0
10
61.005
20
58.505
11
74.995
21
58.505
0
ARC
8
0
10
74.995
20
60.505
40
2
50
270
51
360
0
LINE
8
0
10
76.995
20
60.505
11
76.995
21
73.495
0
ARC
8
0
10
74.995
20
73.495
40
2
50
0
51
90
0
LINE
8
0
10
74.995
20
75.495
11
61.005
21
75.495
0
ARC
8
0
10
61.005
20
73.495
40
2
50
90
51
180
0
LINE
8
0
10
59.005
20
73.495
11
59.005
21
60.505
0
ARC
8
0
10
61.005
20
60.505
40
2
50
180
51
270
0
LINE
8
0
10
61.005
20
75.505
11
74.995
21
75.505
0
ARC
8
0
10
74.995
20
77.505
40
2
50
270
51
360
0
LINE
8
0
10
76.995
20
77.505
11
76.995
21
90.495
0
ARC
8
0
10
74.995
20
90.495
40
2
50
0
51
90
0
LINE
8
0
10
74.995
20
92.495
11
61.005
21
92.495
0
ARC
8
0
10
61.005
20
90.495
40
2
50
90
51
180
0
LINE
8
0
10
59.005
20
90.495
11
59.005
21
77.505
0
ARC
8
0
10
61.005
20
77.505
40
2
50
180
51
270
0
LINE
8
0
10
79.005
20
58.505
11
92.995
21
58.505
0
ARC
8
0
10
92.995
20
60.505
40
2
50
270
51
360
0
LINE
8
0
10
94.995
20
60.505
11
94.995
21
73.495
0
ARC
8
0
10
92.995
20
73.495
40
2
50
0
51
90
0
LINE
8
0
10
92.995
20
75.495
11
79.005
21
75.495
0
ARC
8
0
10
79.005
20
73.495
40
2
50
90
51
180
0
LINE
8
0
10
77.005
20
73.495
11
77.005
21
60.505
0
ARC
8
0
10
79.005
20
60.505
40
2
50
180
51
270
0
LINE
8
0
10
79.005
20
75.505
11
92.995
21
75.505
0
ARC
8
0
10
92.995
20
77.505
40
2
50
270
51
360
0
LINE
8
0
10
94.995
20
77.505
11
94.995
21
90.495
0
ARC
8
0
10
92.995
20
90.495
40
2
50
0
51
90
0
LINE
8
0
10
92.995
20
92.495
11
79.005
21
92.495
0
ARC
8
0
10
79.005
20
90.495
40
2
50
90
51
180
0
LINE
8
0
10
77.005
20
90.495
11
77.005
21
77.505
0
ARC
8
0
10
79.005
20
77.505
40
2
50
180
51
270
0
LINE
8
0
10
79.005
20
92.505
11
92.995
21
92.505
0
ARC
8
0
10
92.995
20
94.505
40
2
50
270
51
360
0
LINE
8
0
10
94.995
20
94.505
11
94.995
21
107.495
0
ARC
8
0
10
92.995
20
107.495
40
2
50
0
51
90
0
LINE
8
0
10
92.995
20
109.495
11
79.005
21
109.495
0
ARC
8
0
10
79.005
20
107.495
40
2
50
90
51
180
0
LINE
8
0
10
77.005
20
107.495
11
77.005
21
94.505
0
ARC
8
0
10
79.005
20
94.505
40
2
50
180
51
270
0
LINE
8
0
10
97.005
20
64.1716667
11
110.995
21
64.1716667
0
ARC
8
0
10
110.995
20
66.1716667
40
2
50
270
51
360
0
LINE
8
0
10
112.995
20
66.1716667
11
112.995
21
79.1616667
0
ARC
8
0
10
110.995
20
79.1616667
40
2
50
0
51
90
0
LINE
8
0
10
110.995
20
81.1616667
11
97.005
21
81.1616667
0
ARC
8
0
10
97.005
20
79.1616667
40
2
50
90
51
180
0
LINE
8
0
10
95.005
20
79.1616667
11
95.005
21
66.1716667
0
ARC
8
0
10
97.005
20
66.1716667
40
2
50
180
51
270
0
LINE
8
0
10
97.005
20
81.1716667
11
110.995
21
81.1716667
0
ARC
8
0
10
110.995
20
83.1716667
40
2
50
270
51
360
0
LINE
8
0
10
112.995
20
83.1716667
11
112.995
21
96.1616667
0
ARC
8
0
10
110.995
20
96.1616667
40
2
50
0
51
90
0
LINE
8
0
10
110.995
20
98.1616667
11
97.005
21
98.1616667
0
ARC
8
0
10
97.005
20
96.1616667
40
2
50
90
51
180
0
LINE
8
0
10
95.005
20
96.1616667
11
95.005
21
83.1716667
0
ARC
8
0
10
97.005
20
83.1716667
40
2
50
180
51
270
0
LINE
8
0
10
97.005
20
98.1716667
11
110.995
21
98.1716667
0
ARC
8
0
10
110.995
20
100.1716667
40
2
50
270
51
360
0
LINE
8
0
10
112.995
20
100.1716667
11
112.995
21
113.1616667
0
ARC
8
0
10
110.995
20
113.1616667
40
2
50
0
51
90
0
LINE
8
0
10
110.995
20
115.1616667
11
97.005
21
115.1616667
0
ARC
8
0
10
97.005
20
113.1616667
40
2
50
90
51
180
0
LINE
8
0
10
95.005
20
113.1616667
11
95.005
21
100.1716667
0
ARC
8
0
10
97.005
20
100.1716667
40
2
50
180
51
270
0
LINE
8
0
10
115.005
20
58.505
11
128.995
21
58.505
0
ARC
8
0
10
128.995
20
60.505
40
2
50
270
51
360
0
LINE
8
0
10
130.995
20
60.505
11
130.995
21
73.495
0
ARC
8
0
10
128.995
20
73.495
40
2
50
0
51
90
0
LINE
8
0
10
128.995
20
75.495
11
115.005
21
75.495
0
ARC
8
0
10
115.005
20
73.495
40
2
50
90
51
180
0
LINE
8
0
10
113.005
20
73.495
11
113.005
21
60.505
0
ARC
8
0
10
115.005
20
60.505
40
2
50
180
51
270
0
LINE
8
0
10
115.005
20
75.505
11
128.995
21
75.505
0
ARC
8
0
10
128.995
20
77.505
40
2
50
270
51
360
0
LINE
8
0
10
130.995
20
77.505
11
130.995
21
90.495
0
ARC
8
0
10
128.995
20
90.495
40
2
50
0
51
90
0
LINE
8
0
10
128.995
20
92.495
11
115.005
21
92.495
0
ARC
8
0
10
115.005
20
90.495
40
2
50
90
51
180
0
LINE
8
0
10
113.005
20
90.495
11
113.005
21
77.505
0
ARC
8
0
10
115.005
20
77.505
40
2
50
180
51
270
0
LINE
8
0
10
115.005
20
92.505
11
128.995
21
92.505
0
ARC
8
0
10
128.995
20
94.505
40
2
50
270
51
360
0
LINE
8
0
10
130.995
20
94.505
11
130.995
21
107.495
0
ARC
8
0
10
128.995
20
107.495
40
2
50
0
51
90
0
LINE
8
0
10
128.995
20
109.495
11
115.005
21
109.495
0
ARC
8
0
10
115.005
20
107.495
40
2
50
90
51
180
0
LINE
8
0
10
113.005
20
107.495
11
113.005
21
94.505
0
ARC
8
0
10
115.005
20
94.505
40
2
50
180
51
270
0
LINE
8
0
10
133.005
20
55.6716667
11
146.995
21
55.6716667
0
ARC
8
0
10
146.995
20
57.6716667
40
2
50
270
51
360
0
LINE
8
0
10
148.995
20
57.6716667
11
148.995
21
70.6616667
0
ARC
8
0
10
146.995
20
70.6616667
40
2
50
0
51
90
0
LINE
8
0
10
146.995
20
72.6616667
11
133.005
21
72.6616667
0
ARC
8
0
10
133.005
20
70.6616667
40
2
50
90
51
180
0
LINE
8
0
10
131.005
20
70.6616667
11
131.005
21
57.6716667
0
ARC
8
0
10
133.005
20
57.6716667
40
2
50
180
51
270
0
LINE
8
0
10
133.005
20
72.6716667
11
146.995
21
72.6716667
0
ARC
8
0
10
146.995
20
74.6716667
40
2
50
270
51
360
0
LINE
8
0
10
148.995
20
74.6716667
11
148.995
21
87.6616667
0
ARC
8
0
10
146.995
20
87.6616667
40
2
50
0
51
90
0
LINE
8
0
10
146.995
20
89.6616667
11
133.005
21
89.6616667
0
ARC
8
0
10
133.005
20
87.6616667
40
2
50
90
51
180
0
LINE
8
0
10
131.005
20
87.6616667
11
131.005
21
74.6716667
0
ARC
8
0
10
133.005
20
74.6716667
40
2
50
180
51
270
0
LINE
8
0
10
133.005
20
89.6716667
11
146.995
21
89.6716667
0
ARC
8
0
10
146.995
20
91.6716667
40
2
50
270
51
360
0
LINE
8
0
10
148.995
20
91.6716667
11
148.995
21
104.6616667
0
ARC
8
0
10
146.995
20
104.6616667
40
2
50
0
51
90
0
LINE
8
0
10
146.995
20
106.6616667
11
133.005
21
106.6616667
0
ARC
8
0
10
133.005
20
104.6616667
40
2
50
90
51
180
0
LINE
8
0
10
131.005
20
104.6616667
11
131.005
21
91.6716667
0
ARC
8
0
10
133.005
20
91.6716667
40
2
50
180
51
270
0
LINE
8
0
10
130.5246403
20
33.4938213
11
144.0379426
21
29.8729429
0
ARC
8
0
10
144.5555807
20
31.8047945
40
2
50
255
51
345
0
LINE
8
0
10
146.4874323
20
31.2871564
11
149.8494917
21
43.8345329
0
ARC
8
0
10
147.9176401
20
44.352171
40
2
50
345
51
75
0
LINE
8
0
10
148.4352781
20
46.2840227
11
134.9219758
21
49.9049011
0
ARC
8
0
10
134.4043377
20
47.9730495
40
2
50
75
51
165
0
LINE
8
0
10
132.4724861
20
48.4906876
11
129.1104267
21
35.9433111
0
ARC
8
0
10
131.0422783
20
35.425673
40
2
50
165
51
255
0
LINE
8
0
10
147.7122107
20
28.3510112
11
159.8279061
21
21.3560112
0
ARC
8
0
10
160.8279061
20
23.088062
40
2
50
240
51
330
0
LINE
8
0
10
162.5599569
20
22.088062
11
169.0549569
21
33.337732
0
ARC
8
0
10
167.3229061
20
34.337732
40
2
50
330
51
60
0
LINE
8
0
10
168.3229061
20
36.0697828
11
156.2072107
21
43.0647828
0
ARC
8
0
10
155.2072107
20
41.332732
40
2
50
60
51
150
0
LINE
8
0
10
153.4751599
20
42.332732
11
146.9801599
21
31.083062
0
ARC
8
0
10
148.7122107
20
30.083062
40
2
50
150
51
240
0
LINE
8
0
10
162.9830716
20
18.9349675
11
172.8754954
21
9.0425437
0
ARC
8
0
10
174.289709
20
10.4567572
40
2
50
225
51
315
0
LINE
8
0
10
175.7039226
20
9.0425437
11
184.8892396
21
18.2278607
0
ARC
8
0
10
183.4750261
20
19.6420743
40
2
50
315
51
45
0
LINE
8
0
10
184.8892396
20
21.0562879
11
174.9968158
21
30.9487117
0
ARC
8
0
10
173.5826022
20
29.5344982
40
2
50
45
51
135
0
LINE
8
0
10
172.1683886
20
30.9487117
11
162.9830716
21
21.7633947
0
ARC
8
0
10
164.3972851
20
20.3491811
40
2
50
135
51
225
0
ENDSEC
0
EOF