0
SECTION
2
HEADER
9
$INSUNITS
70
4
0
ENDSEC
0
SECTION
2
TABLES
0
TABLE
2
LTYPE
0
LTYPE
72
65
70
64
2
CONTINUOUS
3
______
73
0
40
0
0
ENDTAB
0
TABLE
2
LAYER
0
ENDTAB
0
ENDSEC
0
SECTION
2
ENTITIES
0
LINE
8
0
10
59.9
20
40.4
11
75.4587068
21
40.4
0
LINE
8
0
10
57.9
20
42.4
11
57.9
21
91.6
0
LINE
8
0
10
59.9
20
93.6
11
73.9
21
93.6
0
LINE
8
0
10
77.9
20
110.6
11
91.9
21
110.6
0
LINE
8
0
10
75.9
20
95.6
11
75.9
21
108.6
0
LINE
8
0
10
95.9
20
116.2666667
11
112.1
21
116.2666667
0
LINE
8
0
10
114.1
20
114.2666667
11
114.1
21
112.6
0
LINE
8
0
10
93.9
20
112.6
11
93.9
21
114.2666667
0
LINE
8
0
10
116.1
20
110.6
11
132.1
21
110.6
0
LINE
8
0
10
132.1
20
110.6
11
132.1
21
109.7666667
0
LINE
8
0
10
134.1
20
107.7666667
11
148.1
21
107.7666667
0
ARC
8
0
10
174.289709
20
9.0354726
40
2
50
225
51
315
0
LINE
8
0
10
175.7039226
20
7.621259
11
186.3105243
21
18.2278607
0
ARC
8
0
10
184.8963107
20
19.6420743
40
2
50
315
51
45
0
ARC
8
0
10
148.1
20
105.7666667
40
2
50
1.4325437
51
90
0
ARC
8
0
10
134.1
20
109.7666667
40
2
50
180
51
270
0
ARC
8
0
10
116.1
20
112.6
40
2
50
180
51
270
0
ARC
8
0
10
112.1
20
114.2666667
40
2
50
0
51
90
0
ARC
8
0
10
95.9
20
114.2666667
40
2
50
90
51
180
0
ARC
8
0
10
91.9
20
112.6
40
2
50
270
51
0
0
ARC
8
0
10
77.9
20
108.6
40
2
50
90
51
180
0
ARC
8
0
10
73.9
20
95.6
40
2
50
270
51
0
0
ARC
8
0
10
59.9
20
91.6
40
2
50
90
51
180
0
ARC
8
0
10
59.9
20
42.4
40
2
50
180
51
270
0
LINE
8
0
10
173.1174997
20
38.1806397
11
186.3105243
21
21.0562879
0
LINE
8
0
10
172.8754954
20
7.621259
11
128.3694389
21
31.4010038
0
LINE
8
0
10
123.637149
20
32.9879473
11
77.7952313
21
40.2169043
0
LINE
8
0
10
170
20
47.3352115
11
170
21
103.8166667
0
ARC
8
0
10
168
20
103.8166667
40
2
50
0
51
90
0
LINE
8
0
10
168
20
105.8166667
11
150.0993749
21
105.8166667
0
ARC
8
0
10
75.4587068
20
25.4
40
15
50
81.038642
51
90
0
ARC
8
0
10
121.3006245
20
18.171043
40
15
50
61.8842537
51
81.038642
0
ARC
8
0
10
185
20
47.3352115
40
15
50
180
51
217.6115446
0
ENDSEC
0
EOF