0
SECTION
2
HEADER
9
$INSUNITS
70
4
0
ENDSEC
0
SECTION
2
TABLES
0
TABLE
2
LTYPE
0
LTYPE
72
65
70
64
2
CONTINUOUS
3
______
73
0
40
0
0
ENDTAB
0
TABLE
2
LAYER
0
ENDTAB
0
ENDSEC
0
SECTION
2
ENTITIES
0
LINE
8
0
10
87
20
40.4
11
87
21
57.4
0
LINE
8
0
10
57.9
20
40.4
11
87
21
40.4
0
LINE
8
0
10
57.9
20
40.4
11
57.9
21
93.6
0
LINE
8
0
10
57.9
20
93.6
11
75.9
21
93.6
0
LINE
8
0
10
93.9
20
57.4
11
87
21
57.4
0
LINE
8
0
10
75.9
20
110.6
11
93.9
21
110.6
0
LINE
8
0
10
75.9
20
93.6
11
75.9
21
110.6
0
LINE
8
0
10
103
20
54.1666667
11
93.9
21
54.1666667
0
LINE
8
0
10
93.9
20
54.1666667
11
93.9
21
57.4
0
LINE
8
0
10
93.9
20
116.2666667
11
114.1
21
116.2666667
0
LINE
8
0
10
114.1
20
116.2666667
11
114.1
21
110.6
0
LINE
8
0
10
93.9
20
110.6
11
93.9
21
116.2666667
0
LINE
8
0
10
132.1
20
54.5666667
11
132.1
21
50.4122785
0
LINE
8
0
10
103
20
48.5
11
131.4345288
21
48.5
0
LINE
8
0
10
103
20
48.5
11
103
21
54.1666667
0
LINE
8
0
10
114.1
20
110.6
11
132.1
21
110.6
0
LINE
8
0
10
132.1
20
110.6
11
132.1
21
107.7666667
0
LINE
8
0
10
150.1
20
54.5666667
11
150.1
21
107.7666667
0
LINE
8
0
10
132.1
20
54.5666667
11
150.1
21
54.5666667
0
LINE
8
0
10
132.1
20
107.7666667
11
150.1
21
107.7666667
0
LINE
8
0
10
129.2937717
20
32.783179
11
144.7485849
21
28.6420743
0
ARC
8
0
10
145.266223
20
30.5739259
40
2
50
255
51
281.6239837
0
LINE
8
0
10
148.9051813
20
36.4272969
11
151.0803603
21
44.5451752
0
ARC
8
0
10
149.1485086
20
45.0628133
40
2
50
345
51
75
0
LINE
8
0
10
149.6661467
20
46.994665
11
134.2113335
21
51.1357697
0
ARC
8
0
10
133.6936954
20
49.2039181
40
2
50
75
51
142.8301266
0
LINE
8
0
10
131.4345288
20
48.5
11
127.8795581
21
35.2326688
0
ARC
8
0
10
129.8114098
20
34.7150307
40
2
50
165
51
255
0
LINE
8
0
10
146.3393552
20
27.9831557
11
160.1957616
21
19.9831557
0
ARC
8
0
10
161.1957616
20
21.7152065
40
2
50
240
51
266.6239785
0
LINE
8
0
10
166.2256897
20
26.4272975
11
170.4278124
21
33.7055875
0
ARC
8
0
10
168.6957616
20
34.7055875
40
2
50
330
51
60
0
LINE
8
0
10
169.6957616
20
36.4376383
11
155.8393552
21
44.4376383
0
ARC
8
0
10
154.8393552
20
42.7055875
40
2
50
60
51
150
0
LINE
8
0
10
153.1073044
20
43.7055875
11
148.9051813
21
36.4272969
0
ARC
8
0
10
147.3393552
20
29.7152065
40
2
50
213.3760218
51
240
0
LINE
8
0
10
161.5617869
20
18.9349675
11
172.8754954
21
7.621259
0
ARC
8
0
10
174.289709
20
9.0354726
40
2
50
225
51
315
0
LINE
8
0
10
175.7039226
20
7.621259
11
186.3105243
21
18.2278607
0
ARC
8
0
10
184.8963107
20
19.6420743
40
2
50
315
51
45
0
LINE
8
0
10
186.3105243
20
21.0562879
11
174.9968158
21
32.3699964
0
ARC
8
0
10
173.5826022
20
30.9557828
40
2
50
45
51
135
0
LINE
8
0
10
172.1683886
20
32.3699964
11
166.2256897
21
26.4272975
0
ARC
8
0
10
162.9760005
20
20.3491811
40
2
50
198.3760183
51
225
0
ENDSEC
0
EOF